<ttFont>
    <TTGlyph name=".notdef" xMin="177" yMin="0" xMax="1593" yMax="1416">
      <contour>
        <pt x="1593" y="1416" on="1"/>
        <pt x="1593" y="0" on="1"/>
        <pt x="177" y="0" on="1"/>
        <pt x="177" y="1416" on="1"/>
      </contour>
      <contour>
        <pt x="883" y="605" on="1"/>
        <pt x="1220" y="252" on="1"/>
        <pt x="1333" y="365" on="1"/>
        <pt x="985" y="708" on="1"/>
        <pt x="1333" y="1042" on="1"/>
        <pt x="1214" y="1158" on="1"/>
        <pt x="886" y="807" on="1"/>
        <pt x="553" y="1159" on="1"/>
        <pt x="439" y="1043" on="1"/>
        <pt x="783" y="705" on="1"/>
        <pt x="440" y="387" on="1"/>
        <pt x="559" y="252" on="1"/>
      </contour>
    </TTGlyph>
    <TTGlyph name="A" xMin="-45" yMin="0" xMax="1494" yMax="1525">
      <contour>
        <pt x="70" y="176" on="1"/>
        <pt x="507" y="1525" on="1"/>
        <pt x="949" y="1525" on="1"/>
        <pt x="1387" y="175" on="1"/>
        <pt x="1494" y="152" on="1"/>
        <pt x="1494" y="0" on="1"/>
        <pt x="797" y="0" on="1"/>
        <pt x="797" y="152" on="1"/>
        <pt x="930" y="175" on="1"/>
        <pt x="872" y="392" on="1"/>
        <pt x="436" y="392" on="1"/>
        <pt x="380" y="170" on="1"/>
        <pt x="532" y="152" on="1"/>
        <pt x="532" y="0" on="1"/>
        <pt x="-42" y="0" on="1"/>
        <pt x="-45" y="152" on="1"/>
      </contour>
      <contour>
        <pt x="827" y="565" on="1"/>
        <pt x="672" y="1153" on="1"/>
        <pt x="650" y="1279" on="1"/>
        <pt x="626" y="1153" on="1"/>
        <pt x="479" y="565" on="1"/>
      </contour>
    </TTGlyph>
    <TTGlyph name="AE" xMin="-159" yMin="0" xMax="1980" yMax="1522">
      <contour>
        <pt x="817" y="174" on="1"/>
        <pt x="817" y="410" on="1"/>
        <pt x="381" y="410" on="1"/>
        <pt x="299" y="174" on="1"/>
        <pt x="449" y="150" on="1"/>
        <pt x="449" y="0" on="1"/>
        <pt x="-159" y="0" on="1"/>
        <pt x="-159" y="150" on="1"/>
        <pt x="-16" y="175" on="1"/>
        <pt x="450" y="1330" on="1"/>
        <pt x="195" y="1360" on="1"/>
        <pt x="195" y="1522" on="1"/>
        <pt x="1821" y="1522" on="1"/>
        <pt x="1849" y="1138" on="1"/>
        <pt x="1664" y="1138" on="1"/>
        <pt x="1590" y="1348" on="1"/>
        <pt x="1231" y="1374" on="1"/>
        <pt x="1231" y="863" on="1"/>
        <pt x="1437" y="870" on="1"/>
        <pt x="1475" y="1034" on="1"/>
        <pt x="1630" y="1034" on="1"/>
        <pt x="1630" y="500" on="1"/>
        <pt x="1476" y="500" on="1"/>
        <pt x="1439" y="677" on="1"/>
        <pt x="1231" y="684" on="1"/>
        <pt x="1231" y="156" on="1"/>
        <pt x="1620" y="187" on="1"/>
        <pt x="1754" y="454" on="1"/>
        <pt x="1980" y="392" on="1"/>
        <pt x="1914" y="0" on="1"/>
        <pt x="666" y="0" on="1"/>
        <pt x="666" y="150" on="1"/>
      </contour>
      <contour>
        <pt x="817" y="590" on="1"/>
        <pt x="817" y="1355" on="1"/>
        <pt x="706" y="1355" on="1"/>
        <pt x="608" y="1060" on="1"/>
        <pt x="444" y="590" on="1"/>
      </contour>
    </TTGlyph>
    <TTGlyph name="AEacute" xMin="-159" yMin="0" xMax="1980" yMax="2014">
      <component glyphName="acute.cap" x="513" y="0" flags="0x0"/>
      <component glyphName="AE" x="0" y="0" flags="0x0"/>
    </TTGlyph>
    <TTGlyph name="Aacute" xMin="-45" yMin="0" xMax="1494" yMax="2014">
      <component glyphName="A" x="0" y="0" flags="0x0"/>
      <component glyphName="acute.cap" x="216" y="0" flags="0x0"/>
    </TTGlyph>
    <TTGlyph name="Abreve" xMin="-45" yMin="0" xMax="1494" yMax="2009">
      <component glyphName="A" x="0" y="0" flags="0x0"/>
      <component glyphName="breve.cap" x="216" y="0" flags="0x0"/>
    </TTGlyph>
    <TTGlyph name="Acircumflex" xMin="-45" yMin="0" xMax="1494" yMax="2004">
      <component glyphName="A" x="0" y="0" flags="0x0"/>
      <component glyphName="circumflex.cap" x="203" y="0" flags="0x0"/>
    </TTGlyph>
    <TTGlyph name="Adieresis" xMin="-45" yMin="0" xMax="1494" yMax="2001">
      <component glyphName="A" x="0" y="0" flags="0x0"/>
      <component glyphName="dieresis.cap" x="216" y="0" flags="0x0"/>
    </TTGlyph>
    <TTGlyph name="Agrave" xMin="-45" yMin="0" xMax="1494" yMax="2014">
      <component glyphName="A" x="0" y="0" flags="0x0"/>
      <component glyphName="grave.cap" x="213" y="0" flags="0x0"/>
    </TTGlyph>
    <TTGlyph name="Amacron" xMin="-45" yMin="0" xMax="1494" yMax="1918">
      <component glyphName="A" x="0" y="0" flags="0x0"/>
      <component glyphName="macron.cap" x="386" y="0" flags="0x0"/>
    </TTGlyph>
    <TTGlyph name="Aogonek" xMin="-45" yMin="-515" xMax="1494" yMax="1525">
      <contour>
        <pt x="70" y="176" on="1"/>
        <pt x="507" y="1525" on="1"/>
        <pt x="949" y="1525" on="1"/>
        <pt x="1387" y="175" on="1"/>
        <pt x="1494" y="152" on="1"/>
        <pt x="1494" y="0" on="1"/>
        <pt x="1391" y="0" on="1"/>
        <pt x="1326" y="-22" on="0"/>
        <pt x="1230" y="-93" on="0"/>
        <pt x="1178" y="-174" on="0"/>
        <pt x="1178" y="-213" on="1"/>
        <pt x="1178" y="-256" on="0"/>
        <pt x="1256" y="-307" on="0"/>
        <pt x="1322" y="-307" on="1"/>
        <pt x="1358" y="-307" on="0"/>
        <pt x="1405" y="-298" on="0"/>
        <pt x="1438" y="-285" on="1"/>
        <pt x="1438" y="-448" on="1"/>
        <pt x="1398" y="-478" on="0"/>
        <pt x="1241" y="-515" on="0"/>
        <pt x="1173" y="-515" on="1"/>
        <pt x="1083" y="-515" on="0"/>
        <pt x="949" y="-462" on="0"/>
        <pt x="876" y="-367" on="0"/>
        <pt x="876" y="-305" on="1"/>
        <pt x="876" y="-244" on="0"/>
        <pt x="953" y="-123" on="0"/>
        <pt x="1092" y="-25" on="0"/>
        <pt x="1181" y="0" on="1"/>
        <pt x="797" y="0" on="1"/>
        <pt x="797" y="152" on="1"/>
        <pt x="930" y="175" on="1"/>
        <pt x="872" y="392" on="1"/>
        <pt x="436" y="392" on="1"/>
        <pt x="380" y="170" on="1"/>
        <pt x="532" y="152" on="1"/>
        <pt x="532" y="0" on="1"/>
        <pt x="-42" y="0" on="1"/>
        <pt x="-45" y="152" on="1"/>
      </contour>
      <contour>
        <pt x="827" y="565" on="1"/>
        <pt x="672" y="1153" on="1"/>
        <pt x="650" y="1279" on="1"/>
        <pt x="626" y="1153" on="1"/>
        <pt x="479" y="565" on="1"/>
      </contour>
    </TTGlyph>
    <TTGlyph name="Aring" xMin="-45" yMin="0" xMax="1494" yMax="2014">
      <contour>
        <pt x="1494" y="152" on="1"/>
        <pt x="1494" y="0" on="1"/>
        <pt x="797" y="0" on="1"/>
        <pt x="797" y="152" on="1"/>
        <pt x="930" y="175" on="1"/>
        <pt x="872" y="392" on="1"/>
        <pt x="436" y="392" on="1"/>
        <pt x="380" y="170" on="1"/>
        <pt x="532" y="152" on="1"/>
        <pt x="532" y="0" on="1"/>
        <pt x="-42" y="0" on="1"/>
        <pt x="-45" y="152" on="1"/>
        <pt x="70" y="176" on="1"/>
        <pt x="500" y="1505" on="1"/>
        <pt x="352" y="1568" on="0"/>
        <pt x="352" y="1737" on="1"/>
        <pt x="352" y="1822" on="0"/>
        <pt x="447" y="1947" on="0"/>
        <pt x="621" y="2014" on="0"/>
        <pt x="738" y="2014" on="1"/>
        <pt x="739" y="2014" on="1"/>
        <pt x="931" y="2014" on="0"/>
        <pt x="1101" y="1864" on="0"/>
        <pt x="1101" y="1741" on="1"/>
        <pt x="1101" y="1665" on="0"/>
        <pt x="1025" y="1549" on="0"/>
        <pt x="953" y="1514" on="1"/>
        <pt x="1387" y="175" on="1"/>
      </contour>
      <contour>
        <pt x="644" y="1882" on="0"/>
        <pt x="576" y="1809" on="0"/>
        <pt x="576" y="1743" on="1"/>
        <pt x="576" y="1683" on="0"/>
        <pt x="648" y="1598" on="0"/>
        <pt x="726" y="1598" on="1"/>
        <pt x="727" y="1598" on="1"/>
        <pt x="811" y="1598" on="0"/>
        <pt x="877" y="1666" on="0"/>
        <pt x="877" y="1731" on="1"/>
        <pt x="877" y="1798" on="0"/>
        <pt x="808" y="1882" on="0"/>
        <pt x="728" y="1882" on="1"/>
        <pt x="727" y="1882" on="1"/>
      </contour>
      <contour>
        <pt x="827" y="565" on="1"/>
        <pt x="672" y="1153" on="1"/>
        <pt x="650" y="1279" on="1"/>
        <pt x="626" y="1153" on="1"/>
        <pt x="479" y="565" on="1"/>
      </contour>
    </TTGlyph>
    <TTGlyph name="Atilde" xMin="-45" yMin="0" xMax="1494" yMax="2008">
      <component glyphName="A" x="0" y="0" flags="0x0"/>
      <component glyphName="tilde.cap" x="216" y="0" flags="0x0"/>
    </TTGlyph>
    <TTGlyph name="B" xMin="60" yMin="-12" xMax="1451" yMax="1533">
      <contour>
        <pt x="209" y="176" on="1"/>
        <pt x="209" y="1330" on="1"/>
        <pt x="61" y="1360" on="1"/>
        <pt x="61" y="1522" on="1"/>
        <pt x="409" y="1522" on="1"/>
        <pt x="482" y="1522" on="0"/>
        <pt x="596" y="1528" on="1"/>
        <pt x="681" y="1533" on="0"/>
        <pt x="745" y="1533" on="1"/>
        <pt x="984" y="1533" on="0"/>
        <pt x="1247" y="1451" on="0"/>
        <pt x="1347" y="1301" on="0"/>
        <pt x="1347" y="1185" on="1"/>
        <pt x="1347" y="1079" on="0"/>
        <pt x="1253" y="918" on="0"/>
        <pt x="1094" y="824" on="0"/>
        <pt x="998" y="813" on="1"/>
        <pt x="1135" y="812" on="0"/>
        <pt x="1339" y="733" on="0"/>
        <pt x="1451" y="577" on="0"/>
        <pt x="1451" y="463" on="1"/>
        <pt x="1451" y="317" on="0"/>
        <pt x="1326" y="108" on="0"/>
        <pt x="1025" y="-12" on="0"/>
        <pt x="770" y="-12" on="1"/>
        <pt x="661" y="-12" on="0"/>
        <pt x="565" y="-5" on="1"/>
        <pt x="548" y="-4" on="0"/>
        <pt x="461" y="0" on="0"/>
        <pt x="417" y="0" on="1"/>
        <pt x="60" y="0" on="1"/>
        <pt x="60" y="152" on="1"/>
      </contour>
      <contour>
        <pt x="655" y="866" on="0"/>
        <pt x="753" y="866" on="1"/>
        <pt x="852" y="866" on="0"/>
        <pt x="937" y="1015" on="0"/>
        <pt x="937" y="1152" on="1"/>
        <pt x="937" y="1273" on="0"/>
        <pt x="839" y="1385" on="0"/>
        <pt x="736" y="1385" on="1"/>
        <pt x="718" y="1384" on="0"/>
        <pt x="632" y="1379" on="0"/>
        <pt x="619" y="1376" on="1"/>
        <pt x="619" y="871" on="1"/>
      </contour>
      <contour>
        <pt x="635" y="153" on="0"/>
        <pt x="715" y="143" on="0"/>
        <pt x="756" y="143" on="1"/>
        <pt x="881" y="143" on="0"/>
        <pt x="993" y="300" on="0"/>
        <pt x="993" y="446" on="1"/>
        <pt x="993" y="583" on="0"/>
        <pt x="882" y="696" on="0"/>
        <pt x="765" y="696" on="1"/>
        <pt x="691" y="696" on="0"/>
        <pt x="618" y="691" on="1"/>
        <pt x="618" y="161" on="1"/>
      </contour>
    </TTGlyph>
    <TTGlyph name="C" xMin="46" yMin="-23" xMax="1310" yMax="1538">
      <contour>
        <pt x="46" y="989" on="0"/>
        <pt x="243" y="1350" on="0"/>
        <pt x="592" y="1538" on="0"/>
        <pt x="816" y="1538" on="1"/>
        <pt x="899" y="1538" on="0"/>
        <pt x="1055" y="1522" on="0"/>
        <pt x="1164" y="1508" on="1"/>
        <pt x="1208" y="1502" on="0"/>
        <pt x="1288" y="1493" on="0"/>
        <pt x="1310" y="1493" on="1"/>
        <pt x="1283" y="991" on="1"/>
        <pt x="1024" y="991" on="1"/>
        <pt x="946" y="1334" on="1"/>
        <pt x="906" y="1376" on="0"/>
        <pt x="799" y="1376" on="1"/>
        <pt x="663" y="1376" on="0"/>
        <pt x="513" y="1075" on="0"/>
        <pt x="513" y="772" on="1"/>
        <pt x="513" y="579" on="0"/>
        <pt x="579" y="296" on="0"/>
        <pt x="710" y="141" on="0"/>
        <pt x="805" y="141" on="1"/>
        <pt x="876" y="141" on="0"/>
        <pt x="948" y="172" on="0"/>
        <pt x="974" y="200" on="1"/>
        <pt x="1072" y="430" on="1"/>
        <pt x="1306" y="410" on="1"/>
        <pt x="1273" y="56" on="1"/>
        <pt x="1237" y="52" on="0"/>
        <pt x="1172" y="38" on="0"/>
        <pt x="1123" y="25" on="1"/>
        <pt x="1037" y="2" on="0"/>
        <pt x="888" y="-23" on="0"/>
        <pt x="778" y="-23" on="1"/>
        <pt x="534" y="-23" on="0"/>
        <pt x="207" y="164" on="0"/>
        <pt x="46" y="506" on="0"/>
        <pt x="46" y="740" on="1"/>
      </contour>
    </TTGlyph>
    <TTGlyph name="Cacute" xMin="46" yMin="-23" xMax="1310" yMax="2014">
      <component glyphName="C" x="0" y="0" flags="0x0"/>
      <component glyphName="acute.cap" x="285" y="0" flags="0x0"/>
    </TTGlyph>
    <TTGlyph name="Ccaron" xMin="46" yMin="-23" xMax="1310" yMax="2014">
      <component glyphName="C" x="0" y="0" flags="0x0"/>
      <component glyphName="caron.cap" x="464" y="0" flags="0x0"/>
    </TTGlyph>
    <TTGlyph name="Ccedilla" xMin="46" yMin="-540" xMax="1310" yMax="1538">
      <contour>
        <pt x="1072" y="430" on="1"/>
        <pt x="1306" y="410" on="1"/>
        <pt x="1273" y="56" on="1"/>
        <pt x="1237" y="52" on="0"/>
        <pt x="1171" y="37" on="0"/>
        <pt x="1124" y="25" on="1"/>
        <pt x="1056" y="7" on="0"/>
        <pt x="953" y="-14" on="0"/>
        <pt x="885" y="-19" on="1"/>
        <pt x="935" y="-73" on="0"/>
        <pt x="1008" y="-218" on="0"/>
        <pt x="1004" y="-297" on="1"/>
        <pt x="999" y="-389" on="0"/>
        <pt x="922" y="-496" on="0"/>
        <pt x="783" y="-540" on="0"/>
        <pt x="677" y="-540" on="1"/>
        <pt x="676" y="-540" on="1"/>
        <pt x="642" y="-540" on="0"/>
        <pt x="559" y="-522" on="0"/>
        <pt x="532" y="-510" on="1"/>
        <pt x="533" y="-296" on="1"/>
        <pt x="552" y="-302" on="0"/>
        <pt x="602" y="-309" on="0"/>
        <pt x="615" y="-309" on="1"/>
        <pt x="616" y="-309" on="1"/>
        <pt x="666" y="-309" on="0"/>
        <pt x="722" y="-291" on="0"/>
        <pt x="752" y="-231" on="0"/>
        <pt x="752" y="-170" on="1"/>
        <pt x="752" y="-135" on="0"/>
        <pt x="725" y="-55" on="0"/>
        <pt x="706" y="-21" on="1"/>
        <pt x="486" y="-7" on="0"/>
        <pt x="191" y="186" on="0"/>
        <pt x="46" y="518" on="0"/>
        <pt x="46" y="740" on="1"/>
        <pt x="46" y="989" on="0"/>
        <pt x="243" y="1350" on="0"/>
        <pt x="592" y="1538" on="0"/>
        <pt x="816" y="1538" on="1"/>
        <pt x="899" y="1538" on="0"/>
        <pt x="1055" y="1522" on="0"/>
        <pt x="1164" y="1508" on="1"/>
        <pt x="1208" y="1502" on="0"/>
        <pt x="1288" y="1493" on="0"/>
        <pt x="1310" y="1493" on="1"/>
        <pt x="1283" y="991" on="1"/>
        <pt x="1024" y="991" on="1"/>
        <pt x="946" y="1334" on="1"/>
        <pt x="906" y="1376" on="0"/>
        <pt x="799" y="1376" on="1"/>
        <pt x="663" y="1376" on="0"/>
        <pt x="513" y="1075" on="0"/>
        <pt x="513" y="772" on="1"/>
        <pt x="513" y="579" on="0"/>
        <pt x="579" y="296" on="0"/>
        <pt x="710" y="141" on="0"/>
        <pt x="805" y="141" on="1"/>
        <pt x="876" y="141" on="0"/>
        <pt x="948" y="172" on="0"/>
        <pt x="974" y="200" on="1"/>
      </contour>
    </TTGlyph>
    <TTGlyph name="Ccircumflex" xMin="46" yMin="-23" xMax="1310" yMax="2004">
      <component glyphName="C" x="0" y="0" flags="0x0"/>
      <component glyphName="circumflex.cap" x="272" y="0" flags="0x0"/>
    </TTGlyph>
    <TTGlyph name="Cdotaccent" xMin="46" yMin="-23" xMax="1310" yMax="2001">
      <component glyphName="dotaccent.cap" x="502" y="0" flags="0x0"/>
      <component glyphName="C" x="0" y="0" flags="0x0"/>
    </TTGlyph>
    <TTGlyph name="D" xMin="60" yMin="-16" xMax="1519" yMax="1533">
      <contour>
        <pt x="209" y="176" on="1"/>
        <pt x="209" y="1330" on="1"/>
        <pt x="64" y="1360" on="1"/>
        <pt x="64" y="1522" on="1"/>
        <pt x="410" y="1522" on="1"/>
        <pt x="479" y="1522" on="0"/>
        <pt x="591" y="1528" on="1"/>
        <pt x="611" y="1529" on="0"/>
        <pt x="717" y="1533" on="0"/>
        <pt x="767" y="1533" on="1"/>
        <pt x="1139" y="1533" on="0"/>
        <pt x="1519" y="1167" on="0"/>
        <pt x="1519" y="817" on="1"/>
        <pt x="1519" y="580" on="0"/>
        <pt x="1338" y="201" on="0"/>
        <pt x="994" y="-16" on="0"/>
        <pt x="758" y="-16" on="1"/>
        <pt x="701" y="-16" on="0"/>
        <pt x="546" y="-7" on="1"/>
        <pt x="452" y="0" on="0"/>
        <pt x="414" y="0" on="1"/>
        <pt x="60" y="0" on="1"/>
        <pt x="60" y="152" on="1"/>
      </contour>
      <contour>
        <pt x="659" y="150" on="0"/>
        <pt x="743" y="150" on="1"/>
        <pt x="901" y="151" on="0"/>
        <pt x="1064" y="442" on="0"/>
        <pt x="1064" y="762" on="1"/>
        <pt x="1064" y="1376" on="0"/>
        <pt x="727" y="1376" on="1"/>
        <pt x="676" y="1376" on="0"/>
        <pt x="622" y="1360" on="0"/>
        <pt x="618" y="1359" on="1"/>
        <pt x="618" y="171" on="1"/>
      </contour>
    </TTGlyph>
    <TTGlyph name="Dcaron" xMin="60" yMin="-16" xMax="1519" yMax="2014">
      <component glyphName="caron.cap" x="457" y="0" flags="0x0"/>
      <component glyphName="D" x="0" y="0" flags="0x0"/>
    </TTGlyph>
    <TTGlyph name="Dcroat" xMin="51" yMin="-16" xMax="1519" yMax="1533">
      <contour>
        <pt x="209" y="862" on="1"/>
        <pt x="209" y="1330" on="1"/>
        <pt x="64" y="1360" on="1"/>
        <pt x="64" y="1522" on="1"/>
        <pt x="410" y="1522" on="1"/>
        <pt x="479" y="1522" on="0"/>
        <pt x="591" y="1528" on="1"/>
        <pt x="611" y="1529" on="0"/>
        <pt x="717" y="1533" on="0"/>
        <pt x="767" y="1533" on="1"/>
        <pt x="1139" y="1533" on="0"/>
        <pt x="1519" y="1167" on="0"/>
        <pt x="1519" y="817" on="1"/>
        <pt x="1519" y="580" on="0"/>
        <pt x="1338" y="201" on="0"/>
        <pt x="994" y="-16" on="0"/>
        <pt x="758" y="-16" on="1"/>
        <pt x="701" y="-16" on="0"/>
        <pt x="546" y="-7" on="1"/>
        <pt x="452" y="0" on="0"/>
        <pt x="414" y="0" on="1"/>
        <pt x="60" y="0" on="1"/>
        <pt x="60" y="152" on="1"/>
        <pt x="209" y="176" on="1"/>
        <pt x="209" y="699" on="1"/>
        <pt x="51" y="699" on="1"/>
        <pt x="51" y="862" on="1"/>
      </contour>
      <contour>
        <pt x="846" y="862" on="1"/>
        <pt x="846" y="699" on="1"/>
        <pt x="618" y="699" on="1"/>
        <pt x="618" y="171" on="1"/>
        <pt x="659" y="150" on="0"/>
        <pt x="743" y="150" on="1"/>
        <pt x="901" y="151" on="0"/>
        <pt x="1064" y="442" on="0"/>
        <pt x="1064" y="762" on="1"/>
        <pt x="1064" y="1376" on="0"/>
        <pt x="727" y="1376" on="1"/>
        <pt x="676" y="1376" on="0"/>
        <pt x="622" y="1360" on="0"/>
        <pt x="618" y="1359" on="1"/>
        <pt x="618" y="862" on="1"/>
      </contour>
    </TTGlyph>
    <TTGlyph name="E" xMin="54" yMin="0" xMax="1342" yMax="1522">
      <contour>
        <pt x="209" y="175" on="1"/>
        <pt x="209" y="1329" on="1"/>
        <pt x="54" y="1360" on="1"/>
        <pt x="54" y="1522" on="1"/>
        <pt x="1210" y="1522" on="1"/>
        <pt x="1238" y="1138" on="1"/>
        <pt x="1053" y="1138" on="1"/>
        <pt x="976" y="1348" on="1"/>
        <pt x="625" y="1373" on="1"/>
        <pt x="625" y="863" on="1"/>
        <pt x="830" y="868" on="1"/>
        <pt x="869" y="1034" on="1"/>
        <pt x="1023" y="1034" on="1"/>
        <pt x="1023" y="500" on="1"/>
        <pt x="869" y="500" on="1"/>
        <pt x="832" y="679" on="1"/>
        <pt x="625" y="684" on="1"/>
        <pt x="625" y="156" on="1"/>
        <pt x="1009" y="187" on="1"/>
        <pt x="1141" y="454" on="1"/>
        <pt x="1342" y="399" on="1"/>
        <pt x="1298" y="0" on="1"/>
        <pt x="60" y="0" on="1"/>
        <pt x="60" y="152" on="1"/>
      </contour>
    </TTGlyph>
    <TTGlyph name="Eacute" xMin="54" yMin="0" xMax="1342" yMax="2014">
      <component glyphName="acute.cap" x="166" y="0" flags="0x0"/>
      <component glyphName="E" x="0" y="0" flags="0x0"/>
    </TTGlyph>
    <TTGlyph name="Ebreve" xMin="54" yMin="0" xMax="1342" yMax="2009">
      <component glyphName="breve.cap" x="190" y="0" flags="0x0"/>
      <component glyphName="E" x="0" y="0" flags="0x0"/>
    </TTGlyph>
    <TTGlyph name="Ecaron" xMin="54" yMin="0" xMax="1342" yMax="2014">
      <component glyphName="caron.cap" x="369" y="0" flags="0x0"/>
      <component glyphName="E" x="0" y="0" flags="0x0"/>
    </TTGlyph>
    <TTGlyph name="Ecircumflex" xMin="54" yMin="0" xMax="1342" yMax="2004">
      <component glyphName="E" x="0" y="0" flags="0x0"/>
      <component glyphName="circumflex.cap" x="178" y="0" flags="0x0"/>
    </TTGlyph>
    <TTGlyph name="Edieresis" xMin="54" yMin="0" xMax="1342" yMax="2001">
      <component glyphName="dieresis.cap" x="190" y="0" flags="0x0"/>
      <component glyphName="E" x="0" y="0" flags="0x0"/>
    </TTGlyph>
    <TTGlyph name="Edotaccent" xMin="54" yMin="0" xMax="1342" yMax="2001">
      <component glyphName="dotaccent.cap" x="408" y="0" flags="0x0"/>
      <component glyphName="E" x="0" y="0" flags="0x0"/>
    </TTGlyph>
    <TTGlyph name="Egrave" xMin="54" yMin="0" xMax="1342" yMax="2014">
      <component glyphName="grave.cap" x="164" y="0" flags="0x0"/>
      <component glyphName="E" x="0" y="0" flags="0x0"/>
    </TTGlyph>
    <TTGlyph name="Emacron" xMin="54" yMin="0" xMax="1342" yMax="1918">
      <component glyphName="macron.cap" x="360" y="0" flags="0x0"/>
      <component glyphName="E" x="0" y="0" flags="0x0"/>
    </TTGlyph>
    <TTGlyph name="Eng" xMin="46" yMin="-424" xMax="1654" yMax="1522">
      <contour>
        <pt x="228" y="175" on="1"/>
        <pt x="228" y="1350" on="1"/>
        <pt x="46" y="1386" on="1"/>
        <pt x="46" y="1522" on="1"/>
        <pt x="627" y="1522" on="1"/>
        <pt x="1135" y="711" on="1"/>
        <pt x="1263" y="444" on="1"/>
        <pt x="1263" y="1331" on="1"/>
        <pt x="1079" y="1362" on="1"/>
        <pt x="1079" y="1522" on="1"/>
        <pt x="1654" y="1522" on="1"/>
        <pt x="1654" y="1362" on="1"/>
        <pt x="1482" y="1331" on="1"/>
        <pt x="1482" y="430" on="1"/>
        <pt x="1482" y="249" on="0"/>
        <pt x="1422" y="6" on="0"/>
        <pt x="1342" y="-125" on="0"/>
        <pt x="1285" y="-191" on="1"/>
        <pt x="1263" y="-217" on="1"/>
        <pt x="1182" y="-307" on="0"/>
        <pt x="984" y="-409" on="0"/>
        <pt x="886" y="-424" on="1"/>
        <pt x="812" y="-304" on="1"/>
        <pt x="983" y="-248" on="0"/>
        <pt x="1079" y="-91" on="1"/>
        <pt x="1097" y="-62" on="0"/>
        <pt x="1120" y="-10" on="1"/>
        <pt x="539" y="932" on="1"/>
        <pt x="448" y="1129" on="1"/>
        <pt x="448" y="175" on="1"/>
        <pt x="647" y="150" on="1"/>
        <pt x="647" y="0" on="1"/>
        <pt x="46" y="0" on="1"/>
        <pt x="46" y="150" on="1"/>
      </contour>
    </TTGlyph>
    <TTGlyph name="Eogonek" xMin="54" yMin="-515" xMax="1342" yMax="1522">
      <contour>
        <pt x="209" y="175" on="1"/>
        <pt x="209" y="1329" on="1"/>
        <pt x="54" y="1360" on="1"/>
        <pt x="54" y="1522" on="1"/>
        <pt x="1210" y="1522" on="1"/>
        <pt x="1238" y="1138" on="1"/>
        <pt x="1053" y="1138" on="1"/>
        <pt x="976" y="1348" on="1"/>
        <pt x="625" y="1373" on="1"/>
        <pt x="625" y="863" on="1"/>
        <pt x="830" y="868" on="1"/>
        <pt x="869" y="1034" on="1"/>
        <pt x="1023" y="1034" on="1"/>
        <pt x="1023" y="500" on="1"/>
        <pt x="869" y="500" on="1"/>
        <pt x="832" y="679" on="1"/>
        <pt x="625" y="684" on="1"/>
        <pt x="625" y="156" on="1"/>
        <pt x="1009" y="187" on="1"/>
        <pt x="1141" y="454" on="1"/>
        <pt x="1342" y="399" on="1"/>
        <pt x="1298" y="0" on="1"/>
        <pt x="1284" y="0" on="1"/>
        <pt x="1219" y="-17" on="0"/>
        <pt x="1110" y="-89" on="0"/>
        <pt x="1047" y="-172" on="0"/>
        <pt x="1047" y="-205" on="1"/>
        <pt x="1047" y="-251" on="0"/>
        <pt x="1110" y="-307" on="0"/>
        <pt x="1170" y="-307" on="1"/>
        <pt x="1205" y="-307" on="0"/>
        <pt x="1245" y="-299" on="0"/>
        <pt x="1279" y="-285" on="1"/>
        <pt x="1279" y="-448" on="1"/>
        <pt x="1238" y="-479" on="0"/>
        <pt x="1089" y="-515" on="0"/>
        <pt x="1021" y="-515" on="1"/>
        <pt x="932" y="-515" on="0"/>
        <pt x="805" y="-462" on="0"/>
        <pt x="739" y="-367" on="0"/>
        <pt x="739" y="-305" on="1"/>
        <pt x="739" y="-210" on="0"/>
        <pt x="893" y="-49" on="0"/>
        <pt x="1040" y="0" on="1"/>
        <pt x="60" y="0" on="1"/>
        <pt x="60" y="152" on="1"/>
      </contour>
    </TTGlyph>
    <TTGlyph name="Eth" xMin="60" yMin="-16" xMax="1519" yMax="1533">
      <contour>
        <pt x="209" y="864" on="1"/>
        <pt x="209" y="1330" on="1"/>
        <pt x="64" y="1360" on="1"/>
        <pt x="64" y="1522" on="1"/>
        <pt x="410" y="1522" on="1"/>
        <pt x="479" y="1522" on="0"/>
        <pt x="591" y="1528" on="1"/>
        <pt x="611" y="1529" on="0"/>
        <pt x="717" y="1533" on="0"/>
        <pt x="767" y="1533" on="1"/>
        <pt x="1139" y="1533" on="0"/>
        <pt x="1519" y="1167" on="0"/>
        <pt x="1519" y="817" on="1"/>
        <pt x="1519" y="580" on="0"/>
        <pt x="1338" y="201" on="0"/>
        <pt x="994" y="-16" on="0"/>
        <pt x="758" y="-16" on="1"/>
        <pt x="701" y="-16" on="0"/>
        <pt x="546" y="-7" on="1"/>
        <pt x="452" y="0" on="0"/>
        <pt x="414" y="0" on="1"/>
        <pt x="60" y="0" on="1"/>
        <pt x="60" y="152" on="1"/>
        <pt x="209" y="176" on="1"/>
        <pt x="209" y="706" on="1"/>
        <pt x="73" y="706" on="1"/>
        <pt x="73" y="864" on="1"/>
      </contour>
      <contour>
        <pt x="868" y="864" on="1"/>
        <pt x="868" y="706" on="1"/>
        <pt x="618" y="706" on="1"/>
        <pt x="618" y="171" on="1"/>
        <pt x="659" y="150" on="0"/>
        <pt x="743" y="150" on="1"/>
        <pt x="901" y="151" on="0"/>
        <pt x="1064" y="442" on="0"/>
        <pt x="1064" y="762" on="1"/>
        <pt x="1064" y="1376" on="0"/>
        <pt x="727" y="1376" on="1"/>
        <pt x="676" y="1376" on="0"/>
        <pt x="622" y="1360" on="0"/>
        <pt x="618" y="1359" on="1"/>
        <pt x="618" y="864" on="1"/>
      </contour>
    </TTGlyph>
    <TTGlyph name="Euro" xMin="58" yMin="-28" xMax="1439" yMax="1543">
      <contour>
        <pt x="220" y="680" on="1"/>
        <pt x="219" y="697" on="0"/>
        <pt x="219" y="733" on="1"/>
        <pt x="219" y="810" on="0"/>
        <pt x="226" y="873" on="1"/>
        <pt x="72" y="873" on="1"/>
        <pt x="72" y="1026" on="1"/>
        <pt x="255" y="1026" on="1"/>
        <pt x="300" y="1191" on="0"/>
        <pt x="493" y="1423" on="0"/>
        <pt x="776" y="1543" on="0"/>
        <pt x="954" y="1543" on="1"/>
        <pt x="1067" y="1543" on="0"/>
        <pt x="1229" y="1509" on="0"/>
        <pt x="1319" y="1480" on="1"/>
        <pt x="1363" y="1466" on="0"/>
        <pt x="1415" y="1453" on="0"/>
        <pt x="1439" y="1452" on="1"/>
        <pt x="1411" y="1036" on="1"/>
        <pt x="1195" y="1036" on="1"/>
        <pt x="1129" y="1325" on="1"/>
        <pt x="1109" y="1355" on="0"/>
        <pt x="1010" y="1382" on="0"/>
        <pt x="955" y="1382" on="1"/>
        <pt x="836" y="1382" on="0"/>
        <pt x="707" y="1213" on="0"/>
        <pt x="685" y="1026" on="1"/>
        <pt x="1059" y="1026" on="1"/>
        <pt x="1059" y="873" on="1"/>
        <pt x="675" y="873" on="1"/>
        <pt x="674" y="847" on="0"/>
        <pt x="674" y="791" on="1"/>
        <pt x="674" y="715" on="0"/>
        <pt x="676" y="680" on="1"/>
        <pt x="1035" y="680" on="1"/>
        <pt x="1035" y="527" on="1"/>
        <pt x="688" y="527" on="1"/>
        <pt x="714" y="312" on="0"/>
        <pt x="856" y="122" on="0"/>
        <pt x="963" y="122" on="1"/>
        <pt x="1025" y="122" on="0"/>
        <pt x="1108" y="153" on="0"/>
        <pt x="1138" y="190" on="1"/>
        <pt x="1244" y="433" on="1"/>
        <pt x="1429" y="404" on="1"/>
        <pt x="1410" y="57" on="1"/>
        <pt x="1390" y="56" on="0"/>
        <pt x="1328" y="42" on="0"/>
        <pt x="1294" y="32" on="1"/>
        <pt x="1193" y="4" on="0"/>
        <pt x="1018" y="-28" on="0"/>
        <pt x="905" y="-28" on="1"/>
        <pt x="732" y="-28" on="0"/>
        <pt x="455" y="104" on="0"/>
        <pt x="272" y="354" on="0"/>
        <pt x="238" y="527" on="1"/>
        <pt x="58" y="527" on="1"/>
        <pt x="58" y="680" on="1"/>
      </contour>
    </TTGlyph>
    <TTGlyph name="F" xMin="52" yMin="0" xMax="1254" yMax="1522">
      <contour>
        <pt x="209" y="176" on="1"/>
        <pt x="209" y="1330" on="1"/>
        <pt x="52" y="1360" on="1"/>
        <pt x="52" y="1522" on="1"/>
        <pt x="1230" y="1522" on="1"/>
        <pt x="1254" y="1122" on="1"/>
        <pt x="1044" y="1122" on="1"/>
        <pt x="952" y="1341" on="1"/>
        <pt x="625" y="1373" on="1"/>
        <pt x="625" y="820" on="1"/>
        <pt x="841" y="825" on="1"/>
        <pt x="885" y="1015" on="1"/>
        <pt x="1047" y="1015" on="1"/>
        <pt x="1047" y="436" on="1"/>
        <pt x="887" y="436" on="1"/>
        <pt x="841" y="631" on="1"/>
        <pt x="625" y="639" on="1"/>
        <pt x="625" y="176" on="1"/>
        <pt x="934" y="152" on="1"/>
        <pt x="934" y="0" on="1"/>
        <pt x="59" y="0" on="1"/>
        <pt x="59" y="152" on="1"/>
      </contour>
    </TTGlyph>
    <TTGlyph name="G" xMin="48" yMin="-23" xMax="1497" yMax="1543">
      <contour>
        <pt x="48" y="1007" on="0"/>
        <pt x="236" y="1361" on="0"/>
        <pt x="596" y="1543" on="0"/>
        <pt x="853" y="1543" on="1"/>
        <pt x="996" y="1543" on="0"/>
        <pt x="1301" y="1500" on="0"/>
        <pt x="1390" y="1479" on="1"/>
        <pt x="1363" y="1062" on="1"/>
        <pt x="1068" y="1062" on="1"/>
        <pt x="1005" y="1346" on="1"/>
        <pt x="992" y="1363" on="0"/>
        <pt x="914" y="1391" on="0"/>
        <pt x="849" y="1391" on="1"/>
        <pt x="689" y="1391" on="0"/>
        <pt x="531" y="1077" on="0"/>
        <pt x="531" y="772" on="1"/>
        <pt x="531" y="462" on="0"/>
        <pt x="665" y="135" on="0"/>
        <pt x="819" y="135" on="1"/>
        <pt x="879" y="135" on="0"/>
        <pt x="974" y="168" on="0"/>
        <pt x="997" y="194" on="1"/>
        <pt x="997" y="608" on="1"/>
        <pt x="839" y="630" on="1"/>
        <pt x="839" y="793" on="1"/>
        <pt x="1497" y="793" on="1"/>
        <pt x="1497" y="630" on="1"/>
        <pt x="1403" y="614" on="1"/>
        <pt x="1403" y="82" on="1"/>
        <pt x="1377" y="81" on="0"/>
        <pt x="1306" y="66" on="0"/>
        <pt x="1239" y="49" on="1"/>
        <pt x="1109" y="16" on="0"/>
        <pt x="897" y="-23" on="0"/>
        <pt x="780" y="-23" on="1"/>
        <pt x="547" y="-23" on="0"/>
        <pt x="217" y="179" on="0"/>
        <pt x="48" y="531" on="0"/>
        <pt x="48" y="752" on="1"/>
      </contour>
    </TTGlyph>
    <TTGlyph name="Gbreve" xMin="46" yMin="-23" xMax="1495" yMax="2009">
      <component glyphName="breve.cap" x="311" y="0" flags="0x0"/>
      <component glyphName="G" x="-2" y="0" flags="0x0"/>
    </TTGlyph>
    <TTGlyph name="Gcaron" xMin="48" yMin="-23" xMax="1497" yMax="2014">
      <component glyphName="G" x="0" y="0" flags="0x0"/>
      <component glyphName="caron.cap" x="538" y="0" flags="0x0"/>
    </TTGlyph>
    <TTGlyph name="Gcircumflex" xMin="48" yMin="-23" xMax="1497" yMax="2004">
      <component glyphName="G" x="0" y="0" flags="0x0"/>
      <component glyphName="circumflex.cap" x="346" y="0" flags="0x0"/>
    </TTGlyph>
    <TTGlyph name="Gcommaaccent" xMin="46" yMin="-560" xMax="1495" yMax="1543">
      <component glyphName="uni0326" x="1142" y="0" flags="0x0"/>
      <component glyphName="G" x="-2" y="0" flags="0x0"/>
    </TTGlyph>
    <TTGlyph name="Gdotaccent" xMin="46" yMin="-23" xMax="1495" yMax="2001">
      <component glyphName="dotaccent.cap" x="534" y="0" flags="0x0"/>
      <component glyphName="G" x="-2" y="0" flags="0x0"/>
    </TTGlyph>
    <TTGlyph name="Gtilde" xMin="48" yMin="-23" xMax="1497" yMax="2008">
      <component glyphName="G" x="0" y="0" flags="0x0"/>
      <component glyphName="tilde.cap" x="359" y="0" flags="0x0"/>
    </TTGlyph>
    <TTGlyph name="H" xMin="68" yMin="0" xMax="1666" yMax="1522">
      <contour>
        <pt x="209" y="175" on="1"/>
        <pt x="209" y="1331" on="1"/>
        <pt x="70" y="1360" on="1"/>
        <pt x="70" y="1522" on="1"/>
        <pt x="786" y="1522" on="1"/>
        <pt x="786" y="1360" on="1"/>
        <pt x="623" y="1331" on="1"/>
        <pt x="623" y="870" on="1"/>
        <pt x="1106" y="870" on="1"/>
        <pt x="1106" y="1330" on="1"/>
        <pt x="956" y="1360" on="1"/>
        <pt x="956" y="1522" on="1"/>
        <pt x="1666" y="1522" on="1"/>
        <pt x="1666" y="1360" on="1"/>
        <pt x="1520" y="1331" on="1"/>
        <pt x="1520" y="175" on="1"/>
        <pt x="1666" y="152" on="1"/>
        <pt x="1666" y="0" on="1"/>
        <pt x="957" y="0" on="1"/>
        <pt x="957" y="152" on="1"/>
        <pt x="1106" y="176" on="1"/>
        <pt x="1106" y="674" on="1"/>
        <pt x="623" y="674" on="1"/>
        <pt x="623" y="175" on="1"/>
        <pt x="786" y="152" on="1"/>
        <pt x="786" y="0" on="1"/>
        <pt x="68" y="0" on="1"/>
        <pt x="68" y="152" on="1"/>
      </contour>
    </TTGlyph>
    <TTGlyph name="Hbar" xMin="55" yMin="0" xMax="1704" yMax="1522">
      <contour>
        <pt x="209" y="1135" on="1"/>
        <pt x="209" y="1330" on="1"/>
        <pt x="55" y="1360" on="1"/>
        <pt x="55" y="1522" on="1"/>
        <pt x="787" y="1522" on="1"/>
        <pt x="787" y="1360" on="1"/>
        <pt x="624" y="1330" on="1"/>
        <pt x="624" y="1135" on="1"/>
        <pt x="1104" y="1135" on="1"/>
        <pt x="1104" y="1330" on="1"/>
        <pt x="954" y="1360" on="1"/>
        <pt x="954" y="1522" on="1"/>
        <pt x="1675" y="1522" on="1"/>
        <pt x="1675" y="1360" on="1"/>
        <pt x="1520" y="1331" on="1"/>
        <pt x="1520" y="1135" on="1"/>
        <pt x="1704" y="1135" on="1"/>
        <pt x="1704" y="989" on="1"/>
        <pt x="1520" y="989" on="1"/>
        <pt x="1520" y="175" on="1"/>
        <pt x="1673" y="152" on="1"/>
        <pt x="1673" y="0" on="1"/>
        <pt x="955" y="0" on="1"/>
        <pt x="955" y="152" on="1"/>
        <pt x="1104" y="176" on="1"/>
        <pt x="1104" y="572" on="1"/>
        <pt x="624" y="572" on="1"/>
        <pt x="624" y="176" on="1"/>
        <pt x="787" y="152" on="1"/>
        <pt x="787" y="0" on="1"/>
        <pt x="57" y="0" on="1"/>
        <pt x="57" y="152" on="1"/>
        <pt x="209" y="175" on="1"/>
        <pt x="209" y="989" on="1"/>
        <pt x="56" y="989" on="1"/>
        <pt x="56" y="1135" on="1"/>
      </contour>
      <contour>
        <pt x="1104" y="989" on="1"/>
        <pt x="624" y="989" on="1"/>
        <pt x="624" y="767" on="1"/>
        <pt x="1104" y="767" on="1"/>
      </contour>
    </TTGlyph>
    <TTGlyph name="Hcircumflex" xMin="68" yMin="0" xMax="1666" yMax="2004">
      <component glyphName="H" x="0" y="0" flags="0x0"/>
      <component glyphName="circumflex.cap" x="345" y="0" flags="0x0"/>
    </TTGlyph>
    <TTGlyph name="I" xMin="71" yMin="0" xMax="805" yMax="1522">
      <contour>
        <pt x="227" y="176" on="1"/>
        <pt x="227" y="1330" on="1"/>
        <pt x="71" y="1360" on="1"/>
        <pt x="71" y="1522" on="1"/>
        <pt x="805" y="1522" on="1"/>
        <pt x="805" y="1360" on="1"/>
        <pt x="643" y="1330" on="1"/>
        <pt x="643" y="175" on="1"/>
        <pt x="805" y="150" on="1"/>
        <pt x="805" y="0" on="1"/>
        <pt x="74" y="0" on="1"/>
        <pt x="74" y="152" on="1"/>
      </contour>
    </TTGlyph>
    <TTGlyph name="I.uc" xMin="71" yMin="0" xMax="805" yMax="2001">
      <component glyphName="I" x="0" y="0" flags="0x0"/>
      <component glyphName="dotaccent.cap" x="139" y="0" flags="0x0"/>
    </TTGlyph>
    <TTGlyph name="IJ" xMin="71" yMin="-411" xMax="1670" yMax="1522">
      <component glyphName="I" x="0" y="0" flags="0x0"/>
      <component glyphName="J" x="870" y="0" flags="0x0"/>
    </TTGlyph>
    <TTGlyph name="IJ_acutecomb" xMin="71" yMin="-411" xMax="1690" yMax="2014">
      <component glyphName="I" x="0" y="0" flags="0x0"/>
      <component glyphName="acute.cap" x="-79" y="0" flags="0x0"/>
      <component glyphName="J" x="870" y="0" flags="0x0"/>
      <component glyphName="acute.cap" x="802" y="0" flags="0x0"/>
    </TTGlyph>
    <TTGlyph name="Iacute" xMin="71" yMin="0" xMax="809" yMax="2014">
      <component glyphName="I" x="0" y="0" flags="0x0"/>
      <component glyphName="acute.cap" x="-79" y="0" flags="0x0"/>
    </TTGlyph>
    <TTGlyph name="Ibreve" xMin="30" yMin="0" xMax="838" yMax="2009">
      <component glyphName="I" x="0" y="0" flags="0x0"/>
      <component glyphName="breve.cap" x="-79" y="0" flags="0x0"/>
    </TTGlyph>
    <TTGlyph name="Icircumflex" xMin="0" yMin="0" xMax="857" yMax="2004">
      <component glyphName="I" x="0" y="0" flags="0x0"/>
      <component glyphName="circumflex.cap" x="-92" y="0" flags="0x0"/>
    </TTGlyph>
    <TTGlyph name="Idieresis" xMin="-33" yMin="0" xMax="896" yMax="2001">
      <component glyphName="I" x="0" y="0" flags="0x0"/>
      <component glyphName="dieresis.cap" x="-79" y="0" flags="0x0"/>
    </TTGlyph>
    <TTGlyph name="Idotaccent" xMin="71" yMin="0" xMax="805" yMax="2001">
      <component glyphName="I" x="0" y="0" flags="0x0"/>
      <component glyphName="dotaccent.cap" x="139" y="0" flags="0x0"/>
    </TTGlyph>
    <TTGlyph name="Igrave" xMin="59" yMin="0" xMax="805" yMax="2014">
      <component glyphName="I" x="0" y="0" flags="0x0"/>
      <component glyphName="grave.cap" x="-82" y="0" flags="0x0"/>
    </TTGlyph>
    <TTGlyph name="Imacron" xMin="71" yMin="0" xMax="805" yMax="1918">
      <component glyphName="I" x="0" y="0" flags="0x0"/>
      <component glyphName="macron.cap" x="91" y="0" flags="0x0"/>
    </TTGlyph>
    <TTGlyph name="Iogonek" xMin="71" yMin="-515" xMax="805" yMax="1522">
      <contour>
        <pt x="227" y="176" on="1"/>
        <pt x="227" y="1330" on="1"/>
        <pt x="71" y="1360" on="1"/>
        <pt x="71" y="1522" on="1"/>
        <pt x="805" y="1522" on="1"/>
        <pt x="805" y="1360" on="1"/>
        <pt x="643" y="1330" on="1"/>
        <pt x="643" y="175" on="1"/>
        <pt x="805" y="150" on="1"/>
        <pt x="805" y="0" on="1"/>
        <pt x="644" y="0" on="1"/>
        <pt x="582" y="-22" on="0"/>
        <pt x="488" y="-94" on="0"/>
        <pt x="437" y="-173" on="0"/>
        <pt x="437" y="-205" on="1"/>
        <pt x="437" y="-251" on="0"/>
        <pt x="510" y="-307" on="0"/>
        <pt x="582" y="-307" on="1"/>
        <pt x="617" y="-307" on="0"/>
        <pt x="657" y="-299" on="0"/>
        <pt x="691" y="-285" on="1"/>
        <pt x="691" y="-448" on="1"/>
        <pt x="650" y="-478" on="0"/>
        <pt x="493" y="-515" on="0"/>
        <pt x="425" y="-515" on="1"/>
        <pt x="336" y="-515" on="0"/>
        <pt x="202" y="-462" on="0"/>
        <pt x="129" y="-367" on="0"/>
        <pt x="129" y="-305" on="1"/>
        <pt x="129" y="-214" on="0"/>
        <pt x="289" y="-51" on="0"/>
        <pt x="422" y="0" on="1"/>
        <pt x="74" y="0" on="1"/>
        <pt x="74" y="152" on="1"/>
      </contour>
    </TTGlyph>
    <TTGlyph name="Itilde" xMin="-59" yMin="0" xMax="920" yMax="2008">
      <component glyphName="I" x="0" y="0" flags="0x0"/>
      <component glyphName="tilde.cap" x="-79" y="0" flags="0x0"/>
    </TTGlyph>
    <TTGlyph name="J" xMin="-49" yMin="-411" xMax="800" yMax="1522">
      <contour>
        <pt x="25" y="-249" on="0"/>
        <pt x="159" y="-114" on="0"/>
        <pt x="195" y="-10" on="1"/>
        <pt x="237" y="111" on="0"/>
        <pt x="237" y="347" on="1"/>
        <pt x="237" y="1330" on="1"/>
        <pt x="73" y="1360" on="1"/>
        <pt x="73" y="1522" on="1"/>
        <pt x="800" y="1522" on="1"/>
        <pt x="800" y="1360" on="1"/>
        <pt x="649" y="1331" on="1"/>
        <pt x="649" y="563" on="1"/>
        <pt x="649" y="139" on="0"/>
        <pt x="616" y="25" on="1"/>
        <pt x="564" y="-143" on="0"/>
        <pt x="277" y="-374" on="0"/>
        <pt x="40" y="-411" on="1"/>
        <pt x="-49" y="-277" on="1"/>
      </contour>
    </TTGlyph>
    <TTGlyph name="Jcircumflex" xMin="-49" yMin="-411" xMax="868" yMax="2004">
      <component glyphName="J" x="0" y="0" flags="0x0"/>
      <component glyphName="circumflex.cap" x="-81" y="0" flags="0x0"/>
    </TTGlyph>
    <TTGlyph name="K" xMin="57" yMin="0" xMax="1599" yMax="1522">
      <contour>
        <pt x="1100" y="0" on="0"/>
        <pt x="1020" y="149" on="0"/>
        <pt x="949" y="306" on="1"/>
        <pt x="891" y="434" on="0"/>
        <pt x="805" y="608" on="0"/>
        <pt x="765" y="667" on="1"/>
        <pt x="623" y="497" on="1"/>
        <pt x="623" y="175" on="1"/>
        <pt x="785" y="151" on="1"/>
        <pt x="785" y="0" on="1"/>
        <pt x="57" y="0" on="1"/>
        <pt x="57" y="152" on="1"/>
        <pt x="209" y="176" on="1"/>
        <pt x="209" y="1330" on="1"/>
        <pt x="57" y="1360" on="1"/>
        <pt x="57" y="1522" on="1"/>
        <pt x="763" y="1522" on="1"/>
        <pt x="763" y="1360" on="1"/>
        <pt x="623" y="1329" on="1"/>
        <pt x="623" y="730" on="1"/>
        <pt x="1072" y="1330" on="1"/>
        <pt x="908" y="1360" on="1"/>
        <pt x="907" y="1522" on="1"/>
        <pt x="1529" y="1522" on="1"/>
        <pt x="1529" y="1361" on="1"/>
        <pt x="1339" y="1331" on="1"/>
        <pt x="1008" y="953" on="1"/>
        <pt x="1079" y="886" on="0"/>
        <pt x="1234" y="633" on="0"/>
        <pt x="1340" y="438" on="1"/>
        <pt x="1407" y="315" on="0"/>
        <pt x="1480" y="191" on="0"/>
        <pt x="1502" y="175" on="1"/>
        <pt x="1599" y="152" on="1"/>
        <pt x="1599" y="0" on="1"/>
        <pt x="1126" y="0" on="1"/>
      </contour>
    </TTGlyph>
    <TTGlyph name="Kcommaaccent" xMin="57" yMin="-560" xMax="1599" yMax="1522">
      <component glyphName="uni0326" x="1142" y="0" flags="0x0"/>
      <component glyphName="K" x="0" y="0" flags="0x0"/>
    </TTGlyph>
    <TTGlyph name="L" xMin="60" yMin="0" xMax="1304" yMax="1522">
      <contour>
        <pt x="209" y="175" on="1"/>
        <pt x="209" y="1330" on="1"/>
        <pt x="61" y="1360" on="1"/>
        <pt x="61" y="1522" on="1"/>
        <pt x="815" y="1522" on="1"/>
        <pt x="815" y="1360" on="1"/>
        <pt x="625" y="1330" on="1"/>
        <pt x="625" y="179" on="1"/>
        <pt x="939" y="201" on="1"/>
        <pt x="1079" y="636" on="1"/>
        <pt x="1304" y="608" on="1"/>
        <pt x="1251" y="0" on="1"/>
        <pt x="60" y="0" on="1"/>
        <pt x="60" y="152" on="1"/>
      </contour>
    </TTGlyph>
    <TTGlyph name="Lacute" xMin="60" yMin="0" xMax="1304" yMax="2014">
      <component glyphName="acute.cap" x="-85" y="0" flags="0x0"/>
      <component glyphName="L" x="0" y="0" flags="0x0"/>
    </TTGlyph>
    <TTGlyph name="Lcaron" xMin="60" yMin="0" xMax="1304" yMax="1700">
      <component glyphName="L" x="0" y="0" flags="0x0"/>
      <component glyphName="caronvertical" x="831" y="0" flags="0x0"/>
    </TTGlyph>
    <TTGlyph name="Lcommaaccent" xMin="60" yMin="-560" xMax="1304" yMax="1522">
      <component glyphName="uni0326" x="1045" y="0" flags="0x0"/>
      <component glyphName="L" x="0" y="0" flags="0x0"/>
    </TTGlyph>
    <TTGlyph name="Ldot" xMin="60" yMin="0" xMax="1344" yMax="1522">
      <component glyphName="L" x="0" y="0" flags="0x0"/>
      <component glyphName="period" x="786" y="746" flags="0x4"/>
    </TTGlyph>
    <TTGlyph name="Lslash" xMin="44" yMin="0" xMax="1304" yMax="1522">
      <contour>
        <pt x="209" y="740" on="1"/>
        <pt x="209" y="1330" on="1"/>
        <pt x="61" y="1360" on="1"/>
        <pt x="61" y="1522" on="1"/>
        <pt x="815" y="1522" on="1"/>
        <pt x="815" y="1360" on="1"/>
        <pt x="625" y="1330" on="1"/>
        <pt x="625" y="900" on="1"/>
        <pt x="945" y="1028" on="1"/>
        <pt x="945" y="857" on="1"/>
        <pt x="625" y="732" on="1"/>
        <pt x="625" y="179" on="1"/>
        <pt x="939" y="201" on="1"/>
        <pt x="1079" y="636" on="1"/>
        <pt x="1304" y="608" on="1"/>
        <pt x="1251" y="0" on="1"/>
        <pt x="60" y="0" on="1"/>
        <pt x="60" y="152" on="1"/>
        <pt x="209" y="175" on="1"/>
        <pt x="209" y="575" on="1"/>
        <pt x="44" y="513" on="1"/>
        <pt x="44" y="675" on="1"/>
      </contour>
    </TTGlyph>
    <TTGlyph name="M" xMin="-3" yMin="0" xMax="2181" yMax="1522">
      <contour>
        <pt x="165" y="175" on="1"/>
        <pt x="299" y="1330" on="1"/>
        <pt x="104" y="1360" on="1"/>
        <pt x="104" y="1522" on="1"/>
        <pt x="855" y="1522" on="1"/>
        <pt x="1066" y="700" on="1"/>
        <pt x="1101" y="491" on="1"/>
        <pt x="1132" y="700" on="1"/>
        <pt x="1300" y="1522" on="1"/>
        <pt x="2064" y="1522" on="1"/>
        <pt x="2064" y="1360" on="1"/>
        <pt x="1845" y="1330" on="1"/>
        <pt x="2020" y="176" on="1"/>
        <pt x="2181" y="152" on="1"/>
        <pt x="2181" y="0" on="1"/>
        <pt x="1424" y="0" on="1"/>
        <pt x="1424" y="152" on="1"/>
        <pt x="1591" y="176" on="1"/>
        <pt x="1503" y="1040" on="1"/>
        <pt x="1464" y="1385" on="1"/>
        <pt x="1407" y="1079" on="1"/>
        <pt x="1183" y="53" on="1"/>
        <pt x="844" y="53" on="1"/>
        <pt x="555" y="1043" on="1"/>
        <pt x="481" y="1387" on="1"/>
        <pt x="461" y="1041" on="1"/>
        <pt x="405" y="176" on="1"/>
        <pt x="616" y="152" on="1"/>
        <pt x="616" y="0" on="1"/>
        <pt x="-3" y="0" on="1"/>
        <pt x="-3" y="152" on="1"/>
      </contour>
    </TTGlyph>
    <TTGlyph name="N" xMin="55" yMin="0" xMax="1631" yMax="1522">
      <contour>
        <pt x="215" y="175" on="1"/>
        <pt x="215" y="1331" on="1"/>
        <pt x="55" y="1360" on="1"/>
        <pt x="55" y="1522" on="1"/>
        <pt x="634" y="1522" on="1"/>
        <pt x="1144" y="712" on="1"/>
        <pt x="1260" y="452" on="1"/>
        <pt x="1260" y="1331" on="1"/>
        <pt x="1087" y="1360" on="1"/>
        <pt x="1087" y="1522" on="1"/>
        <pt x="1631" y="1522" on="1"/>
        <pt x="1631" y="1360" on="1"/>
        <pt x="1480" y="1331" on="1"/>
        <pt x="1480" y="0" on="1"/>
        <pt x="1111" y="0" on="1"/>
        <pt x="558" y="893" on="1"/>
        <pt x="435" y="1163" on="1"/>
        <pt x="435" y="176" on="1"/>
        <pt x="662" y="152" on="1"/>
        <pt x="662" y="0" on="1"/>
        <pt x="55" y="0" on="1"/>
        <pt x="55" y="152" on="1"/>
      </contour>
    </TTGlyph>
    <TTGlyph name="Nacute" xMin="55" yMin="0" xMax="1631" yMax="2014">
      <component glyphName="acute.cap" x="335" y="0" flags="0x0"/>
      <component glyphName="N" x="0" y="0" flags="0x0"/>
    </TTGlyph>
    <TTGlyph name="Ncaron" xMin="55" yMin="0" xMax="1631" yMax="2014">
      <component glyphName="caron.cap" x="522" y="0" flags="0x0"/>
      <component glyphName="N" x="0" y="0" flags="0x0"/>
    </TTGlyph>
    <TTGlyph name="Ncommaaccent" xMin="55" yMin="-560" xMax="1631" yMax="1522">
      <component glyphName="uni0326" x="1207" y="0" flags="0x0"/>
      <component glyphName="N" x="0" y="0" flags="0x0"/>
    </TTGlyph>
    <TTGlyph name="Ntilde" xMin="55" yMin="0" xMax="1631" yMax="2008">
      <component glyphName="tilde.cap" x="341" y="0" flags="0x0"/>
      <component glyphName="N" x="0" y="0" flags="0x0"/>
    </TTGlyph>
    <TTGlyph name="O" xMin="48" yMin="-24" xMax="1458" yMax="1543">
      <contour>
        <pt x="48" y="998" on="0"/>
        <pt x="219" y="1351" on="0"/>
        <pt x="540" y="1543" on="0"/>
        <pt x="759" y="1543" on="1"/>
        <pt x="1125" y="1543" on="0"/>
        <pt x="1458" y="1154" on="0"/>
        <pt x="1458" y="790" on="1"/>
        <pt x="1458" y="552" on="0"/>
        <pt x="1285" y="184" on="0"/>
        <pt x="963" y="-22" on="0"/>
        <pt x="745" y="-23" on="1"/>
        <pt x="382" y="-24" on="0"/>
        <pt x="48" y="389" on="0"/>
        <pt x="48" y="761" on="1"/>
      </contour>
      <contour>
        <pt x="503" y="425" on="0"/>
        <pt x="630" y="128" on="0"/>
        <pt x="751" y="128" on="1"/>
        <pt x="872" y="128" on="0"/>
        <pt x="1002" y="468" on="0"/>
        <pt x="1002" y="789" on="1"/>
        <pt x="1002" y="1016" on="0"/>
        <pt x="943" y="1282" on="0"/>
        <pt x="835" y="1392" on="0"/>
        <pt x="754" y="1392" on="1"/>
        <pt x="631" y="1392" on="0"/>
        <pt x="503" y="1080" on="0"/>
        <pt x="503" y="763" on="1"/>
      </contour>
    </TTGlyph>
    <TTGlyph name="OE" xMin="48" yMin="-16" xMax="2131" yMax="1544">
      <contour>
        <pt x="962" y="37" on="1"/>
        <pt x="869" y="-16" on="0"/>
        <pt x="746" y="-16" on="1"/>
        <pt x="506" y="-16" on="0"/>
        <pt x="195" y="178" on="0"/>
        <pt x="48" y="525" on="0"/>
        <pt x="48" y="761" on="1"/>
        <pt x="48" y="1000" on="0"/>
        <pt x="215" y="1352" on="0"/>
        <pt x="538" y="1544" on="0"/>
        <pt x="766" y="1544" on="1"/>
        <pt x="876" y="1544" on="0"/>
        <pt x="962" y="1511" on="1"/>
        <pt x="962" y="1522" on="1"/>
        <pt x="1979" y="1522" on="1"/>
        <pt x="2007" y="1138" on="1"/>
        <pt x="1821" y="1138" on="1"/>
        <pt x="1747" y="1348" on="1"/>
        <pt x="1388" y="1374" on="1"/>
        <pt x="1388" y="863" on="1"/>
        <pt x="1595" y="870" on="1"/>
        <pt x="1632" y="1034" on="1"/>
        <pt x="1799" y="1034" on="1"/>
        <pt x="1799" y="500" on="1"/>
        <pt x="1632" y="500" on="1"/>
        <pt x="1596" y="677" on="1"/>
        <pt x="1388" y="684" on="1"/>
        <pt x="1388" y="156" on="1"/>
        <pt x="1790" y="187" on="1"/>
        <pt x="1941" y="447" on="1"/>
        <pt x="2131" y="392" on="1"/>
        <pt x="2066" y="0" on="1"/>
        <pt x="962" y="0" on="1"/>
      </contour>
      <contour>
        <pt x="962" y="1176" on="1"/>
        <pt x="934" y="1299" on="0"/>
        <pt x="832" y="1395" on="0"/>
        <pt x="749" y="1395" on="1"/>
        <pt x="502" y="1395" on="0"/>
        <pt x="502" y="763" on="1"/>
        <pt x="502" y="131" on="0"/>
        <pt x="755" y="129" on="1"/>
        <pt x="830" y="129" on="0"/>
        <pt x="933" y="273" on="0"/>
        <pt x="962" y="404" on="1"/>
      </contour>
    </TTGlyph>
    <TTGlyph name="Oacute" xMin="53" yMin="-24" xMax="1463" yMax="2014">
      <component glyphName="acute.cap" x="249" y="0" flags="0x0"/>
      <component glyphName="O" x="5" y="0" flags="0x0"/>
    </TTGlyph>
    <TTGlyph name="Obreve" xMin="53" yMin="-24" xMax="1463" yMax="2009">
      <component glyphName="breve.cap" x="250" y="0" flags="0x0"/>
      <component glyphName="O" x="5" y="0" flags="0x0"/>
    </TTGlyph>
    <TTGlyph name="Ocircumflex" xMin="48" yMin="-24" xMax="1458" yMax="2004">
      <component glyphName="O" x="0" y="0" flags="0x0"/>
      <component glyphName="circumflex.cap" x="232" y="0" flags="0x0"/>
    </TTGlyph>
    <TTGlyph name="Odieresis" xMin="53" yMin="-24" xMax="1463" yMax="2001">
      <component glyphName="dieresis.cap" x="250" y="0" flags="0x0"/>
      <component glyphName="O" x="5" y="0" flags="0x0"/>
    </TTGlyph>
    <TTGlyph name="Ograve" xMin="53" yMin="-24" xMax="1463" yMax="2014">
      <component glyphName="grave.cap" x="254" y="0" flags="0x0"/>
      <component glyphName="O" x="5" y="0" flags="0x0"/>
    </TTGlyph>
    <TTGlyph name="Ohungarumlaut" xMin="48" yMin="-24" xMax="1458" yMax="2014">
      <component glyphName="O" x="0" y="0" flags="0x0"/>
      <component glyphName="hungarumlaut.cap" x="245" y="0" flags="0x0"/>
    </TTGlyph>
    <TTGlyph name="Omacron" xMin="53" yMin="-24" xMax="1463" yMax="1918">
      <component glyphName="macron.cap" x="420" y="0" flags="0x0"/>
      <component glyphName="O" x="5" y="0" flags="0x0"/>
    </TTGlyph>
    <TTGlyph name="Oslash" xMin="48" yMin="-249" xMax="1458" yMax="1762">
      <contour>
        <pt x="366" y="60" on="1"/>
        <pt x="48" y="233" on="0"/>
        <pt x="48" y="761" on="1"/>
        <pt x="48" y="998" on="0"/>
        <pt x="219" y="1351" on="0"/>
        <pt x="540" y="1543" on="0"/>
        <pt x="759" y="1543" on="1"/>
        <pt x="871" y="1543" on="0"/>
        <pt x="966" y="1523" on="1"/>
        <pt x="1058" y="1762" on="1"/>
        <pt x="1229" y="1712" on="1"/>
        <pt x="1135" y="1466" on="1"/>
        <pt x="1302" y="1382" on="0"/>
        <pt x="1458" y="1040" on="0"/>
        <pt x="1458" y="790" on="1"/>
        <pt x="1458" y="552" on="0"/>
        <pt x="1285" y="184" on="0"/>
        <pt x="963" y="-22" on="0"/>
        <pt x="745" y="-23" on="1"/>
        <pt x="641" y="-23" on="0"/>
        <pt x="544" y="-4" on="1"/>
        <pt x="441" y="-249" on="1"/>
        <pt x="257" y="-200" on="1"/>
      </contour>
      <contour>
        <pt x="503" y="521" on="0"/>
        <pt x="537" y="373" on="1"/>
        <pt x="903" y="1319" on="1"/>
        <pt x="848" y="1392" on="0"/>
        <pt x="754" y="1392" on="1"/>
        <pt x="631" y="1392" on="0"/>
        <pt x="503" y="1080" on="0"/>
        <pt x="503" y="763" on="1"/>
      </contour>
      <contour>
        <pt x="596" y="218" on="1"/>
        <pt x="655" y="128" on="0"/>
        <pt x="751" y="128" on="1"/>
        <pt x="872" y="128" on="0"/>
        <pt x="1002" y="468" on="0"/>
        <pt x="1002" y="789" on="1"/>
        <pt x="1002" y="1022" on="0"/>
        <pt x="969" y="1165" on="1"/>
      </contour>
    </TTGlyph>
    <TTGlyph name="Oslashacute" xMin="48" yMin="-249" xMax="1458" yMax="2014">
      <component glyphName="Oslash" x="0" y="0" flags="0x0"/>
      <component glyphName="acute.cap" x="223" y="0" flags="0x0"/>
    </TTGlyph>
    <TTGlyph name="Otilde" xMin="53" yMin="-24" xMax="1463" yMax="2008">
      <component glyphName="tilde.cap" x="250" y="0" flags="0x0"/>
      <component glyphName="O" x="5" y="0" flags="0x0"/>
    </TTGlyph>
    <TTGlyph name="P" xMin="60" yMin="0" xMax="1364" yMax="1532">
      <contour>
        <pt x="209" y="175" on="1"/>
        <pt x="209" y="1330" on="1"/>
        <pt x="64" y="1360" on="1"/>
        <pt x="64" y="1522" on="1"/>
        <pt x="425" y="1522" on="1"/>
        <pt x="452" y="1522" on="0"/>
        <pt x="538" y="1526" on="1"/>
        <pt x="654" y="1532" on="0"/>
        <pt x="744" y="1532" on="1"/>
        <pt x="981" y="1532" on="0"/>
        <pt x="1252" y="1428" on="0"/>
        <pt x="1364" y="1226" on="0"/>
        <pt x="1364" y="1068" on="1"/>
        <pt x="1364" y="798" on="0"/>
        <pt x="1050" y="504" on="0"/>
        <pt x="740" y="504" on="1"/>
        <pt x="703" y="504" on="0"/>
        <pt x="637" y="508" on="0"/>
        <pt x="624" y="510" on="1"/>
        <pt x="624" y="175" on="1"/>
        <pt x="889" y="152" on="1"/>
        <pt x="889" y="0" on="1"/>
        <pt x="60" y="0" on="1"/>
        <pt x="60" y="152" on="1"/>
      </contour>
      <contour>
        <pt x="831" y="655" on="0"/>
        <pt x="944" y="839" on="0"/>
        <pt x="944" y="1056" on="1"/>
        <pt x="944" y="1383" on="0"/>
        <pt x="724" y="1383" on="1"/>
        <pt x="688" y="1383" on="0"/>
        <pt x="651" y="1378" on="0"/>
        <pt x="629" y="1372" on="0"/>
        <pt x="623" y="1371" on="1"/>
        <pt x="623" y="666" on="1"/>
        <pt x="658" y="655" on="0"/>
        <pt x="728" y="655" on="1"/>
      </contour>
    </TTGlyph>
    <TTGlyph name="Q" xMin="48" yMin="-373" xMax="1912" yMax="1543">
      <contour>
        <pt x="48" y="998" on="0"/>
        <pt x="219" y="1351" on="0"/>
        <pt x="540" y="1543" on="0"/>
        <pt x="759" y="1543" on="1"/>
        <pt x="1125" y="1543" on="0"/>
        <pt x="1458" y="1154" on="0"/>
        <pt x="1458" y="790" on="1"/>
        <pt x="1458" y="547" on="0"/>
        <pt x="1279" y="174" on="0"/>
        <pt x="1114" y="74" on="1"/>
        <pt x="1171" y="61" on="0"/>
        <pt x="1287" y="15" on="0"/>
        <pt x="1386" y="-29" on="1"/>
        <pt x="1513" y="-86" on="0"/>
        <pt x="1676" y="-143" on="0"/>
        <pt x="1748" y="-143" on="1"/>
        <pt x="1750" y="-143" on="1"/>
        <pt x="1842" y="-143" on="0"/>
        <pt x="1879" y="-129" on="1"/>
        <pt x="1912" y="-229" on="1"/>
        <pt x="1888" y="-264" on="0"/>
        <pt x="1835" y="-321" on="0"/>
        <pt x="1719" y="-373" on="0"/>
        <pt x="1631" y="-373" on="1"/>
        <pt x="1620" y="-373" on="1"/>
        <pt x="1530" y="-373" on="0"/>
        <pt x="1363" y="-313" on="0"/>
        <pt x="1226" y="-227" on="0"/>
        <pt x="1129" y="-156" on="1"/>
        <pt x="1049" y="-98" on="0"/>
        <pt x="946" y="-31" on="0"/>
        <pt x="893" y="-8" on="1"/>
        <pt x="811" y="-23" on="0"/>
        <pt x="740" y="-23" on="1"/>
        <pt x="379" y="-23" on="0"/>
        <pt x="48" y="390" on="0"/>
        <pt x="48" y="761" on="1"/>
      </contour>
      <contour>
        <pt x="503" y="425" on="0"/>
        <pt x="630" y="128" on="0"/>
        <pt x="751" y="128" on="1"/>
        <pt x="872" y="128" on="0"/>
        <pt x="1002" y="468" on="0"/>
        <pt x="1002" y="789" on="1"/>
        <pt x="1002" y="1016" on="0"/>
        <pt x="943" y="1282" on="0"/>
        <pt x="835" y="1392" on="0"/>
        <pt x="754" y="1392" on="1"/>
        <pt x="631" y="1392" on="0"/>
        <pt x="503" y="1080" on="0"/>
        <pt x="503" y="763" on="1"/>
      </contour>
    </TTGlyph>
    <TTGlyph name="R" xMin="60" yMin="0" xMax="1543" yMax="1533">
      <contour>
        <pt x="209" y="175" on="1"/>
        <pt x="209" y="1330" on="1"/>
        <pt x="64" y="1360" on="1"/>
        <pt x="64" y="1522" on="1"/>
        <pt x="404" y="1522" on="1"/>
        <pt x="477" y="1522" on="0"/>
        <pt x="560" y="1527" on="1"/>
        <pt x="676" y="1533" on="0"/>
        <pt x="762" y="1533" on="1"/>
        <pt x="988" y="1533" on="0"/>
        <pt x="1255" y="1451" on="0"/>
        <pt x="1375" y="1274" on="0"/>
        <pt x="1375" y="1125" on="1"/>
        <pt x="1375" y="1040" on="0"/>
        <pt x="1315" y="871" on="0"/>
        <pt x="1187" y="734" on="0"/>
        <pt x="1089" y="703" on="1"/>
        <pt x="1165" y="679" on="0"/>
        <pt x="1278" y="562" on="0"/>
        <pt x="1349" y="428" on="0"/>
        <pt x="1391" y="331" on="1"/>
        <pt x="1425" y="252" on="0"/>
        <pt x="1468" y="176" on="0"/>
        <pt x="1493" y="169" on="1"/>
        <pt x="1543" y="152" on="1"/>
        <pt x="1543" y="0" on="1"/>
        <pt x="1100" y="0" on="1"/>
        <pt x="1069" y="0" on="0"/>
        <pt x="1012" y="128" on="0"/>
        <pt x="967" y="264" on="1"/>
        <pt x="931" y="374" on="0"/>
        <pt x="878" y="515" on="0"/>
        <pt x="810" y="624" on="0"/>
        <pt x="771" y="636" on="1"/>
        <pt x="624" y="636" on="1"/>
        <pt x="624" y="174" on="1"/>
        <pt x="797" y="152" on="1"/>
        <pt x="797" y="0" on="1"/>
        <pt x="60" y="0" on="1"/>
        <pt x="60" y="152" on="1"/>
      </contour>
      <contour>
        <pt x="836" y="782" on="0"/>
        <pt x="938" y="944" on="0"/>
        <pt x="938" y="1112" on="1"/>
        <pt x="938" y="1258" on="0"/>
        <pt x="838" y="1385" on="0"/>
        <pt x="727" y="1385" on="1"/>
        <pt x="649" y="1385" on="0"/>
        <pt x="624" y="1376" on="1"/>
        <pt x="624" y="789" on="1"/>
        <pt x="634" y="784" on="0"/>
        <pt x="713" y="782" on="0"/>
        <pt x="740" y="782" on="1"/>
      </contour>
    </TTGlyph>
    <TTGlyph name="Racute" xMin="60" yMin="0" xMax="1543" yMax="2014">
      <component glyphName="R" x="0" y="0" flags="0x0"/>
      <component glyphName="acute.cap" x="227" y="0" flags="0x0"/>
    </TTGlyph>
    <TTGlyph name="Rcaron" xMin="60" yMin="0" xMax="1543" yMax="2014">
      <component glyphName="caron.cap" x="405" y="0" flags="0x0"/>
      <component glyphName="R" x="0" y="0" flags="0x0"/>
    </TTGlyph>
    <TTGlyph name="Rcommaaccent" xMin="60" yMin="-560" xMax="1543" yMax="1533">
      <component glyphName="uni0326" x="1143" y="0" flags="0x0"/>
      <component glyphName="R" x="0" y="0" flags="0x0"/>
    </TTGlyph>
    <TTGlyph name="S" xMin="103" yMin="-23" xMax="1229" yMax="1543">
      <contour>
        <pt x="120" y="454" on="1"/>
        <pt x="342" y="454" on="1"/>
        <pt x="399" y="197" on="1"/>
        <pt x="417" y="172" on="0"/>
        <pt x="522" y="136" on="0"/>
        <pt x="601" y="136" on="1"/>
        <pt x="711" y="136" on="0"/>
        <pt x="817" y="230" on="0"/>
        <pt x="817" y="315" on="1"/>
        <pt x="817" y="376" on="0"/>
        <pt x="741" y="470" on="0"/>
        <pt x="603" y="552" on="0"/>
        <pt x="481" y="610" on="1"/>
        <pt x="106" y="786" on="0"/>
        <pt x="106" y="1112" on="1"/>
        <pt x="106" y="1227" on="0"/>
        <pt x="222" y="1422" on="0"/>
        <pt x="474" y="1543" on="0"/>
        <pt x="668" y="1543" on="1"/>
        <pt x="784" y="1543" on="0"/>
        <pt x="953" y="1513" on="0"/>
        <pt x="1047" y="1488" on="1"/>
        <pt x="1104" y="1471" on="0"/>
        <pt x="1125" y="1470" on="1"/>
        <pt x="1112" y="1095" on="1"/>
        <pt x="895" y="1095" on="1"/>
        <pt x="846" y="1346" on="1"/>
        <pt x="835" y="1363" on="0"/>
        <pt x="750" y="1390" on="0"/>
        <pt x="692" y="1390" on="1"/>
        <pt x="591" y="1390" on="0"/>
        <pt x="498" y="1291" on="0"/>
        <pt x="498" y="1220" on="1"/>
        <pt x="498" y="1154" on="0"/>
        <pt x="587" y="1050" on="0"/>
        <pt x="719" y="970" on="0"/>
        <pt x="836" y="912" on="1"/>
        <pt x="841" y="910" on="0"/>
        <pt x="865" y="898" on="1"/>
        <pt x="962" y="850" on="0"/>
        <pt x="1118" y="739" on="0"/>
        <pt x="1229" y="565" on="0"/>
        <pt x="1229" y="449" on="1"/>
        <pt x="1229" y="333" on="0"/>
        <pt x="1127" y="121" on="0"/>
        <pt x="859" y="-23" on="0"/>
        <pt x="627" y="-23" on="1"/>
        <pt x="509" y="-23" on="0"/>
        <pt x="308" y="14" on="0"/>
        <pt x="200" y="44" on="1"/>
        <pt x="131" y="63" on="0"/>
        <pt x="103" y="66" on="1"/>
      </contour>
    </TTGlyph>
    <TTGlyph name="Sacute" xMin="103" yMin="-23" xMax="1229" yMax="2014">
      <component glyphName="S" x="0" y="0" flags="0x0"/>
      <component glyphName="acute.cap" x="160" y="0" flags="0x0"/>
    </TTGlyph>
    <TTGlyph name="Scaron" xMin="103" yMin="-23" xMax="1229" yMax="2014">
      <component glyphName="S" x="0" y="0" flags="0x0"/>
      <component glyphName="caron.cap" x="339" y="0" flags="0x0"/>
    </TTGlyph>
    <TTGlyph name="Scedilla" xMin="103" yMin="-540" xMax="1229" yMax="1543">
      <contour>
        <pt x="1229" y="346" on="0"/>
        <pt x="1149" y="154" on="0"/>
        <pt x="943" y="6" on="0"/>
        <pt x="766" y="-15" on="1"/>
        <pt x="816" y="-69" on="0"/>
        <pt x="892" y="-216" on="0"/>
        <pt x="888" y="-297" on="1"/>
        <pt x="883" y="-389" on="0"/>
        <pt x="806" y="-496" on="0"/>
        <pt x="667" y="-540" on="0"/>
        <pt x="561" y="-540" on="1"/>
        <pt x="560" y="-540" on="1"/>
        <pt x="526" y="-540" on="0"/>
        <pt x="443" y="-522" on="0"/>
        <pt x="416" y="-510" on="1"/>
        <pt x="417" y="-296" on="1"/>
        <pt x="436" y="-302" on="0"/>
        <pt x="486" y="-309" on="0"/>
        <pt x="499" y="-309" on="1"/>
        <pt x="500" y="-309" on="1"/>
        <pt x="550" y="-309" on="0"/>
        <pt x="606" y="-291" on="0"/>
        <pt x="636" y="-231" on="0"/>
        <pt x="636" y="-170" on="1"/>
        <pt x="636" y="-135" on="0"/>
        <pt x="610" y="-57" on="0"/>
        <pt x="591" y="-22" on="1"/>
        <pt x="483" y="-19" on="0"/>
        <pt x="298" y="17" on="0"/>
        <pt x="200" y="44" on="1"/>
        <pt x="131" y="63" on="0"/>
        <pt x="103" y="66" on="1"/>
        <pt x="120" y="454" on="1"/>
        <pt x="342" y="454" on="1"/>
        <pt x="399" y="197" on="1"/>
        <pt x="417" y="172" on="0"/>
        <pt x="522" y="136" on="0"/>
        <pt x="601" y="136" on="1"/>
        <pt x="711" y="136" on="0"/>
        <pt x="817" y="230" on="0"/>
        <pt x="817" y="315" on="1"/>
        <pt x="817" y="376" on="0"/>
        <pt x="741" y="470" on="0"/>
        <pt x="603" y="552" on="0"/>
        <pt x="481" y="610" on="1"/>
        <pt x="106" y="786" on="0"/>
        <pt x="106" y="1112" on="1"/>
        <pt x="106" y="1227" on="0"/>
        <pt x="222" y="1422" on="0"/>
        <pt x="474" y="1543" on="0"/>
        <pt x="668" y="1543" on="1"/>
        <pt x="784" y="1543" on="0"/>
        <pt x="953" y="1513" on="0"/>
        <pt x="1047" y="1488" on="1"/>
        <pt x="1104" y="1471" on="0"/>
        <pt x="1125" y="1470" on="1"/>
        <pt x="1112" y="1095" on="1"/>
        <pt x="895" y="1095" on="1"/>
        <pt x="846" y="1346" on="1"/>
        <pt x="835" y="1363" on="0"/>
        <pt x="750" y="1390" on="0"/>
        <pt x="692" y="1390" on="1"/>
        <pt x="591" y="1390" on="0"/>
        <pt x="498" y="1291" on="0"/>
        <pt x="498" y="1220" on="1"/>
        <pt x="498" y="1154" on="0"/>
        <pt x="587" y="1050" on="0"/>
        <pt x="719" y="970" on="0"/>
        <pt x="836" y="912" on="1"/>
        <pt x="841" y="910" on="0"/>
        <pt x="865" y="898" on="1"/>
        <pt x="962" y="850" on="0"/>
        <pt x="1118" y="739" on="0"/>
        <pt x="1229" y="565" on="0"/>
        <pt x="1229" y="449" on="1"/>
      </contour>
    </TTGlyph>
    <TTGlyph name="Scircumflex" xMin="103" yMin="-23" xMax="1229" yMax="2004">
      <component glyphName="S" x="0" y="0" flags="0x0"/>
      <component glyphName="circumflex.cap" x="147" y="0" flags="0x0"/>
    </TTGlyph>
    <TTGlyph name="Scommaaccent" xMin="103" yMin="-560" xMax="1229" yMax="1543">
      <component glyphName="uni0326" x="990" y="0" flags="0x0"/>
      <component glyphName="S" x="0" y="0" flags="0x0"/>
    </TTGlyph>
    <TTGlyph name="T" xMin="31" yMin="0" xMax="1476" yMax="1522">
      <contour>
        <pt x="554" y="176" on="1"/>
        <pt x="554" y="1350" on="1"/>
        <pt x="347" y="1339" on="1"/>
        <pt x="252" y="868" on="1"/>
        <pt x="31" y="868" on="1"/>
        <pt x="63" y="1522" on="1"/>
        <pt x="1449" y="1522" on="1"/>
        <pt x="1476" y="868" on="1"/>
        <pt x="1268" y="868" on="1"/>
        <pt x="1167" y="1339" on="1"/>
        <pt x="970" y="1350" on="1"/>
        <pt x="970" y="176" on="1"/>
        <pt x="1253" y="152" on="1"/>
        <pt x="1253" y="0" on="1"/>
        <pt x="297" y="0" on="1"/>
        <pt x="297" y="152" on="1"/>
      </contour>
    </TTGlyph>
    <TTGlyph name="Tbar" xMin="37" yMin="0" xMax="1482" yMax="1522">
      <contour>
        <pt x="560" y="720" on="1"/>
        <pt x="560" y="1350" on="1"/>
        <pt x="353" y="1339" on="1"/>
        <pt x="258" y="868" on="1"/>
        <pt x="37" y="868" on="1"/>
        <pt x="69" y="1522" on="1"/>
        <pt x="1455" y="1522" on="1"/>
        <pt x="1482" y="868" on="1"/>
        <pt x="1274" y="868" on="1"/>
        <pt x="1173" y="1339" on="1"/>
        <pt x="976" y="1350" on="1"/>
        <pt x="976" y="720" on="1"/>
        <pt x="1177" y="720" on="1"/>
        <pt x="1177" y="549" on="1"/>
        <pt x="976" y="549" on="1"/>
        <pt x="976" y="176" on="1"/>
        <pt x="1259" y="152" on="1"/>
        <pt x="1259" y="0" on="1"/>
        <pt x="303" y="0" on="1"/>
        <pt x="303" y="152" on="1"/>
        <pt x="560" y="176" on="1"/>
        <pt x="560" y="549" on="1"/>
        <pt x="352" y="549" on="1"/>
        <pt x="352" y="720" on="1"/>
      </contour>
    </TTGlyph>
    <TTGlyph name="Tcaron" xMin="31" yMin="0" xMax="1476" yMax="2014">
      <component glyphName="caron.cap" x="439" y="0" flags="0x0"/>
      <component glyphName="T" x="0" y="0" flags="0x0"/>
    </TTGlyph>
    <TTGlyph name="Thorn" xMin="52" yMin="0" xMax="1361" yMax="1522">
      <contour>
        <pt x="208" y="174" on="1"/>
        <pt x="208" y="1330" on="1"/>
        <pt x="52" y="1362" on="1"/>
        <pt x="52" y="1522" on="1"/>
        <pt x="789" y="1522" on="1"/>
        <pt x="791" y="1361" on="1"/>
        <pt x="625" y="1330" on="1"/>
        <pt x="625" y="1182" on="1"/>
        <pt x="713" y="1191" on="1"/>
        <pt x="774" y="1197" on="0"/>
        <pt x="855" y="1203" on="0"/>
        <pt x="911" y="1203" on="1"/>
        <pt x="1138" y="1203" on="0"/>
        <pt x="1361" y="1001" on="0"/>
        <pt x="1361" y="792" on="1"/>
        <pt x="1361" y="553" on="0"/>
        <pt x="1098" y="315" on="0"/>
        <pt x="856" y="315" on="1"/>
        <pt x="798" y="315" on="0"/>
        <pt x="668" y="325" on="0"/>
        <pt x="625" y="330" on="1"/>
        <pt x="625" y="175" on="1"/>
        <pt x="830" y="150" on="1"/>
        <pt x="830" y="0" on="1"/>
        <pt x="54" y="0" on="1"/>
        <pt x="54" y="150" on="1"/>
      </contour>
      <contour>
        <pt x="927" y="890" on="0"/>
        <pt x="837" y="1043" on="0"/>
        <pt x="740" y="1043" on="1"/>
        <pt x="710" y="1043" on="0"/>
        <pt x="644" y="1035" on="0"/>
        <pt x="625" y="1029" on="1"/>
        <pt x="625" y="475" on="1"/>
        <pt x="657" y="469" on="0"/>
        <pt x="718" y="466" on="0"/>
        <pt x="766" y="466" on="1"/>
        <pt x="813" y="466" on="0"/>
        <pt x="886" y="545" on="0"/>
        <pt x="927" y="687" on="0"/>
        <pt x="927" y="778" on="1"/>
      </contour>
    </TTGlyph>
    <TTGlyph name="U" xMin="24" yMin="-16" xMax="1521" yMax="1522">
      <contour>
        <pt x="143" y="1330" on="1"/>
        <pt x="24" y="1360" on="1"/>
        <pt x="24" y="1522" on="1"/>
        <pt x="743" y="1522" on="1"/>
        <pt x="743" y="1360" on="1"/>
        <pt x="573" y="1326" on="1"/>
        <pt x="573" y="575" on="1"/>
        <pt x="573" y="141" on="0"/>
        <pt x="862" y="141" on="1"/>
        <pt x="1009" y="141" on="0"/>
        <pt x="1140" y="376" on="0"/>
        <pt x="1140" y="575" on="1"/>
        <pt x="1140" y="1330" on="1"/>
        <pt x="961" y="1360" on="1"/>
        <pt x="961" y="1522" on="1"/>
        <pt x="1521" y="1522" on="1"/>
        <pt x="1521" y="1360" on="1"/>
        <pt x="1394" y="1330" on="1"/>
        <pt x="1394" y="598" on="1"/>
        <pt x="1394" y="280" on="0"/>
        <pt x="1074" y="-16" on="0"/>
        <pt x="798" y="-16" on="1"/>
        <pt x="471" y="-16" on="0"/>
        <pt x="143" y="284" on="0"/>
        <pt x="143" y="609" on="1"/>
      </contour>
    </TTGlyph>
    <TTGlyph name="Uacute" xMin="24" yMin="-16" xMax="1521" yMax="2014">
      <component glyphName="acute.cap" x="296" y="0" flags="0x0"/>
      <component glyphName="U" x="0" y="0" flags="0x0"/>
    </TTGlyph>
    <TTGlyph name="Ubreve" xMin="24" yMin="-16" xMax="1521" yMax="2009">
      <component glyphName="breve.cap" x="296" y="0" flags="0x0"/>
      <component glyphName="U" x="0" y="0" flags="0x0"/>
    </TTGlyph>
    <TTGlyph name="Ucircumflex" xMin="24" yMin="-16" xMax="1521" yMax="2004">
      <component glyphName="U" x="0" y="0" flags="0x0"/>
      <component glyphName="circumflex.cap" x="284" y="0" flags="0x0"/>
    </TTGlyph>
    <TTGlyph name="Udieresis" xMin="24" yMin="-16" xMax="1521" yMax="2001">
      <component glyphName="dieresis.cap" x="297" y="0" flags="0x0"/>
      <component glyphName="U" x="0" y="0" flags="0x0"/>
    </TTGlyph>
    <TTGlyph name="Ugrave" xMin="24" yMin="-16" xMax="1521" yMax="2014">
      <component glyphName="grave.cap" x="300" y="0" flags="0x0"/>
      <component glyphName="U" x="0" y="0" flags="0x0"/>
    </TTGlyph>
    <TTGlyph name="Uhungarumlaut" xMin="24" yMin="-16" xMax="1521" yMax="2014">
      <component glyphName="U" x="0" y="0" flags="0x0"/>
      <component glyphName="hungarumlaut.cap" x="297" y="0" flags="0x0"/>
    </TTGlyph>
    <TTGlyph name="Umacron" xMin="24" yMin="-16" xMax="1521" yMax="1918">
      <component glyphName="macron.cap" x="466" y="0" flags="0x0"/>
      <component glyphName="U" x="0" y="0" flags="0x0"/>
    </TTGlyph>
    <TTGlyph name="Uogonek" xMin="24" yMin="-515" xMax="1521" yMax="1522">
      <contour>
        <pt x="143" y="1330" on="1"/>
        <pt x="24" y="1360" on="1"/>
        <pt x="24" y="1522" on="1"/>
        <pt x="743" y="1522" on="1"/>
        <pt x="743" y="1360" on="1"/>
        <pt x="573" y="1326" on="1"/>
        <pt x="573" y="575" on="1"/>
        <pt x="573" y="141" on="0"/>
        <pt x="862" y="141" on="1"/>
        <pt x="1009" y="141" on="0"/>
        <pt x="1140" y="376" on="0"/>
        <pt x="1140" y="575" on="1"/>
        <pt x="1140" y="1330" on="1"/>
        <pt x="961" y="1360" on="1"/>
        <pt x="961" y="1522" on="1"/>
        <pt x="1521" y="1522" on="1"/>
        <pt x="1521" y="1360" on="1"/>
        <pt x="1394" y="1330" on="1"/>
        <pt x="1394" y="598" on="1"/>
        <pt x="1394" y="376" on="0"/>
        <pt x="1234" y="99" on="0"/>
        <pt x="1088" y="36" on="1"/>
        <pt x="1010" y="-27" on="0"/>
        <pt x="927" y="-138" on="0"/>
        <pt x="927" y="-191" on="1"/>
        <pt x="927" y="-220" on="0"/>
        <pt x="955" y="-273" on="0"/>
        <pt x="1009" y="-307" on="0"/>
        <pt x="1046" y="-307" on="1"/>
        <pt x="1082" y="-307" on="0"/>
        <pt x="1123" y="-299" on="0"/>
        <pt x="1160" y="-284" on="1"/>
        <pt x="1160" y="-447" on="1"/>
        <pt x="1118" y="-478" on="0"/>
        <pt x="965" y="-515" on="0"/>
        <pt x="897" y="-515" on="1"/>
        <pt x="777" y="-515" on="0"/>
        <pt x="620" y="-409" on="0"/>
        <pt x="620" y="-305" on="1"/>
        <pt x="620" y="-247" on="0"/>
        <pt x="695" y="-133" on="0"/>
        <pt x="811" y="-42" on="0"/>
        <pt x="872" y="-13" on="1"/>
        <pt x="836" y="-16" on="0"/>
        <pt x="798" y="-16" on="1"/>
        <pt x="471" y="-16" on="0"/>
        <pt x="143" y="284" on="0"/>
        <pt x="143" y="609" on="1"/>
      </contour>
    </TTGlyph>
    <TTGlyph name="Uring" xMin="24" yMin="-16" xMax="1521" yMax="2114">
      <component glyphName="U" x="0" y="0" flags="0x0"/>
      <component glyphName="ring.cap" x="294" y="100" flags="0x4"/>
    </TTGlyph>
    <TTGlyph name="Utilde" xMin="24" yMin="-16" xMax="1521" yMax="2008">
      <component glyphName="tilde.cap" x="296" y="0" flags="0x0"/>
      <component glyphName="U" x="0" y="0" flags="0x0"/>
    </TTGlyph>
    <TTGlyph name="V" xMin="-43" yMin="-15" xMax="1503" yMax="1522">
      <contour>
        <pt x="-43" y="1360" on="1"/>
        <pt x="-43" y="1522" on="1"/>
        <pt x="689" y="1522" on="1"/>
        <pt x="689" y="1360" on="1"/>
        <pt x="528" y="1331" on="1"/>
        <pt x="788" y="475" on="1"/>
        <pt x="825" y="330" on="1"/>
        <pt x="853" y="475" on="1"/>
        <pt x="1109" y="1329" on="1"/>
        <pt x="950" y="1360" on="1"/>
        <pt x="950" y="1522" on="1"/>
        <pt x="1503" y="1522" on="1"/>
        <pt x="1503" y="1360" on="1"/>
        <pt x="1370" y="1330" on="1"/>
        <pt x="917" y="-15" on="1"/>
        <pt x="580" y="-15" on="1"/>
        <pt x="76" y="1330" on="1"/>
      </contour>
    </TTGlyph>
    <TTGlyph name="W" xMin="-35" yMin="-10" xMax="2167" yMax="1522">
      <contour>
        <pt x="-35" y="1360" on="1"/>
        <pt x="-35" y="1522" on="1"/>
        <pt x="668" y="1522" on="1"/>
        <pt x="668" y="1360" on="1"/>
        <pt x="507" y="1329" on="1"/>
        <pt x="734" y="450" on="1"/>
        <pt x="762" y="308" on="1"/>
        <pt x="781" y="450" on="1"/>
        <pt x="974" y="1154" on="1"/>
        <pt x="915" y="1330" on="1"/>
        <pt x="795" y="1360" on="1"/>
        <pt x="795" y="1522" on="1"/>
        <pt x="1532" y="1522" on="1"/>
        <pt x="1532" y="1360" on="1"/>
        <pt x="1339" y="1330" on="1"/>
        <pt x="1568" y="450" on="1"/>
        <pt x="1601" y="293" on="1"/>
        <pt x="1625" y="450" on="1"/>
        <pt x="1824" y="1330" on="1"/>
        <pt x="1665" y="1360" on="1"/>
        <pt x="1665" y="1522" on="1"/>
        <pt x="2167" y="1522" on="1"/>
        <pt x="2167" y="1360" on="1"/>
        <pt x="2041" y="1329" on="1"/>
        <pt x="1679" y="-10" on="1"/>
        <pt x="1310" y="-10" on="1"/>
        <pt x="1070" y="845" on="1"/>
        <pt x="848" y="-10" on="1"/>
        <pt x="481" y="-10" on="1"/>
        <pt x="75" y="1329" on="1"/>
      </contour>
    </TTGlyph>
    <TTGlyph name="Wacute" xMin="-40" yMin="-10" xMax="2162" yMax="2014">
      <component glyphName="acute.cap" x="591" y="0" flags="0x0"/>
      <component glyphName="W" x="-5" y="0" flags="0x0"/>
    </TTGlyph>
    <TTGlyph name="Wcircumflex" xMin="-35" yMin="-10" xMax="2167" yMax="2004">
      <component glyphName="W" x="0" y="0" flags="0x0"/>
      <component glyphName="circumflex.cap" x="583" y="0" flags="0x0"/>
    </TTGlyph>
    <TTGlyph name="Wdieresis" xMin="-40" yMin="-10" xMax="2162" yMax="2001">
      <component glyphName="dieresis.cap" x="591" y="0" flags="0x0"/>
      <component glyphName="W" x="-5" y="0" flags="0x0"/>
    </TTGlyph>
    <TTGlyph name="Wgrave" xMin="-40" yMin="-10" xMax="2162" yMax="2014">
      <component glyphName="grave.cap" x="589" y="0" flags="0x0"/>
      <component glyphName="W" x="-5" y="0" flags="0x0"/>
    </TTGlyph>
    <TTGlyph name="X" xMin="10" yMin="0" xMax="1498" yMax="1522">
      <contour>
        <pt x="177" y="174" on="1"/>
        <pt x="546" y="719" on="1"/>
        <pt x="141" y="1329" on="1"/>
        <pt x="14" y="1360" on="1"/>
        <pt x="14" y="1522" on="1"/>
        <pt x="765" y="1522" on="1"/>
        <pt x="765" y="1360" on="1"/>
        <pt x="623" y="1328" on="1"/>
        <pt x="847" y="941" on="1"/>
        <pt x="1091" y="1330" on="1"/>
        <pt x="924" y="1360" on="1"/>
        <pt x="924" y="1522" on="1"/>
        <pt x="1480" y="1522" on="1"/>
        <pt x="1480" y="1360" on="1"/>
        <pt x="1313" y="1330" on="1"/>
        <pt x="940" y="825" on="1"/>
        <pt x="1373" y="176" on="1"/>
        <pt x="1498" y="152" on="1"/>
        <pt x="1498" y="0" on="1"/>
        <pt x="748" y="0" on="1"/>
        <pt x="748" y="152" on="1"/>
        <pt x="893" y="177" on="1"/>
        <pt x="643" y="599" on="1"/>
        <pt x="404" y="174" on="1"/>
        <pt x="586" y="152" on="1"/>
        <pt x="586" y="0" on="1"/>
        <pt x="10" y="0" on="1"/>
        <pt x="10" y="152" on="1"/>
      </contour>
    </TTGlyph>
    <TTGlyph name="Y" xMin="-48" yMin="0" xMax="1410" yMax="1522">
      <contour>
        <pt x="468" y="176" on="1"/>
        <pt x="468" y="619" on="1"/>
        <pt x="62" y="1331" on="1"/>
        <pt x="-48" y="1360" on="1"/>
        <pt x="-48" y="1522" on="1"/>
        <pt x="656" y="1522" on="1"/>
        <pt x="656" y="1360" on="1"/>
        <pt x="534" y="1329" on="1"/>
        <pt x="742" y="898" on="1"/>
        <pt x="784" y="776" on="1"/>
        <pt x="827" y="896" on="1"/>
        <pt x="1010" y="1330" on="1"/>
        <pt x="859" y="1360" on="1"/>
        <pt x="859" y="1522" on="1"/>
        <pt x="1410" y="1522" on="1"/>
        <pt x="1410" y="1360" on="1"/>
        <pt x="1289" y="1335" on="1"/>
        <pt x="912" y="620" on="1"/>
        <pt x="912" y="175" on="1"/>
        <pt x="1125" y="152" on="1"/>
        <pt x="1125" y="0" on="1"/>
        <pt x="265" y="0" on="1"/>
        <pt x="265" y="152" on="1"/>
      </contour>
    </TTGlyph>
    <TTGlyph name="Yacute" xMin="-48" yMin="0" xMax="1410" yMax="2014">
      <component glyphName="Y" x="0" y="0" flags="0x0"/>
      <component glyphName="acute.cap" x="195" y="0" flags="0x0"/>
    </TTGlyph>
    <TTGlyph name="Ycircumflex" xMin="-48" yMin="0" xMax="1410" yMax="2004">
      <component glyphName="Y" x="0" y="0" flags="0x0"/>
      <component glyphName="circumflex.cap" x="182" y="0" flags="0x0"/>
    </TTGlyph>
    <TTGlyph name="Ydieresis" xMin="-48" yMin="0" xMax="1410" yMax="2001">
      <component glyphName="Y" x="0" y="0" flags="0x0"/>
      <component glyphName="dieresis.cap" x="195" y="0" flags="0x0"/>
    </TTGlyph>
    <TTGlyph name="Ygrave" xMin="-48" yMin="0" xMax="1410" yMax="2014">
      <component glyphName="Y" x="0" y="0" flags="0x0"/>
      <component glyphName="grave.cap" x="192" y="0" flags="0x0"/>
    </TTGlyph>
    <TTGlyph name="Z" xMin="10" yMin="0" xMax="1310" yMax="1526">
      <contour>
        <pt x="717" y="1247" on="1"/>
        <pt x="842" y="1382" on="1"/>
        <pt x="412" y="1350" on="1"/>
        <pt x="293" y="1062" on="1"/>
        <pt x="88" y="1093" on="1"/>
        <pt x="142" y="1526" on="1"/>
        <pt x="1243" y="1526" on="1"/>
        <pt x="1297" y="1388" on="1"/>
        <pt x="609" y="277" on="1"/>
        <pt x="459" y="151" on="1"/>
        <pt x="981" y="196" on="1"/>
        <pt x="1105" y="510" on="1"/>
        <pt x="1310" y="469" on="1"/>
        <pt x="1265" y="0" on="1"/>
        <pt x="87" y="0" on="1"/>
        <pt x="10" y="133" on="1"/>
      </contour>
    </TTGlyph>
    <TTGlyph name="Zacute" xMin="10" yMin="0" xMax="1310" yMax="2014">
      <component glyphName="Z" x="0" y="0" flags="0x0"/>
      <component glyphName="acute.cap" x="209" y="0" flags="0x0"/>
    </TTGlyph>
    <TTGlyph name="Zcaron" xMin="10" yMin="0" xMax="1310" yMax="2014">
      <component glyphName="caron.cap" x="388" y="0" flags="0x0"/>
      <component glyphName="Z" x="0" y="0" flags="0x0"/>
    </TTGlyph>
    <TTGlyph name="Zdotaccent" xMin="10" yMin="0" xMax="1310" yMax="2001">
      <component glyphName="dotaccent.cap" x="427" y="0" flags="0x0"/>
      <component glyphName="Z" x="0" y="0" flags="0x0"/>
    </TTGlyph>
    <TTGlyph name="a" xMin="40" yMin="-26" xMax="1164" yMax="1167">
      <contour>
        <pt x="698" y="742" on="1"/>
        <pt x="698" y="807" on="0"/>
        <pt x="671" y="880" on="0"/>
        <pt x="592" y="917" on="0"/>
        <pt x="513" y="917" on="1"/>
        <pt x="408" y="917" on="0"/>
        <pt x="248" y="873" on="0"/>
        <pt x="166" y="840" on="1"/>
        <pt x="165" y="840" on="1"/>
        <pt x="86" y="1008" on="1"/>
        <pt x="124" y="1037" on="0"/>
        <pt x="276" y="1111" on="0"/>
        <pt x="494" y="1167" on="0"/>
        <pt x="615" y="1167" on="1"/>
        <pt x="788" y="1167" on="0"/>
        <pt x="982" y="1080" on="0"/>
        <pt x="1064" y="895" on="0"/>
        <pt x="1064" y="738" on="1"/>
        <pt x="1064" y="152" on="1"/>
        <pt x="1164" y="152" on="1"/>
        <pt x="1164" y="4" on="1"/>
        <pt x="1118" y="-5" on="0"/>
        <pt x="927" y="-26" on="0"/>
        <pt x="861" y="-26" on="1"/>
        <pt x="800" y="-26" on="0"/>
        <pt x="739" y="-3" on="0"/>
        <pt x="717" y="48" on="0"/>
        <pt x="717" y="96" on="1"/>
        <pt x="717" y="134" on="1"/>
        <pt x="669" y="69" on="0"/>
        <pt x="503" y="-23" on="0"/>
        <pt x="389" y="-23" on="1"/>
        <pt x="293" y="-23" on="0"/>
        <pt x="134" y="62" on="0"/>
        <pt x="40" y="222" on="0"/>
        <pt x="40" y="330" on="1"/>
        <pt x="40" y="511" on="0"/>
        <pt x="370" y="709" on="0"/>
        <pt x="698" y="710" on="1"/>
      </contour>
      <contour>
        <pt x="698" y="560" on="1"/>
        <pt x="569" y="559" on="0"/>
        <pt x="453" y="453" on="0"/>
        <pt x="453" y="374" on="1"/>
        <pt x="453" y="291" on="0"/>
        <pt x="522" y="189" on="0"/>
        <pt x="582" y="189" on="1"/>
        <pt x="611" y="189" on="0"/>
        <pt x="677" y="221" on="0"/>
        <pt x="698" y="245" on="1"/>
      </contour>
    </TTGlyph>
    <TTGlyph name="aacute" xMin="40" yMin="-26" xMax="1164" yMax="1855">
      <component glyphName="a" x="0" y="0" flags="0x0"/>
      <component glyphName="acute" x="240" y="0" flags="0x0"/>
    </TTGlyph>
    <TTGlyph name="abreve" xMin="40" yMin="-26" xMax="1164" yMax="1773">
      <component glyphName="a" x="0" y="0" flags="0x0"/>
      <component glyphName="breve" x="70" y="0" flags="0x0"/>
    </TTGlyph>
    <TTGlyph name="acircumflex" xMin="40" yMin="-26" xMax="1164" yMax="1801">
      <component glyphName="a" x="0" y="0" flags="0x0"/>
      <component glyphName="circumflex" x="70" y="0" flags="0x0"/>
    </TTGlyph>
    <TTGlyph name="acute" xMin="122" yMin="1286" xMax="721" yMax="1855">
      <contour>
        <pt x="503" y="1855" on="1"/>
        <pt x="504" y="1855" on="1"/>
        <pt x="721" y="1656" on="1"/>
        <pt x="683" y="1591" on="0"/>
        <pt x="520" y="1436" on="0"/>
        <pt x="338" y="1310" on="0"/>
        <pt x="274" y="1286" on="1"/>
        <pt x="272" y="1286" on="1"/>
        <pt x="122" y="1403" on="1"/>
      </contour>
    </TTGlyph>
    <TTGlyph name="acute.cap" xMin="350" yMin="1593" xMax="888" yMax="2014">
      <contour>
        <pt x="645" y="2014" on="1"/>
        <pt x="646" y="2014" on="1"/>
        <pt x="888" y="1854" on="1"/>
        <pt x="829" y="1792" on="0"/>
        <pt x="673" y="1679" on="0"/>
        <pt x="532" y="1603" on="0"/>
        <pt x="495" y="1593" on="1"/>
        <pt x="494" y="1593" on="1"/>
        <pt x="350" y="1695" on="1"/>
      </contour>
    </TTGlyph>
    <TTGlyph name="adieresis" xMin="40" yMin="-26" xMax="1164" yMax="1712">
      <component glyphName="a" x="0" y="0" flags="0x0"/>
      <component glyphName="dieresis" x="70" y="0" flags="0x0"/>
    </TTGlyph>
    <TTGlyph name="ae" xMin="41" yMin="-23" xMax="1727" yMax="1167">
      <contour>
        <pt x="740" y="84" on="0"/>
        <pt x="512" y="-23" on="0"/>
        <pt x="387" y="-23" on="1"/>
        <pt x="291" y="-23" on="0"/>
        <pt x="134" y="56" on="0"/>
        <pt x="41" y="210" on="0"/>
        <pt x="41" y="318" on="1"/>
        <pt x="41" y="505" on="0"/>
        <pt x="376" y="709" on="0"/>
        <pt x="705" y="710" on="1"/>
        <pt x="705" y="738" on="1"/>
        <pt x="705" y="796" on="0"/>
        <pt x="673" y="869" on="0"/>
        <pt x="586" y="909" on="0"/>
        <pt x="504" y="909" on="1"/>
        <pt x="400" y="909" on="0"/>
        <pt x="240" y="870" on="0"/>
        <pt x="153" y="837" on="1"/>
        <pt x="73" y="1007" on="1"/>
        <pt x="108" y="1037" on="0"/>
        <pt x="266" y="1112" on="0"/>
        <pt x="488" y="1167" on="0"/>
        <pt x="611" y="1167" on="1"/>
        <pt x="732" y="1167" on="0"/>
        <pt x="884" y="1123" on="0"/>
        <pt x="926" y="1076" on="1"/>
        <pt x="1063" y="1167" on="0"/>
        <pt x="1262" y="1167" on="1"/>
        <pt x="1490" y="1167" on="0"/>
        <pt x="1725" y="947" on="0"/>
        <pt x="1727" y="747" on="1"/>
        <pt x="1727" y="612" on="0"/>
        <pt x="1710" y="527" on="1"/>
        <pt x="1090" y="527" on="1"/>
        <pt x="1104" y="366" on="0"/>
        <pt x="1236" y="215" on="0"/>
        <pt x="1358" y="215" on="1"/>
        <pt x="1432" y="215" on="0"/>
        <pt x="1597" y="262" on="0"/>
        <pt x="1654" y="291" on="1"/>
        <pt x="1716" y="152" on="1"/>
        <pt x="1685" y="117" on="0"/>
        <pt x="1543" y="35" on="0"/>
        <pt x="1355" y="-23" on="0"/>
        <pt x="1259" y="-23" on="1"/>
        <pt x="937" y="-23" on="0"/>
        <pt x="799" y="174" on="1"/>
      </contour>
      <contour>
        <pt x="1344" y="676" on="1"/>
        <pt x="1346" y="712" on="0"/>
        <pt x="1346" y="760" on="1"/>
        <pt x="1346" y="884" on="0"/>
        <pt x="1295" y="1011" on="0"/>
        <pt x="1231" y="1011" on="1"/>
        <pt x="1184" y="1011" on="0"/>
        <pt x="1122" y="960" on="0"/>
        <pt x="1086" y="814" on="0"/>
        <pt x="1085" y="676" on="1"/>
      </contour>
      <contour>
        <pt x="696" y="400" on="0"/>
        <pt x="696" y="566" on="1"/>
        <pt x="572" y="563" on="0"/>
        <pt x="468" y="451" on="0"/>
        <pt x="468" y="372" on="1"/>
        <pt x="468" y="279" on="0"/>
        <pt x="530" y="189" on="0"/>
        <pt x="585" y="189" on="1"/>
        <pt x="629" y="189" on="0"/>
        <pt x="716" y="241" on="0"/>
        <pt x="742" y="281" on="1"/>
      </contour>
    </TTGlyph>
    <TTGlyph name="aeacute" xMin="41" yMin="-23" xMax="1727" yMax="1855">
      <component glyphName="acute" x="540" y="0" flags="0x0"/>
      <component glyphName="ae" x="0" y="0" flags="0x0"/>
    </TTGlyph>
    <TTGlyph name="agrave" xMin="40" yMin="-26" xMax="1164" yMax="1855">
      <component glyphName="a" x="0" y="0" flags="0x0"/>
      <component glyphName="grave" x="240" y="0" flags="0x0"/>
    </TTGlyph>
    <TTGlyph name="amacron" xMin="40" yMin="-26" xMax="1164" yMax="1634">
      <component glyphName="a" x="0" y="0" flags="0x0"/>
      <component glyphName="macron" x="240" y="0" flags="0x0"/>
    </TTGlyph>
    <TTGlyph name="ampersand" xMin="57" yMin="-25" xMax="1562" yMax="1543">
      <contour>
        <pt x="1562" y="854" on="1"/>
        <pt x="1562" y="688" on="1"/>
        <pt x="1430" y="656" on="1"/>
        <pt x="1430" y="540" on="0"/>
        <pt x="1350" y="351" on="0"/>
        <pt x="1289" y="280" on="1"/>
        <pt x="1349" y="232" on="0"/>
        <pt x="1468" y="177" on="0"/>
        <pt x="1537" y="172" on="1"/>
        <pt x="1537" y="24" on="1"/>
        <pt x="1513" y="6" on="0"/>
        <pt x="1357" y="-16" on="0"/>
        <pt x="1311" y="-16" on="1"/>
        <pt x="1219" y="-16" on="0"/>
        <pt x="1095" y="15" on="0"/>
        <pt x="1030" y="54" on="1"/>
        <pt x="968" y="16" on="0"/>
        <pt x="789" y="-25" on="0"/>
        <pt x="663" y="-25" on="1"/>
        <pt x="373" y="-25" on="0"/>
        <pt x="57" y="175" on="0"/>
        <pt x="57" y="374" on="1"/>
        <pt x="57" y="462" on="0"/>
        <pt x="148" y="606" on="0"/>
        <pt x="287" y="705" on="0"/>
        <pt x="364" y="733" on="1"/>
        <pt x="289" y="831" on="0"/>
        <pt x="202" y="1024" on="0"/>
        <pt x="202" y="1138" on="1"/>
        <pt x="202" y="1253" on="0"/>
        <pt x="334" y="1438" on="0"/>
        <pt x="562" y="1543" on="0"/>
        <pt x="701" y="1543" on="1"/>
        <pt x="844" y="1543" on="0"/>
        <pt x="1037" y="1457" on="0"/>
        <pt x="1129" y="1318" on="0"/>
        <pt x="1129" y="1237" on="1"/>
        <pt x="1129" y="1134" on="0"/>
        <pt x="1058" y="987" on="0"/>
        <pt x="909" y="871" on="0"/>
        <pt x="781" y="814" on="1"/>
        <pt x="869" y="707" on="0"/>
        <pt x="1074" y="478" on="0"/>
        <pt x="1140" y="418" on="1"/>
        <pt x="1165" y="394" on="1"/>
        <pt x="1203" y="492" on="0"/>
        <pt x="1203" y="617" on="1"/>
        <pt x="1202" y="656" on="1"/>
        <pt x="1055" y="688" on="1"/>
        <pt x="1055" y="854" on="1"/>
      </contour>
      <contour>
        <pt x="764" y="984" on="0"/>
        <pt x="813" y="1150" on="0"/>
        <pt x="813" y="1244" on="1"/>
        <pt x="813" y="1310" on="0"/>
        <pt x="764" y="1422" on="0"/>
        <pt x="700" y="1422" on="1"/>
        <pt x="567" y="1422" on="0"/>
        <pt x="567" y="1216" on="1"/>
        <pt x="567" y="1135" on="0"/>
        <pt x="643" y="988" on="0"/>
        <pt x="698" y="918" on="1"/>
      </contour>
      <contour>
        <pt x="705" y="302" on="0"/>
        <pt x="460" y="609" on="1"/>
        <pt x="428" y="573" on="0"/>
        <pt x="393" y="490" on="0"/>
        <pt x="393" y="434" on="1"/>
        <pt x="393" y="342" on="0"/>
        <pt x="471" y="208" on="0"/>
        <pt x="616" y="136" on="0"/>
        <pt x="714" y="136" on="1"/>
        <pt x="819" y="136" on="0"/>
        <pt x="879" y="163" on="1"/>
      </contour>
    </TTGlyph>
    <TTGlyph name="aogonek" xMin="40" yMin="-515" xMax="1164" yMax="1167">
      <contour>
        <pt x="698" y="742" on="1"/>
        <pt x="698" y="807" on="0"/>
        <pt x="671" y="880" on="0"/>
        <pt x="592" y="917" on="0"/>
        <pt x="513" y="917" on="1"/>
        <pt x="408" y="917" on="0"/>
        <pt x="248" y="873" on="0"/>
        <pt x="166" y="840" on="1"/>
        <pt x="165" y="840" on="1"/>
        <pt x="86" y="1008" on="1"/>
        <pt x="124" y="1037" on="0"/>
        <pt x="276" y="1111" on="0"/>
        <pt x="494" y="1167" on="0"/>
        <pt x="615" y="1167" on="1"/>
        <pt x="788" y="1167" on="0"/>
        <pt x="982" y="1080" on="0"/>
        <pt x="1064" y="895" on="0"/>
        <pt x="1064" y="738" on="1"/>
        <pt x="1064" y="152" on="1"/>
        <pt x="1164" y="152" on="1"/>
        <pt x="1164" y="4" on="1"/>
        <pt x="1151" y="1" on="1"/>
        <pt x="1084" y="-20" on="0"/>
        <pt x="981" y="-92" on="0"/>
        <pt x="924" y="-172" on="0"/>
        <pt x="924" y="-205" on="1"/>
        <pt x="924" y="-251" on="0"/>
        <pt x="988" y="-307" on="0"/>
        <pt x="1048" y="-307" on="1"/>
        <pt x="1083" y="-307" on="0"/>
        <pt x="1123" y="-299" on="0"/>
        <pt x="1157" y="-285" on="1"/>
        <pt x="1157" y="-448" on="1"/>
        <pt x="1116" y="-479" on="0"/>
        <pt x="966" y="-515" on="0"/>
        <pt x="898" y="-515" on="1"/>
        <pt x="809" y="-515" on="0"/>
        <pt x="682" y="-462" on="0"/>
        <pt x="617" y="-367" on="0"/>
        <pt x="617" y="-305" on="1"/>
        <pt x="617" y="-225" on="0"/>
        <pt x="759" y="-79" on="0"/>
        <pt x="882" y="-26" on="1"/>
        <pt x="861" y="-26" on="1"/>
        <pt x="800" y="-26" on="0"/>
        <pt x="739" y="-3" on="0"/>
        <pt x="717" y="48" on="0"/>
        <pt x="717" y="96" on="1"/>
        <pt x="717" y="134" on="1"/>
        <pt x="669" y="69" on="0"/>
        <pt x="503" y="-23" on="0"/>
        <pt x="389" y="-23" on="1"/>
        <pt x="293" y="-23" on="0"/>
        <pt x="134" y="62" on="0"/>
        <pt x="40" y="222" on="0"/>
        <pt x="40" y="330" on="1"/>
        <pt x="40" y="511" on="0"/>
        <pt x="370" y="709" on="0"/>
        <pt x="698" y="710" on="1"/>
      </contour>
      <contour>
        <pt x="698" y="560" on="1"/>
        <pt x="569" y="559" on="0"/>
        <pt x="453" y="453" on="0"/>
        <pt x="453" y="374" on="1"/>
        <pt x="453" y="291" on="0"/>
        <pt x="522" y="189" on="0"/>
        <pt x="582" y="189" on="1"/>
        <pt x="611" y="189" on="0"/>
        <pt x="677" y="221" on="0"/>
        <pt x="698" y="245" on="1"/>
      </contour>
    </TTGlyph>
    <TTGlyph name="approxequal" xMin="171" yMin="75" xMax="1210" yMax="1125">
      <component glyphName="asciitilde" x="-21" y="-306" flags="0x4"/>
      <component glyphName="asciitilde" x="-21" y="307" flags="0x4"/>
    </TTGlyph>
    <TTGlyph name="aring" xMin="40" yMin="-26" xMax="1164" yMax="1894">
      <component glyphName="a" x="0" y="0" flags="0x0"/>
      <component glyphName="ring" x="67" y="0" flags="0x0"/>
    </TTGlyph>
    <TTGlyph name="arrowboth" xMin="96" yMin="182" xMax="2534" yMax="1395">
      <contour>
        <pt x="1756" y="351" on="1"/>
        <pt x="2085" y="679" on="1"/>
        <pt x="1908" y="661" on="1"/>
        <pt x="721" y="661" on="1"/>
        <pt x="544" y="679" on="1"/>
        <pt x="873" y="351" on="1"/>
        <pt x="702" y="182" on="1"/>
        <pt x="96" y="788" on="1"/>
        <pt x="702" y="1395" on="1"/>
        <pt x="873" y="1226" on="1"/>
        <pt x="544" y="898" on="1"/>
        <pt x="721" y="917" on="1"/>
        <pt x="1908" y="917" on="1"/>
        <pt x="2085" y="898" on="1"/>
        <pt x="1756" y="1226" on="1"/>
        <pt x="1927" y="1395" on="1"/>
        <pt x="2534" y="788" on="1"/>
        <pt x="1927" y="182" on="1"/>
      </contour>
    </TTGlyph>
    <TTGlyph name="arrowdown" xMin="180" yMin="145" xMax="1393" yMax="1485">
      <contour>
        <pt x="1224" y="923" on="1"/>
        <pt x="1393" y="752" on="1"/>
        <pt x="786" y="145" on="1"/>
        <pt x="180" y="752" on="1"/>
        <pt x="349" y="923" on="1"/>
        <pt x="678" y="594" on="1"/>
        <pt x="659" y="771" on="1"/>
        <pt x="659" y="1485" on="1"/>
        <pt x="915" y="1485" on="1"/>
        <pt x="915" y="771" on="1"/>
        <pt x="896" y="594" on="1"/>
      </contour>
    </TTGlyph>
    <TTGlyph name="arrowleft" xMin="96" yMin="182" xMax="1436" yMax="1395">
      <contour>
        <pt x="702" y="1395" on="1"/>
        <pt x="873" y="1226" on="1"/>
        <pt x="544" y="898" on="1"/>
        <pt x="721" y="917" on="1"/>
        <pt x="1436" y="917" on="1"/>
        <pt x="1436" y="661" on="1"/>
        <pt x="721" y="661" on="1"/>
        <pt x="543" y="680" on="1"/>
        <pt x="873" y="351" on="1"/>
        <pt x="702" y="182" on="1"/>
        <pt x="96" y="788" on="1"/>
      </contour>
    </TTGlyph>
    <TTGlyph name="arrowright" xMin="126" yMin="182" xMax="1466" yMax="1395">
      <contour>
        <pt x="860" y="182" on="1"/>
        <pt x="689" y="351" on="1"/>
        <pt x="1019" y="680" on="1"/>
        <pt x="841" y="661" on="1"/>
        <pt x="126" y="661" on="1"/>
        <pt x="126" y="917" on="1"/>
        <pt x="841" y="917" on="1"/>
        <pt x="1018" y="898" on="1"/>
        <pt x="689" y="1226" on="1"/>
        <pt x="860" y="1395" on="1"/>
        <pt x="1466" y="788" on="1"/>
      </contour>
    </TTGlyph>
    <TTGlyph name="arrowup" xMin="180" yMin="126" xMax="1393" yMax="1466">
      <contour>
        <pt x="915" y="840" on="1"/>
        <pt x="915" y="126" on="1"/>
        <pt x="659" y="126" on="1"/>
        <pt x="659" y="840" on="1"/>
        <pt x="678" y="1017" on="1"/>
        <pt x="349" y="688" on="1"/>
        <pt x="180" y="859" on="1"/>
        <pt x="786" y="1466" on="1"/>
        <pt x="1393" y="859" on="1"/>
        <pt x="1224" y="688" on="1"/>
        <pt x="896" y="1017" on="1"/>
      </contour>
    </TTGlyph>
    <TTGlyph name="arrowupdn" xMin="180" yMin="-440" xMax="1393" yMax="1998">
      <contour>
        <pt x="1224" y="1221" on="1"/>
        <pt x="896" y="1550" on="1"/>
        <pt x="915" y="1372" on="1"/>
        <pt x="915" y="186" on="1"/>
        <pt x="896" y="8" on="1"/>
        <pt x="1224" y="338" on="1"/>
        <pt x="1393" y="166" on="1"/>
        <pt x="787" y="-440" on="1"/>
        <pt x="180" y="166" on="1"/>
        <pt x="349" y="338" on="1"/>
        <pt x="678" y="8" on="1"/>
        <pt x="659" y="186" on="1"/>
        <pt x="659" y="1372" on="1"/>
        <pt x="678" y="1550" on="1"/>
        <pt x="349" y="1221" on="1"/>
        <pt x="180" y="1392" on="1"/>
        <pt x="787" y="1998" on="1"/>
        <pt x="1393" y="1392" on="1"/>
      </contour>
    </TTGlyph>
    <TTGlyph name="asciicircum" xMin="149" yMin="274" xMax="1214" yMax="1531">
      <contour>
        <pt x="802" y="1531" on="1"/>
        <pt x="1214" y="274" on="1"/>
        <pt x="905" y="274" on="1"/>
        <pt x="680" y="1147" on="1"/>
        <pt x="456" y="274" on="1"/>
        <pt x="149" y="274" on="1"/>
        <pt x="556" y="1531" on="1"/>
      </contour>
    </TTGlyph>
    <TTGlyph name="asciitilde" xMin="192" yMin="381" xMax="1231" yMax="818">
      <contour>
        <pt x="212" y="639" on="0"/>
        <pt x="313" y="747" on="0"/>
        <pt x="451" y="818" on="0"/>
        <pt x="525" y="818" on="1"/>
        <pt x="579" y="818" on="0"/>
        <pt x="672" y="786" on="0"/>
        <pt x="743" y="740" on="0"/>
        <pt x="788" y="705" on="1"/>
        <pt x="834" y="670" on="0"/>
        <pt x="892" y="636" on="0"/>
        <pt x="922" y="636" on="1"/>
        <pt x="972" y="636" on="0"/>
        <pt x="1043" y="665" on="0"/>
        <pt x="1092" y="711" on="0"/>
        <pt x="1120" y="747" on="1"/>
        <pt x="1231" y="616" on="1"/>
        <pt x="1205" y="556" on="0"/>
        <pt x="1105" y="448" on="0"/>
        <pt x="971" y="381" on="0"/>
        <pt x="897" y="381" on="1"/>
        <pt x="849" y="381" on="0"/>
        <pt x="768" y="411" on="0"/>
        <pt x="707" y="453" on="0"/>
        <pt x="666" y="487" on="1"/>
        <pt x="617" y="527" on="0"/>
        <pt x="552" y="565" on="0"/>
        <pt x="514" y="565" on="1"/>
        <pt x="450" y="565" on="0"/>
        <pt x="347" y="507" on="0"/>
        <pt x="302" y="459" on="1"/>
        <pt x="192" y="587" on="1"/>
      </contour>
    </TTGlyph>
    <TTGlyph name="asterisk" xMin="114" yMin="611" xMax="1283" yMax="1764">
      <contour>
        <pt x="264" y="1093" on="1"/>
        <pt x="587" y="1187" on="1"/>
        <pt x="264" y="1278" on="1"/>
        <pt x="114" y="1347" on="1"/>
        <pt x="260" y="1598" on="1"/>
        <pt x="399" y="1502" on="1"/>
        <pt x="643" y="1274" on="1"/>
        <pt x="552" y="1586" on="1"/>
        <pt x="535" y="1764" on="1"/>
        <pt x="839" y="1764" on="1"/>
        <pt x="825" y="1591" on="1"/>
        <pt x="750" y="1280" on="1"/>
        <pt x="988" y="1507" on="1"/>
        <pt x="1126" y="1606" on="1"/>
        <pt x="1277" y="1358" on="1"/>
        <pt x="1137" y="1280" on="1"/>
        <pt x="805" y="1188" on="1"/>
        <pt x="1137" y="1103" on="1"/>
        <pt x="1283" y="1034" on="1"/>
        <pt x="1129" y="776" on="1"/>
        <pt x="1002" y="870" on="1"/>
        <pt x="750" y="1096" on="1"/>
        <pt x="841" y="785" on="1"/>
        <pt x="859" y="611" on="1"/>
        <pt x="555" y="611" on="1"/>
        <pt x="568" y="785" on="1"/>
        <pt x="643" y="1099" on="1"/>
        <pt x="404" y="869" on="1"/>
        <pt x="268" y="767" on="1"/>
        <pt x="118" y="1017" on="1"/>
      </contour>
    </TTGlyph>
    <TTGlyph name="at" xMin="144" yMin="-530" xMax="2093" yMax="1568">
      <contour>
        <pt x="1542" y="1568" on="0"/>
        <pt x="1899" y="1392" on="0"/>
        <pt x="2093" y="1055" on="0"/>
        <pt x="2093" y="819" on="1"/>
        <pt x="2093" y="558" on="0"/>
        <pt x="1854" y="167" on="0"/>
        <pt x="1537" y="-42" on="0"/>
        <pt x="1434" y="-42" on="1"/>
        <pt x="1396" y="-42" on="0"/>
        <pt x="1333" y="1" on="0"/>
        <pt x="1296" y="87" on="0"/>
        <pt x="1296" y="148" on="1"/>
        <pt x="1296" y="226" on="0"/>
        <pt x="1332" y="430" on="1"/>
        <pt x="1252" y="210" on="0"/>
        <pt x="1039" y="-72" on="0"/>
        <pt x="903" y="-72" on="1"/>
        <pt x="827" y="-72" on="0"/>
        <pt x="683" y="36" on="0"/>
        <pt x="592" y="237" on="0"/>
        <pt x="592" y="369" on="1"/>
        <pt x="592" y="553" on="0"/>
        <pt x="734" y="887" on="0"/>
        <pt x="995" y="1093" on="0"/>
        <pt x="1165" y="1093" on="1"/>
        <pt x="1225" y="1093" on="0"/>
        <pt x="1355" y="1065" on="0"/>
        <pt x="1412" y="1037" on="1"/>
        <pt x="1418" y="1057" on="0"/>
        <pt x="1467" y="1091" on="0"/>
        <pt x="1488" y="1087" on="1"/>
        <pt x="1507" y="1082" on="0"/>
        <pt x="1573" y="1059" on="1"/>
        <pt x="1640" y="1035" on="0"/>
        <pt x="1682" y="1024" on="1"/>
        <pt x="1668" y="964" on="1"/>
        <pt x="1621" y="764" on="0"/>
        <pt x="1559" y="443" on="0"/>
        <pt x="1556" y="326" on="1"/>
        <pt x="1555" y="316" on="0"/>
        <pt x="1555" y="296" on="1"/>
        <pt x="1555" y="248" on="0"/>
        <pt x="1572" y="184" on="0"/>
        <pt x="1582" y="184" on="1"/>
        <pt x="1652" y="184" on="0"/>
        <pt x="1790" y="327" on="0"/>
        <pt x="1878" y="581" on="0"/>
        <pt x="1878" y="737" on="1"/>
        <pt x="1878" y="971" on="0"/>
        <pt x="1684" y="1258" on="0"/>
        <pt x="1377" y="1378" on="0"/>
        <pt x="1195" y="1378" on="1"/>
        <pt x="966" y="1378" on="0"/>
        <pt x="595" y="1131" on="0"/>
        <pt x="382" y="681" on="0"/>
        <pt x="382" y="389" on="1"/>
        <pt x="382" y="148" on="0"/>
        <pt x="554" y="-180" on="0"/>
        <pt x="840" y="-339" on="0"/>
        <pt x="1012" y="-339" on="1"/>
        <pt x="1133" y="-339" on="0"/>
        <pt x="1360" y="-289" on="0"/>
        <pt x="1417" y="-251" on="1"/>
        <pt x="1473" y="-379" on="1"/>
        <pt x="1387" y="-452" on="0"/>
        <pt x="1110" y="-530" on="0"/>
        <pt x="954" y="-530" on="1"/>
        <pt x="703" y="-530" on="0"/>
        <pt x="338" y="-323" on="0"/>
        <pt x="144" y="65" on="0"/>
        <pt x="144" y="330" on="1"/>
        <pt x="144" y="665" on="0"/>
        <pt x="467" y="1235" on="0"/>
        <pt x="1001" y="1568" on="0"/>
        <pt x="1301" y="1568" on="1"/>
      </contour>
      <contour>
        <pt x="1029" y="215" on="0"/>
        <pt x="1135" y="330" on="0"/>
        <pt x="1236" y="512" on="0"/>
        <pt x="1267" y="606" on="1"/>
        <pt x="1315" y="762" on="0"/>
        <pt x="1322" y="816" on="1"/>
        <pt x="1308" y="833" on="0"/>
        <pt x="1229" y="875" on="0"/>
        <pt x="1145" y="904" on="0"/>
        <pt x="1122" y="904" on="1"/>
        <pt x="1047" y="904" on="0"/>
        <pt x="943" y="779" on="0"/>
        <pt x="891" y="577" on="0"/>
        <pt x="891" y="461" on="1"/>
        <pt x="891" y="414" on="0"/>
        <pt x="913" y="298" on="0"/>
        <pt x="958" y="215" on="0"/>
        <pt x="989" y="215" on="1"/>
      </contour>
    </TTGlyph>
    <TTGlyph name="atilde" xMin="40" yMin="-26" xMax="1164" yMax="1715">
      <component glyphName="a" x="0" y="0" flags="0x0"/>
      <component glyphName="tilde" x="70" y="0" flags="0x0"/>
    </TTGlyph>
    <TTGlyph name="b" xMin="5" yMin="-23" xMax="1241" yMax="1680">
      <contour>
        <pt x="5" y="1492" on="1"/>
        <pt x="5" y="1627" on="1"/>
        <pt x="444" y="1680" on="1"/>
        <pt x="449" y="1680" on="1"/>
        <pt x="525" y="1634" on="1"/>
        <pt x="525" y="1046" on="1"/>
        <pt x="573" y="1098" on="0"/>
        <pt x="721" y="1168" on="0"/>
        <pt x="803" y="1168" on="1"/>
        <pt x="933" y="1168" on="0"/>
        <pt x="1129" y="1052" on="0"/>
        <pt x="1241" y="800" on="0"/>
        <pt x="1241" y="604" on="1"/>
        <pt x="1241" y="425" on="0"/>
        <pt x="1090" y="140" on="0"/>
        <pt x="806" y="-23" on="0"/>
        <pt x="614" y="-23" on="1"/>
        <pt x="479" y="-23" on="0"/>
        <pt x="277" y="7" on="0"/>
        <pt x="162" y="43" on="0"/>
        <pt x="139" y="56" on="1"/>
        <pt x="139" y="1462" on="1"/>
      </contour>
      <contour>
        <pt x="525" y="147" on="1"/>
        <pt x="533" y="133" on="0"/>
        <pt x="587" y="113" on="0"/>
        <pt x="623" y="113" on="1"/>
        <pt x="716" y="113" on="0"/>
        <pt x="823" y="349" on="0"/>
        <pt x="823" y="580" on="1"/>
        <pt x="823" y="769" on="0"/>
        <pt x="736" y="941" on="0"/>
        <pt x="655" y="941" on="1"/>
        <pt x="616" y="941" on="0"/>
        <pt x="545" y="907" on="0"/>
        <pt x="525" y="882" on="1"/>
      </contour>
    </TTGlyph>
    <TTGlyph name="backslash" xMin="18" yMin="-363" xMax="776" yMax="1599">
      <contour>
        <pt x="776" y="-363" on="1"/>
        <pt x="521" y="-363" on="1"/>
        <pt x="18" y="1599" on="1"/>
        <pt x="273" y="1599" on="1"/>
      </contour>
    </TTGlyph>
    <TTGlyph name="bar" xMin="306" yMin="-186" xMax="559" yMax="1780">
      <contour>
        <pt x="559" y="1780" on="1"/>
        <pt x="559" y="-186" on="1"/>
        <pt x="306" y="-186" on="1"/>
        <pt x="306" y="1780" on="1"/>
      </contour>
    </TTGlyph>
    <TTGlyph name="braceleft" xMin="168" yMin="-293" xMax="967" yMax="1662">
      <contour>
        <pt x="418" y="501" on="0"/>
        <pt x="393" y="562" on="0"/>
        <pt x="285" y="601" on="0"/>
        <pt x="168" y="601" on="1"/>
        <pt x="168" y="788" on="1"/>
        <pt x="287" y="788" on="0"/>
        <pt x="394" y="816" on="0"/>
        <pt x="418" y="866" on="0"/>
        <pt x="418" y="916" on="1"/>
        <pt x="418" y="974" on="0"/>
        <pt x="382" y="1073" on="0"/>
        <pt x="347" y="1142" on="1"/>
        <pt x="311" y="1212" on="0"/>
        <pt x="273" y="1317" on="0"/>
        <pt x="273" y="1380" on="1"/>
        <pt x="273" y="1517" on="0"/>
        <pt x="445" y="1662" on="0"/>
        <pt x="641" y="1662" on="1"/>
        <pt x="712" y="1662" on="0"/>
        <pt x="836" y="1642" on="0"/>
        <pt x="922" y="1623" on="1"/>
        <pt x="967" y="1613" on="1"/>
        <pt x="967" y="1474" on="1"/>
        <pt x="813" y="1474" on="1"/>
        <pt x="735" y="1474" on="0"/>
        <pt x="647" y="1413" on="0"/>
        <pt x="647" y="1328" on="1"/>
        <pt x="647" y="1294" on="0"/>
        <pt x="669" y="1212" on="0"/>
        <pt x="691" y="1149" on="1"/>
        <pt x="716" y="1076" on="0"/>
        <pt x="742" y="975" on="0"/>
        <pt x="742" y="928" on="1"/>
        <pt x="742" y="823" on="0"/>
        <pt x="567" y="709" on="0"/>
        <pt x="419" y="688" on="1"/>
        <pt x="565" y="668" on="0"/>
        <pt x="742" y="547" on="0"/>
        <pt x="742" y="441" on="1"/>
        <pt x="742" y="394" on="0"/>
        <pt x="716" y="296" on="0"/>
        <pt x="691" y="223" on="1"/>
        <pt x="669" y="164" on="0"/>
        <pt x="647" y="83" on="0"/>
        <pt x="647" y="49" on="1"/>
        <pt x="647" y="-37" on="0"/>
        <pt x="735" y="-98" on="0"/>
        <pt x="813" y="-98" on="1"/>
        <pt x="967" y="-98" on="1"/>
        <pt x="967" y="-244" on="1"/>
        <pt x="922" y="-254" on="1"/>
        <pt x="836" y="-273" on="0"/>
        <pt x="712" y="-293" on="0"/>
        <pt x="641" y="-293" on="1"/>
        <pt x="445" y="-293" on="0"/>
        <pt x="273" y="-148" on="0"/>
        <pt x="273" y="-11" on="1"/>
        <pt x="273" y="52" on="0"/>
        <pt x="310" y="153" on="0"/>
        <pt x="347" y="223" on="1"/>
        <pt x="382" y="290" on="0"/>
        <pt x="418" y="387" on="0"/>
        <pt x="418" y="446" on="1"/>
      </contour>
    </TTGlyph>
    <TTGlyph name="braceright" xMin="127" yMin="-293" xMax="926" yMax="1662">
      <contour>
        <pt x="821" y="-148" on="0"/>
        <pt x="649" y="-293" on="0"/>
        <pt x="453" y="-293" on="1"/>
        <pt x="382" y="-293" on="0"/>
        <pt x="258" y="-273" on="0"/>
        <pt x="172" y="-254" on="1"/>
        <pt x="127" y="-244" on="1"/>
        <pt x="127" y="-98" on="1"/>
        <pt x="281" y="-98" on="1"/>
        <pt x="359" y="-98" on="0"/>
        <pt x="447" y="-37" on="0"/>
        <pt x="447" y="49" on="1"/>
        <pt x="447" y="83" on="0"/>
        <pt x="425" y="164" on="0"/>
        <pt x="403" y="223" on="1"/>
        <pt x="378" y="296" on="0"/>
        <pt x="352" y="394" on="0"/>
        <pt x="352" y="441" on="1"/>
        <pt x="352" y="547" on="0"/>
        <pt x="529" y="668" on="0"/>
        <pt x="675" y="688" on="1"/>
        <pt x="527" y="709" on="0"/>
        <pt x="352" y="823" on="0"/>
        <pt x="352" y="928" on="1"/>
        <pt x="352" y="975" on="0"/>
        <pt x="378" y="1076" on="0"/>
        <pt x="403" y="1149" on="1"/>
        <pt x="425" y="1212" on="0"/>
        <pt x="447" y="1294" on="0"/>
        <pt x="447" y="1328" on="1"/>
        <pt x="447" y="1413" on="0"/>
        <pt x="359" y="1474" on="0"/>
        <pt x="281" y="1474" on="1"/>
        <pt x="127" y="1474" on="1"/>
        <pt x="127" y="1613" on="1"/>
        <pt x="172" y="1623" on="1"/>
        <pt x="258" y="1642" on="0"/>
        <pt x="382" y="1662" on="0"/>
        <pt x="453" y="1662" on="1"/>
        <pt x="649" y="1662" on="0"/>
        <pt x="821" y="1517" on="0"/>
        <pt x="821" y="1380" on="1"/>
        <pt x="821" y="1317" on="0"/>
        <pt x="783" y="1212" on="0"/>
        <pt x="747" y="1142" on="1"/>
        <pt x="712" y="1073" on="0"/>
        <pt x="676" y="974" on="0"/>
        <pt x="676" y="916" on="1"/>
        <pt x="676" y="866" on="0"/>
        <pt x="700" y="816" on="0"/>
        <pt x="807" y="788" on="0"/>
        <pt x="926" y="788" on="1"/>
        <pt x="926" y="601" on="1"/>
        <pt x="809" y="601" on="0"/>
        <pt x="701" y="562" on="0"/>
        <pt x="676" y="501" on="0"/>
        <pt x="676" y="446" on="1"/>
        <pt x="676" y="387" on="0"/>
        <pt x="712" y="290" on="0"/>
        <pt x="747" y="223" on="1"/>
        <pt x="784" y="153" on="0"/>
        <pt x="821" y="52" on="0"/>
        <pt x="821" y="-11" on="1"/>
      </contour>
    </TTGlyph>
    <TTGlyph name="bracketleft" xMin="169" yMin="-281" xMax="748" yMax="1647">
      <contour>
        <pt x="169" y="1510" on="0"/>
        <pt x="239" y="1611" on="0"/>
        <pt x="362" y="1647" on="0"/>
        <pt x="456" y="1647" on="1"/>
        <pt x="529" y="1647" on="0"/>
        <pt x="666" y="1624" on="0"/>
        <pt x="748" y="1603" on="1"/>
        <pt x="748" y="1477" on="1"/>
        <pt x="512" y="1477" on="1"/>
        <pt x="512" y="-109" on="1"/>
        <pt x="748" y="-109" on="1"/>
        <pt x="748" y="-237" on="1"/>
        <pt x="594" y="-281" on="0"/>
        <pt x="456" y="-281" on="1"/>
        <pt x="362" y="-281" on="0"/>
        <pt x="239" y="-245" on="0"/>
        <pt x="169" y="-144" on="0"/>
        <pt x="169" y="-50" on="1"/>
        <pt x="169" y="1416" on="1"/>
      </contour>
    </TTGlyph>
    <TTGlyph name="bracketright" xMin="141" yMin="-281" xMax="720" yMax="1647">
      <contour>
        <pt x="720" y="-50" on="1"/>
        <pt x="720" y="-144" on="0"/>
        <pt x="650" y="-245" on="0"/>
        <pt x="527" y="-281" on="0"/>
        <pt x="433" y="-281" on="1"/>
        <pt x="295" y="-281" on="0"/>
        <pt x="141" y="-237" on="1"/>
        <pt x="141" y="-109" on="1"/>
        <pt x="377" y="-109" on="1"/>
        <pt x="377" y="1477" on="1"/>
        <pt x="141" y="1477" on="1"/>
        <pt x="141" y="1603" on="1"/>
        <pt x="223" y="1624" on="0"/>
        <pt x="360" y="1647" on="0"/>
        <pt x="433" y="1647" on="1"/>
        <pt x="527" y="1647" on="0"/>
        <pt x="650" y="1611" on="0"/>
        <pt x="720" y="1510" on="0"/>
        <pt x="720" y="1416" on="1"/>
      </contour>
    </TTGlyph>
    <TTGlyph name="breve" xMin="118" yMin="1315" xMax="898" yMax="1773">
      <contour>
        <pt x="118" y="1752" on="0"/>
        <pt x="122" y="1773" on="1"/>
        <pt x="296" y="1773" on="1"/>
        <pt x="296" y="1747" on="0"/>
        <pt x="300" y="1726" on="1"/>
        <pt x="311" y="1656" on="0"/>
        <pt x="411" y="1568" on="0"/>
        <pt x="513" y="1568" on="1"/>
        <pt x="612" y="1568" on="0"/>
        <pt x="709" y="1655" on="0"/>
        <pt x="720" y="1725" on="1"/>
        <pt x="724" y="1748" on="0"/>
        <pt x="724" y="1773" on="1"/>
        <pt x="894" y="1773" on="1"/>
        <pt x="898" y="1689" on="0"/>
        <pt x="898" y="1660" on="1"/>
        <pt x="898" y="1562" on="0"/>
        <pt x="799" y="1405" on="0"/>
        <pt x="623" y="1315" on="0"/>
        <pt x="511" y="1315" on="1"/>
        <pt x="395" y="1315" on="0"/>
        <pt x="216" y="1405" on="0"/>
        <pt x="118" y="1562" on="0"/>
        <pt x="118" y="1659" on="1"/>
      </contour>
    </TTGlyph>
    <TTGlyph name="breve.cap" xMin="109" yMin="1615" xMax="917" yMax="2009">
      <contour>
        <pt x="109" y="1994" on="0"/>
        <pt x="111" y="2009" on="1"/>
        <pt x="296" y="2009" on="1"/>
        <pt x="298" y="1988" on="1"/>
        <pt x="307" y="1933" on="0"/>
        <pt x="407" y="1847" on="0"/>
        <pt x="516" y="1847" on="1"/>
        <pt x="624" y="1847" on="0"/>
        <pt x="716" y="1932" on="0"/>
        <pt x="723" y="1988" on="1"/>
        <pt x="724" y="1997" on="0"/>
        <pt x="724" y="2009" on="1"/>
        <pt x="915" y="2009" on="1"/>
        <pt x="917" y="1994" on="0"/>
        <pt x="917" y="1964" on="1"/>
        <pt x="917" y="1871" on="0"/>
        <pt x="825" y="1712" on="0"/>
        <pt x="643" y="1615" on="0"/>
        <pt x="514" y="1615" on="1"/>
        <pt x="381" y="1615" on="0"/>
        <pt x="199" y="1711" on="0"/>
        <pt x="109" y="1868" on="0"/>
        <pt x="109" y="1962" on="1"/>
      </contour>
    </TTGlyph>
    <TTGlyph name="breve.r" xMin="60" yMin="1304" xMax="963" yMax="1728">
      <contour>
        <pt x="60" y="1706" on="0"/>
        <pt x="62" y="1728" on="1"/>
        <pt x="317" y="1728" on="1"/>
        <pt x="338" y="1728" on="0"/>
        <pt x="353" y="1663" on="0"/>
        <pt x="353" y="1622" on="1"/>
        <pt x="353" y="1544" on="0"/>
        <pt x="435" y="1441" on="0"/>
        <pt x="511" y="1441" on="1"/>
        <pt x="587" y="1441" on="0"/>
        <pt x="668" y="1543" on="0"/>
        <pt x="668" y="1622" on="1"/>
        <pt x="668" y="1663" on="0"/>
        <pt x="683" y="1728" on="0"/>
        <pt x="704" y="1728" on="1"/>
        <pt x="961" y="1728" on="1"/>
        <pt x="963" y="1706" on="0"/>
        <pt x="963" y="1668" on="1"/>
        <pt x="963" y="1559" on="0"/>
        <pt x="854" y="1394" on="0"/>
        <pt x="649" y="1304" on="0"/>
        <pt x="510" y="1304" on="1"/>
        <pt x="377" y="1304" on="0"/>
        <pt x="173" y="1395" on="0"/>
        <pt x="60" y="1561" on="0"/>
        <pt x="60" y="1668" on="1"/>
      </contour>
    </TTGlyph>
    <TTGlyph name="breve.rcap" xMin="60" yMin="1623" xMax="962" yMax="2014">
      <contour>
        <pt x="60" y="1992" on="0"/>
        <pt x="62" y="2014" on="1"/>
        <pt x="328" y="2014" on="1"/>
        <pt x="348" y="2014" on="0"/>
        <pt x="364" y="1937" on="0"/>
        <pt x="364" y="1893" on="1"/>
        <pt x="364" y="1758" on="0"/>
        <pt x="511" y="1758" on="1"/>
        <pt x="658" y="1758" on="0"/>
        <pt x="658" y="1893" on="1"/>
        <pt x="658" y="1937" on="0"/>
        <pt x="674" y="2014" on="0"/>
        <pt x="694" y="2014" on="1"/>
        <pt x="960" y="2014" on="1"/>
        <pt x="962" y="1992" on="0"/>
        <pt x="962" y="1941" on="1"/>
        <pt x="962" y="1842" on="0"/>
        <pt x="850" y="1699" on="0"/>
        <pt x="646" y="1623" on="0"/>
        <pt x="510" y="1623" on="1"/>
        <pt x="381" y="1623" on="0"/>
        <pt x="177" y="1700" on="0"/>
        <pt x="60" y="1844" on="0"/>
        <pt x="60" y="1941" on="1"/>
      </contour>
    </TTGlyph>
    <TTGlyph name="brokenbar" xMin="306" yMin="-186" xMax="559" yMax="1780">
      <contour>
        <pt x="559" y="1780" on="1"/>
        <pt x="559" y="950" on="1"/>
        <pt x="306" y="950" on="1"/>
        <pt x="306" y="1780" on="1"/>
      </contour>
      <contour>
        <pt x="559" y="641" on="1"/>
        <pt x="559" y="-186" on="1"/>
        <pt x="306" y="-186" on="1"/>
        <pt x="306" y="641" on="1"/>
      </contour>
    </TTGlyph>
    <TTGlyph name="bullet" xMin="154" yMin="395" xMax="727" yMax="962">
      <contour>
        <pt x="154" y="760" on="0"/>
        <pt x="238" y="890" on="0"/>
        <pt x="376" y="962" on="0"/>
        <pt x="454" y="962" on="1"/>
        <pt x="532" y="962" on="0"/>
        <pt x="656" y="891" on="0"/>
        <pt x="727" y="762" on="0"/>
        <pt x="727" y="678" on="1"/>
        <pt x="727" y="600" on="0"/>
        <pt x="642" y="470" on="0"/>
        <pt x="504" y="395" on="0"/>
        <pt x="428" y="395" on="1"/>
        <pt x="352" y="395" on="0"/>
        <pt x="226" y="471" on="0"/>
        <pt x="154" y="601" on="0"/>
        <pt x="154" y="678" on="1"/>
      </contour>
    </TTGlyph>
    <TTGlyph name="bullet.cap" xMin="154" yMin="511" xMax="727" yMax="1078">
      <component glyphName="bullet" x="0" y="116" flags="0x4"/>
    </TTGlyph>
    <TTGlyph name="c" xMin="61" yMin="-23" xMax="1031" yMax="1168">
      <contour>
        <pt x="747" y="1168" on="0"/>
        <pt x="873" y="1145" on="0"/>
        <pt x="943" y="1125" on="1"/>
        <pt x="967" y="1118" on="0"/>
        <pt x="1011" y="1107" on="0"/>
        <pt x="1028" y="1106" on="1"/>
        <pt x="1011" y="707" on="1"/>
        <pt x="768" y="707" on="1"/>
        <pt x="711" y="956" on="1"/>
        <pt x="705" y="980" on="0"/>
        <pt x="663" y="1002" on="0"/>
        <pt x="636" y="1002" on="1"/>
        <pt x="589" y="1002" on="0"/>
        <pt x="523" y="937" on="0"/>
        <pt x="484" y="768" on="0"/>
        <pt x="484" y="618" on="1"/>
        <pt x="484" y="419" on="0"/>
        <pt x="595" y="209" on="0"/>
        <pt x="696" y="209" on="1"/>
        <pt x="782" y="209" on="0"/>
        <pt x="909" y="248" on="0"/>
        <pt x="968" y="281" on="1"/>
        <pt x="1031" y="142" on="1"/>
        <pt x="1005" y="111" on="0"/>
        <pt x="886" y="34" on="0"/>
        <pt x="710" y="-23" on="0"/>
        <pt x="606" y="-23" on="1"/>
        <pt x="327" y="-23" on="0"/>
        <pt x="62" y="293" on="0"/>
        <pt x="61" y="563" on="1"/>
        <pt x="61" y="751" on="0"/>
        <pt x="215" y="1024" on="0"/>
        <pt x="484" y="1168" on="0"/>
        <pt x="656" y="1168" on="1"/>
      </contour>
    </TTGlyph>
    <TTGlyph name="cacute" xMin="57" yMin="-23" xMax="1027" yMax="1853">
      <component glyphName="acute" x="279" y="-2" flags="0x4"/>
      <component glyphName="c" x="-4" y="0" flags="0x0"/>
    </TTGlyph>
    <TTGlyph name="caron" xMin="87" yMin="1292" xMax="938" yMax="1804">
      <contour>
        <pt x="208" y="1803" on="1"/>
        <pt x="510" y="1557" on="1"/>
        <pt x="813" y="1804" on="1"/>
        <pt x="938" y="1695" on="1"/>
        <pt x="608" y="1292" on="1"/>
        <pt x="410" y="1292" on="1"/>
        <pt x="87" y="1695" on="1"/>
      </contour>
    </TTGlyph>
    <TTGlyph name="caron.cap" xMin="-79" yMin="1616" xMax="758" yMax="2014">
      <contour>
        <pt x="47" y="2014" on="1"/>
        <pt x="330" y="1840" on="1"/>
        <pt x="632" y="2014" on="1"/>
        <pt x="758" y="1905" on="1"/>
        <pt x="435" y="1616" on="1"/>
        <pt x="226" y="1616" on="1"/>
        <pt x="-79" y="1906" on="1"/>
      </contour>
    </TTGlyph>
    <TTGlyph name="caronvertical" xMin="65" yMin="953" xMax="391" yMax="1700">
      <contour>
        <pt x="96" y="1018" on="1"/>
        <pt x="108" y="1064" on="0"/>
        <pt x="121" y="1191" on="0"/>
        <pt x="121" y="1334" on="1"/>
        <pt x="121" y="1441" on="0"/>
        <pt x="83" y="1577" on="0"/>
        <pt x="65" y="1602" on="1"/>
        <pt x="74" y="1644" on="1"/>
        <pt x="333" y="1700" on="1"/>
        <pt x="356" y="1673" on="0"/>
        <pt x="391" y="1528" on="0"/>
        <pt x="391" y="1425" on="1"/>
        <pt x="391" y="1309" on="0"/>
        <pt x="345" y="1108" on="0"/>
        <pt x="286" y="975" on="0"/>
        <pt x="266" y="953" on="1"/>
        <pt x="105" y="992" on="1"/>
      </contour>
    </TTGlyph>
    <TTGlyph name="ccaron" xMin="57" yMin="-23" xMax="1049" yMax="1802">
      <component glyphName="caron" x="111" y="-2" flags="0x4"/>
      <component glyphName="c" x="-4" y="0" flags="0x0"/>
    </TTGlyph>
    <TTGlyph name="ccedilla" xMin="61" yMin="-540" xMax="1031" yMax="1168">
      <contour>
        <pt x="999" y="104" on="0"/>
        <pt x="846" y="14" on="0"/>
        <pt x="745" y="-8" on="1"/>
        <pt x="796" y="-60" on="0"/>
        <pt x="878" y="-213" on="0"/>
        <pt x="874" y="-297" on="1"/>
        <pt x="869" y="-389" on="0"/>
        <pt x="792" y="-496" on="0"/>
        <pt x="653" y="-540" on="0"/>
        <pt x="547" y="-540" on="1"/>
        <pt x="546" y="-540" on="1"/>
        <pt x="512" y="-540" on="0"/>
        <pt x="429" y="-522" on="0"/>
        <pt x="402" y="-510" on="1"/>
        <pt x="403" y="-296" on="1"/>
        <pt x="422" y="-302" on="0"/>
        <pt x="472" y="-309" on="0"/>
        <pt x="485" y="-309" on="1"/>
        <pt x="486" y="-309" on="1"/>
        <pt x="536" y="-309" on="0"/>
        <pt x="592" y="-291" on="0"/>
        <pt x="622" y="-231" on="0"/>
        <pt x="622" y="-170" on="1"/>
        <pt x="622" y="-135" on="0"/>
        <pt x="596" y="-57" on="0"/>
        <pt x="577" y="-23" on="1"/>
        <pt x="313" y="-14" on="0"/>
        <pt x="62" y="300" on="0"/>
        <pt x="61" y="563" on="1"/>
        <pt x="61" y="751" on="0"/>
        <pt x="215" y="1024" on="0"/>
        <pt x="484" y="1168" on="0"/>
        <pt x="656" y="1168" on="1"/>
        <pt x="747" y="1168" on="0"/>
        <pt x="873" y="1145" on="0"/>
        <pt x="943" y="1125" on="1"/>
        <pt x="967" y="1118" on="0"/>
        <pt x="1011" y="1107" on="0"/>
        <pt x="1028" y="1106" on="1"/>
        <pt x="1011" y="707" on="1"/>
        <pt x="768" y="707" on="1"/>
        <pt x="711" y="956" on="1"/>
        <pt x="705" y="980" on="0"/>
        <pt x="663" y="1002" on="0"/>
        <pt x="636" y="1002" on="1"/>
        <pt x="589" y="1002" on="0"/>
        <pt x="523" y="937" on="0"/>
        <pt x="484" y="768" on="0"/>
        <pt x="484" y="618" on="1"/>
        <pt x="484" y="419" on="0"/>
        <pt x="595" y="209" on="0"/>
        <pt x="696" y="209" on="1"/>
        <pt x="782" y="209" on="0"/>
        <pt x="909" y="248" on="0"/>
        <pt x="968" y="281" on="1"/>
        <pt x="1031" y="142" on="1"/>
      </contour>
    </TTGlyph>
    <TTGlyph name="ccircumflex" xMin="57" yMin="-23" xMax="1050" yMax="1799">
      <component glyphName="circumflex" x="112" y="-2" flags="0x4"/>
      <component glyphName="c" x="-4" y="0" flags="0x0"/>
    </TTGlyph>
    <TTGlyph name="cdotaccent" xMin="61" yMin="-23" xMax="1031" yMax="1705">
      <component glyphName="c" x="0" y="0" flags="0x0"/>
      <component glyphName="dotaccent" x="334" y="-2" flags="0x4"/>
    </TTGlyph>
    <TTGlyph name="cedilla" xMin="61" yMin="-540" xMax="536" yMax="14">
      <contour>
        <pt x="386" y="9" on="1"/>
        <pt x="416" y="-17" on="0"/>
        <pt x="485" y="-108" on="0"/>
        <pt x="536" y="-232" on="0"/>
        <pt x="533" y="-297" on="1"/>
        <pt x="528" y="-389" on="0"/>
        <pt x="451" y="-496" on="0"/>
        <pt x="312" y="-540" on="0"/>
        <pt x="206" y="-540" on="1"/>
        <pt x="205" y="-540" on="1"/>
        <pt x="171" y="-540" on="0"/>
        <pt x="88" y="-522" on="0"/>
        <pt x="61" y="-510" on="1"/>
        <pt x="62" y="-296" on="1"/>
        <pt x="81" y="-302" on="0"/>
        <pt x="131" y="-309" on="0"/>
        <pt x="144" y="-309" on="1"/>
        <pt x="145" y="-309" on="1"/>
        <pt x="195" y="-309" on="0"/>
        <pt x="251" y="-291" on="0"/>
        <pt x="281" y="-231" on="0"/>
        <pt x="281" y="-170" on="1"/>
        <pt x="281" y="-124" on="0"/>
        <pt x="238" y="-21" on="0"/>
        <pt x="216" y="9" on="1"/>
        <pt x="342" y="14" on="1"/>
      </contour>
    </TTGlyph>
    <TTGlyph name="cent" xMin="99" yMin="-243" xMax="1069" yMax="1375">
      <contour>
        <pt x="597" y="1375" on="1"/>
        <pt x="795" y="1375" on="1"/>
        <pt x="784" y="1164" on="1"/>
        <pt x="842" y="1159" on="0"/>
        <pt x="932" y="1139" on="0"/>
        <pt x="979" y="1125" on="1"/>
        <pt x="1040" y="1107" on="0"/>
        <pt x="1066" y="1106" on="1"/>
        <pt x="1049" y="707" on="1"/>
        <pt x="806" y="707" on="1"/>
        <pt x="749" y="956" on="1"/>
        <pt x="743" y="980" on="0"/>
        <pt x="701" y="1002" on="0"/>
        <pt x="674" y="1002" on="1"/>
        <pt x="627" y="1002" on="0"/>
        <pt x="561" y="937" on="0"/>
        <pt x="522" y="768" on="0"/>
        <pt x="522" y="618" on="1"/>
        <pt x="522" y="419" on="0"/>
        <pt x="633" y="209" on="0"/>
        <pt x="734" y="209" on="1"/>
        <pt x="820" y="209" on="0"/>
        <pt x="947" y="248" on="0"/>
        <pt x="1006" y="281" on="1"/>
        <pt x="1069" y="142" on="1"/>
        <pt x="1045" y="114" on="0"/>
        <pt x="941" y="45" on="0"/>
        <pt x="788" y="-13" on="0"/>
        <pt x="697" y="-20" on="1"/>
        <pt x="686" y="-243" on="1"/>
        <pt x="488" y="-243" on="1"/>
        <pt x="500" y="-10" on="1"/>
        <pt x="295" y="30" on="0"/>
        <pt x="100" y="331" on="0"/>
        <pt x="99" y="563" on="1"/>
        <pt x="99" y="730" on="0"/>
        <pt x="223" y="985" on="0"/>
        <pt x="442" y="1138" on="0"/>
        <pt x="586" y="1160" on="1"/>
      </contour>
    </TTGlyph>
    <TTGlyph name="circumflex" xMin="86" yMin="1289" xMax="938" yMax="1801">
      <contour>
        <pt x="410" y="1801" on="1"/>
        <pt x="608" y="1801" on="1"/>
        <pt x="938" y="1399" on="1"/>
        <pt x="812" y="1290" on="1"/>
        <pt x="511" y="1528" on="1"/>
        <pt x="208" y="1289" on="1"/>
        <pt x="86" y="1398" on="1"/>
      </contour>
    </TTGlyph>
    <TTGlyph name="circumflex.cap" xMin="92" yMin="1596" xMax="949" yMax="2004">
      <contour>
        <pt x="417" y="2004" on="1"/>
        <pt x="626" y="2004" on="1"/>
        <pt x="949" y="1705" on="1"/>
        <pt x="823" y="1596" on="1"/>
        <pt x="521" y="1781" on="1"/>
        <pt x="218" y="1596" on="1"/>
        <pt x="92" y="1704" on="1"/>
      </contour>
    </TTGlyph>
    <TTGlyph name="colon" xMin="127" yMin="-14" xMax="564" yMax="1202">
      <component glyphName="period" x="6" y="822" flags="0x4"/>
      <component glyphName="period" x="6" y="0" flags="0x0"/>
    </TTGlyph>
    <TTGlyph name="colonmonetary" xMin="110" yMin="-323" xMax="1485" yMax="1807">
      <contour>
        <pt x="380" y="62" on="0"/>
        <pt x="110" y="433" on="0"/>
        <pt x="110" y="734" on="1"/>
        <pt x="110" y="962" on="0"/>
        <pt x="269" y="1297" on="0"/>
        <pt x="560" y="1497" on="0"/>
        <pt x="757" y="1528" on="1"/>
        <pt x="778" y="1807" on="1"/>
        <pt x="910" y="1807" on="1"/>
        <pt x="890" y="1542" on="1"/>
        <pt x="942" y="1543" on="1"/>
        <pt x="968" y="1543" on="0"/>
        <pt x="1018" y="1541" on="1"/>
        <pt x="1038" y="1807" on="1"/>
        <pt x="1169" y="1807" on="1"/>
        <pt x="1148" y="1530" on="1"/>
        <pt x="1207" y="1522" on="0"/>
        <pt x="1320" y="1505" on="1"/>
        <pt x="1441" y="1484" on="0"/>
        <pt x="1485" y="1484" on="1"/>
        <pt x="1458" y="1049" on="1"/>
        <pt x="1242" y="1049" on="1"/>
        <pt x="1197" y="1342" on="1"/>
        <pt x="1177" y="1353" on="0"/>
        <pt x="1135" y="1361" on="1"/>
        <pt x="1054" y="149" on="1"/>
        <pt x="1125" y="164" on="0"/>
        <pt x="1169" y="200" on="1"/>
        <pt x="1260" y="410" on="1"/>
        <pt x="1466" y="370" on="1"/>
        <pt x="1430" y="59" on="1"/>
        <pt x="1390" y="55" on="0"/>
        <pt x="1324" y="40" on="0"/>
        <pt x="1274" y="26" on="1"/>
        <pt x="1211" y="8" on="0"/>
        <pt x="1109" y="-13" on="0"/>
        <pt x="1039" y="-19" on="1"/>
        <pt x="1016" y="-323" on="1"/>
        <pt x="885" y="-323" on="1"/>
        <pt x="907" y="-24" on="1"/>
        <pt x="849" y="-24" on="0"/>
        <pt x="777" y="-17" on="1"/>
        <pt x="754" y="-323" on="1"/>
        <pt x="622" y="-323" on="1"/>
        <pt x="646" y="3" on="1"/>
      </contour>
      <contour>
        <pt x="1005" y="1376" on="1"/>
        <pt x="964" y="1379" on="0"/>
        <pt x="924" y="1379" on="1"/>
        <pt x="898" y="1379" on="0"/>
        <pt x="876" y="1376" on="1"/>
        <pt x="794" y="160" on="1"/>
        <pt x="851" y="138" on="0"/>
        <pt x="923" y="138" on="1"/>
      </contour>
      <contour>
        <pt x="740" y="1324" on="1"/>
        <pt x="648" y="1259" on="0"/>
        <pt x="546" y="977" on="0"/>
        <pt x="546" y="756" on="1"/>
        <pt x="546" y="409" on="0"/>
        <pt x="668" y="256" on="1"/>
      </contour>
    </TTGlyph>
    <TTGlyph name="comma" xMin="132" yMin="-495" xMax="563" yMax="382">
      <contour>
        <pt x="410" y="382" on="0"/>
        <pt x="508" y="307" on="0"/>
        <pt x="563" y="167" on="0"/>
        <pt x="563" y="72" on="1"/>
        <pt x="563" y="-59" on="0"/>
        <pt x="468" y="-299" on="0"/>
        <pt x="329" y="-466" on="0"/>
        <pt x="267" y="-495" on="1"/>
        <pt x="264" y="-495" on="1"/>
        <pt x="151" y="-415" on="1"/>
        <pt x="151" y="-377" on="1"/>
        <pt x="217" y="-329" on="0"/>
        <pt x="293" y="-182" on="0"/>
        <pt x="293" y="-97" on="1"/>
        <pt x="293" y="-64" on="0"/>
        <pt x="260" y="-18" on="0"/>
        <pt x="225" y="13" on="1"/>
        <pt x="195" y="39" on="0"/>
        <pt x="158" y="80" on="0"/>
        <pt x="132" y="143" on="0"/>
        <pt x="132" y="186" on="1"/>
        <pt x="132" y="245" on="0"/>
        <pt x="183" y="334" on="0"/>
        <pt x="273" y="382" on="0"/>
        <pt x="331" y="382" on="1"/>
        <pt x="347" y="382" on="1"/>
      </contour>
    </TTGlyph>
    <TTGlyph name="copyright" xMin="198" yMin="136" xMax="1931" yMax="1865">
      <contour>
        <pt x="1305" y="1865" on="0"/>
        <pt x="1701" y="1636" on="0"/>
        <pt x="1931" y="1240" on="0"/>
        <pt x="1931" y="1001" on="1"/>
        <pt x="1931" y="762" on="0"/>
        <pt x="1701" y="365" on="0"/>
        <pt x="1305" y="136" on="0"/>
        <pt x="1068" y="136" on="1"/>
        <pt x="831" y="136" on="0"/>
        <pt x="432" y="366" on="0"/>
        <pt x="198" y="762" on="0"/>
        <pt x="198" y="1001" on="1"/>
        <pt x="198" y="1239" on="0"/>
        <pt x="432" y="1635" on="0"/>
        <pt x="831" y="1865" on="0"/>
        <pt x="1068" y="1865" on="1"/>
      </contour>
      <contour>
        <pt x="1265" y="268" on="0"/>
        <pt x="1589" y="465" on="0"/>
        <pt x="1775" y="802" on="0"/>
        <pt x="1775" y="1001" on="1"/>
        <pt x="1775" y="1203" on="0"/>
        <pt x="1589" y="1539" on="0"/>
        <pt x="1265" y="1733" on="0"/>
        <pt x="1068" y="1733" on="1"/>
        <pt x="868" y="1733" on="0"/>
        <pt x="542" y="1536" on="0"/>
        <pt x="355" y="1200" on="0"/>
        <pt x="355" y="1001" on="1"/>
        <pt x="355" y="799" on="0"/>
        <pt x="544" y="463" on="0"/>
        <pt x="870" y="268" on="0"/>
        <pt x="1068" y="268" on="1"/>
      </contour>
      <contour>
        <pt x="632" y="1143" on="0"/>
        <pt x="761" y="1371" on="0"/>
        <pt x="993" y="1501" on="0"/>
        <pt x="1140" y="1501" on="1"/>
        <pt x="1213" y="1501" on="0"/>
        <pt x="1371" y="1467" on="0"/>
        <pt x="1399" y="1440" on="1"/>
        <pt x="1393" y="1168" on="1"/>
        <pt x="1247" y="1168" on="1"/>
        <pt x="1200" y="1306" on="1"/>
        <pt x="1181" y="1319" on="0"/>
        <pt x="1132" y="1335" on="0"/>
        <pt x="1080" y="1335" on="1"/>
        <pt x="980" y="1335" on="0"/>
        <pt x="874" y="1172" on="0"/>
        <pt x="874" y="1041" on="1"/>
        <pt x="874" y="948" on="0"/>
        <pt x="943" y="805" on="0"/>
        <pt x="1067" y="726" on="0"/>
        <pt x="1146" y="726" on="1"/>
        <pt x="1202" y="726" on="0"/>
        <pt x="1311" y="765" on="0"/>
        <pt x="1346" y="797" on="1"/>
        <pt x="1416" y="670" on="1"/>
        <pt x="1386" y="632" on="0"/>
        <pt x="1281" y="561" on="0"/>
        <pt x="1148" y="515" on="0"/>
        <pt x="1079" y="515" on="1"/>
        <pt x="933" y="515" on="0"/>
        <pt x="732" y="639" on="0"/>
        <pt x="632" y="858" on="0"/>
        <pt x="632" y="1002" on="1"/>
      </contour>
    </TTGlyph>
    <TTGlyph name="currency" xMin="157" yMin="136" xMax="1389" yMax="1410">
      <contour>
        <pt x="350" y="558" on="0"/>
        <pt x="309" y="689" on="0"/>
        <pt x="309" y="762" on="1"/>
        <pt x="309" y="837" on="0"/>
        <pt x="353" y="977" on="0"/>
        <pt x="393" y="1036" on="1"/>
        <pt x="157" y="1269" on="1"/>
        <pt x="293" y="1408" on="1"/>
        <pt x="532" y="1169" on="1"/>
        <pt x="641" y="1237" on="0"/>
        <pt x="770" y="1237" on="1"/>
        <pt x="901" y="1237" on="0"/>
        <pt x="1012" y="1173" on="1"/>
        <pt x="1251" y="1410" on="1"/>
        <pt x="1389" y="1272" on="1"/>
        <pt x="1155" y="1042" on="1"/>
        <pt x="1235" y="925" on="0"/>
        <pt x="1235" y="784" on="1"/>
        <pt x="1235" y="710" on="0"/>
        <pt x="1190" y="570" on="0"/>
        <pt x="1149" y="510" on="1"/>
        <pt x="1385" y="278" on="1"/>
        <pt x="1247" y="140" on="1"/>
        <pt x="1009" y="378" on="1"/>
        <pt x="898" y="310" on="0"/>
        <pt x="770" y="310" on="1"/>
        <pt x="639" y="310" on="0"/>
        <pt x="531" y="372" on="1"/>
        <pt x="295" y="136" on="1"/>
        <pt x="157" y="274" on="1"/>
        <pt x="389" y="503" on="1"/>
      </contour>
      <contour>
        <pt x="951" y="828" on="0"/>
        <pt x="899" y="918" on="0"/>
        <pt x="814" y="966" on="0"/>
        <pt x="767" y="966" on="1"/>
        <pt x="713" y="966" on="0"/>
        <pt x="634" y="912" on="0"/>
        <pt x="592" y="822" on="0"/>
        <pt x="592" y="769" on="1"/>
        <pt x="592" y="718" on="0"/>
        <pt x="642" y="631" on="0"/>
        <pt x="726" y="580" on="0"/>
        <pt x="772" y="580" on="1"/>
        <pt x="857" y="580" on="0"/>
        <pt x="951" y="687" on="0"/>
        <pt x="951" y="769" on="1"/>
      </contour>
    </TTGlyph>
    <TTGlyph name="d" xMin="58" yMin="-26" xMax="1258" yMax="1680">
      <contour>
        <pt x="58" y="711" on="0"/>
        <pt x="198" y="996" on="0"/>
        <pt x="481" y="1168" on="0"/>
        <pt x="685" y="1168" on="1"/>
        <pt x="718" y="1168" on="0"/>
        <pt x="772" y="1158" on="1"/>
        <pt x="772" y="1454" on="1"/>
        <pt x="581" y="1486" on="1"/>
        <pt x="581" y="1637" on="1"/>
        <pt x="1077" y="1680" on="1"/>
        <pt x="1087" y="1680" on="1"/>
        <pt x="1159" y="1624" on="1"/>
        <pt x="1159" y="154" on="1"/>
        <pt x="1258" y="154" on="1"/>
        <pt x="1258" y="4" on="1"/>
        <pt x="1196" y="-7" on="0"/>
        <pt x="1033" y="-26" on="0"/>
        <pt x="973" y="-26" on="1"/>
        <pt x="918" y="-26" on="0"/>
        <pt x="853" y="-6" on="0"/>
        <pt x="821" y="46" on="0"/>
        <pt x="821" y="96" on="1"/>
        <pt x="821" y="142" on="1"/>
        <pt x="775" y="66" on="0"/>
        <pt x="593" y="-23" on="0"/>
        <pt x="500" y="-23" on="1"/>
        <pt x="370" y="-23" on="0"/>
        <pt x="171" y="96" on="0"/>
        <pt x="58" y="349" on="0"/>
        <pt x="58" y="543" on="1"/>
      </contour>
      <contour>
        <pt x="772" y="979" on="1"/>
        <pt x="760" y="993" on="0"/>
        <pt x="707" y="1011" on="0"/>
        <pt x="675" y="1011" on="1"/>
        <pt x="584" y="1011" on="0"/>
        <pt x="474" y="808" on="0"/>
        <pt x="474" y="567" on="1"/>
        <pt x="474" y="370" on="0"/>
        <pt x="562" y="182" on="0"/>
        <pt x="642" y="182" on="1"/>
        <pt x="727" y="182" on="0"/>
        <pt x="772" y="242" on="1"/>
      </contour>
    </TTGlyph>
    <TTGlyph name="dagger" xMin="153" yMin="61" xMax="954" yMax="1662">
      <contour>
        <pt x="435" y="1087" on="1"/>
        <pt x="153" y="1063" on="1"/>
        <pt x="154" y="1335" on="1"/>
        <pt x="435" y="1311" on="1"/>
        <pt x="400" y="1531" on="1"/>
        <pt x="400" y="1662" on="1"/>
        <pt x="710" y="1662" on="1"/>
        <pt x="710" y="1531" on="1"/>
        <pt x="675" y="1311" on="1"/>
        <pt x="954" y="1335" on="1"/>
        <pt x="954" y="1063" on="1"/>
        <pt x="675" y="1087" on="1"/>
        <pt x="710" y="788" on="1"/>
        <pt x="662" y="61" on="1"/>
        <pt x="449" y="61" on="1"/>
        <pt x="400" y="788" on="1"/>
      </contour>
    </TTGlyph>
    <TTGlyph name="daggerdbl" xMin="153" yMin="-457" xMax="955" yMax="1662">
      <contour>
        <pt x="445" y="658" on="1"/>
        <pt x="404" y="917" on="1"/>
        <pt x="436" y="1087" on="1"/>
        <pt x="153" y="1065" on="1"/>
        <pt x="153" y="1335" on="1"/>
        <pt x="435" y="1311" on="1"/>
        <pt x="400" y="1524" on="1"/>
        <pt x="400" y="1662" on="1"/>
        <pt x="710" y="1662" on="1"/>
        <pt x="710" y="1524" on="1"/>
        <pt x="674" y="1311" on="1"/>
        <pt x="955" y="1335" on="1"/>
        <pt x="955" y="1065" on="1"/>
        <pt x="676" y="1087" on="1"/>
        <pt x="705" y="917" on="1"/>
        <pt x="668" y="658" on="1"/>
        <pt x="955" y="677" on="1"/>
        <pt x="955" y="414" on="1"/>
        <pt x="668" y="433" on="1"/>
        <pt x="711" y="213" on="1"/>
        <pt x="664" y="-457" on="1"/>
        <pt x="449" y="-457" on="1"/>
        <pt x="401" y="213" on="1"/>
        <pt x="445" y="433" on="1"/>
        <pt x="153" y="414" on="1"/>
        <pt x="153" y="677" on="1"/>
      </contour>
    </TTGlyph>
    <TTGlyph name="dcaron" xMin="58" yMin="-26" xMax="1623" yMax="1700">
      <component glyphName="d" x="0" y="0" flags="0x0"/>
      <component glyphName="caronvertical" x="1232" y="0" flags="0x0"/>
    </TTGlyph>
    <TTGlyph name="dcroat" xMin="59" yMin="-26" xMax="1302" yMax="1680">
      <contour>
        <pt x="773" y="1390" on="1"/>
        <pt x="773" y="1454" on="1"/>
        <pt x="582" y="1486" on="1"/>
        <pt x="582" y="1637" on="1"/>
        <pt x="1078" y="1680" on="1"/>
        <pt x="1088" y="1680" on="1"/>
        <pt x="1160" y="1624" on="1"/>
        <pt x="1160" y="1390" on="1"/>
        <pt x="1302" y="1390" on="1"/>
        <pt x="1302" y="1248" on="1"/>
        <pt x="1160" y="1248" on="1"/>
        <pt x="1160" y="154" on="1"/>
        <pt x="1259" y="154" on="1"/>
        <pt x="1259" y="4" on="1"/>
        <pt x="1197" y="-7" on="0"/>
        <pt x="1034" y="-26" on="0"/>
        <pt x="974" y="-26" on="1"/>
        <pt x="919" y="-26" on="0"/>
        <pt x="854" y="-6" on="0"/>
        <pt x="822" y="46" on="0"/>
        <pt x="822" y="96" on="1"/>
        <pt x="822" y="142" on="1"/>
        <pt x="776" y="66" on="0"/>
        <pt x="594" y="-23" on="0"/>
        <pt x="501" y="-23" on="1"/>
        <pt x="371" y="-23" on="0"/>
        <pt x="172" y="96" on="0"/>
        <pt x="59" y="349" on="0"/>
        <pt x="59" y="543" on="1"/>
        <pt x="59" y="711" on="0"/>
        <pt x="199" y="996" on="0"/>
        <pt x="482" y="1168" on="0"/>
        <pt x="686" y="1168" on="1"/>
        <pt x="719" y="1168" on="0"/>
        <pt x="773" y="1158" on="1"/>
        <pt x="773" y="1248" on="1"/>
        <pt x="502" y="1248" on="1"/>
        <pt x="502" y="1390" on="1"/>
      </contour>
      <contour>
        <pt x="773" y="979" on="1"/>
        <pt x="761" y="993" on="0"/>
        <pt x="708" y="1011" on="0"/>
        <pt x="676" y="1011" on="1"/>
        <pt x="585" y="1011" on="0"/>
        <pt x="475" y="808" on="0"/>
        <pt x="475" y="567" on="1"/>
        <pt x="475" y="370" on="0"/>
        <pt x="563" y="182" on="0"/>
        <pt x="643" y="182" on="1"/>
        <pt x="728" y="182" on="0"/>
        <pt x="773" y="242" on="1"/>
      </contour>
    </TTGlyph>
    <TTGlyph name="degree" xMin="148" yMin="908" xMax="930" yMax="1677">
      <contour>
        <pt x="148" y="1401" on="0"/>
        <pt x="253" y="1576" on="0"/>
        <pt x="432" y="1677" on="0"/>
        <pt x="538" y="1677" on="1"/>
        <pt x="649" y="1677" on="0"/>
        <pt x="829" y="1573" on="0"/>
        <pt x="930" y="1397" on="0"/>
        <pt x="930" y="1293" on="1"/>
        <pt x="930" y="1185" on="0"/>
        <pt x="825" y="1008" on="0"/>
        <pt x="646" y="908" on="0"/>
        <pt x="538" y="908" on="1"/>
        <pt x="433" y="908" on="0"/>
        <pt x="254" y="1013" on="0"/>
        <pt x="148" y="1190" on="0"/>
        <pt x="148" y="1293" on="1"/>
      </contour>
      <contour>
        <pt x="706" y="1342" on="0"/>
        <pt x="661" y="1427" on="0"/>
        <pt x="583" y="1479" on="0"/>
        <pt x="537" y="1479" on="1"/>
        <pt x="489" y="1479" on="0"/>
        <pt x="412" y="1429" on="0"/>
        <pt x="370" y="1344" on="0"/>
        <pt x="370" y="1293" on="1"/>
        <pt x="370" y="1245" on="0"/>
        <pt x="416" y="1159" on="0"/>
        <pt x="495" y="1107" on="0"/>
        <pt x="540" y="1107" on="1"/>
        <pt x="589" y="1107" on="0"/>
        <pt x="665" y="1155" on="0"/>
        <pt x="706" y="1240" on="0"/>
        <pt x="706" y="1293" on="1"/>
      </contour>
    </TTGlyph>
    <TTGlyph name="dieresis" xMin="57" yMin="1324" xMax="965" yMax="1712">
      <contour>
        <pt x="57" y="1596" on="0"/>
        <pt x="156" y="1712" on="0"/>
        <pt x="253" y="1712" on="1"/>
        <pt x="254" y="1712" on="1"/>
        <pt x="345" y="1712" on="0"/>
        <pt x="437" y="1612" on="0"/>
        <pt x="437" y="1535" on="1"/>
        <pt x="437" y="1440" on="0"/>
        <pt x="329" y="1324" on="0"/>
        <pt x="221" y="1324" on="1"/>
        <pt x="220" y="1324" on="1"/>
        <pt x="173" y="1324" on="0"/>
        <pt x="99" y="1372" on="0"/>
        <pt x="57" y="1454" on="0"/>
        <pt x="57" y="1502" on="1"/>
      </contour>
      <contour>
        <pt x="586" y="1596" on="0"/>
        <pt x="685" y="1712" on="0"/>
        <pt x="782" y="1712" on="1"/>
        <pt x="783" y="1712" on="1"/>
        <pt x="875" y="1712" on="0"/>
        <pt x="965" y="1613" on="0"/>
        <pt x="965" y="1535" on="1"/>
        <pt x="965" y="1440" on="0"/>
        <pt x="857" y="1324" on="0"/>
        <pt x="748" y="1324" on="1"/>
        <pt x="747" y="1324" on="1"/>
        <pt x="702" y="1324" on="0"/>
        <pt x="628" y="1377" on="0"/>
        <pt x="586" y="1460" on="0"/>
        <pt x="586" y="1502" on="1"/>
      </contour>
    </TTGlyph>
    <TTGlyph name="dieresis.cap" xMin="46" yMin="1626" xMax="975" yMax="2001">
      <contour>
        <pt x="46" y="1889" on="0"/>
        <pt x="145" y="2001" on="0"/>
        <pt x="242" y="2001" on="1"/>
        <pt x="243" y="2001" on="1"/>
        <pt x="334" y="2001" on="0"/>
        <pt x="425" y="1905" on="0"/>
        <pt x="425" y="1831" on="1"/>
        <pt x="425" y="1739" on="0"/>
        <pt x="317" y="1626" on="0"/>
        <pt x="208" y="1626" on="1"/>
        <pt x="207" y="1626" on="1"/>
        <pt x="161" y="1626" on="0"/>
        <pt x="87" y="1673" on="0"/>
        <pt x="46" y="1752" on="0"/>
        <pt x="46" y="1798" on="1"/>
      </contour>
      <contour>
        <pt x="595" y="1889" on="0"/>
        <pt x="694" y="2001" on="0"/>
        <pt x="791" y="2001" on="1"/>
        <pt x="792" y="2001" on="1"/>
        <pt x="883" y="2001" on="0"/>
        <pt x="975" y="1905" on="0"/>
        <pt x="975" y="1831" on="1"/>
        <pt x="975" y="1739" on="0"/>
        <pt x="867" y="1626" on="0"/>
        <pt x="758" y="1626" on="1"/>
        <pt x="757" y="1626" on="1"/>
        <pt x="712" y="1626" on="0"/>
        <pt x="637" y="1678" on="0"/>
        <pt x="595" y="1758" on="0"/>
        <pt x="595" y="1798" on="1"/>
      </contour>
    </TTGlyph>
    <TTGlyph name="divide" xMin="200" yMin="5" xMax="1153" yMax="1247">
      <contour>
        <pt x="488" y="1119" on="0"/>
        <pt x="542" y="1201" on="0"/>
        <pt x="636" y="1247" on="0"/>
        <pt x="693" y="1247" on="1"/>
        <pt x="748" y="1247" on="0"/>
        <pt x="831" y="1200" on="0"/>
        <pt x="876" y="1123" on="0"/>
        <pt x="876" y="1078" on="1"/>
        <pt x="876" y="993" on="0"/>
        <pt x="760" y="899" on="0"/>
        <pt x="663" y="899" on="1"/>
        <pt x="618" y="899" on="0"/>
        <pt x="537" y="941" on="0"/>
        <pt x="488" y="1018" on="0"/>
        <pt x="488" y="1066" on="1"/>
      </contour>
      <contour>
        <pt x="1153" y="727" on="1"/>
        <pt x="1153" y="498" on="1"/>
        <pt x="200" y="498" on="1"/>
        <pt x="200" y="727" on="1"/>
      </contour>
      <contour>
        <pt x="743" y="353" on="0"/>
        <pt x="826" y="306" on="0"/>
        <pt x="872" y="228" on="0"/>
        <pt x="872" y="184" on="1"/>
        <pt x="872" y="99" on="0"/>
        <pt x="755" y="5" on="0"/>
        <pt x="657" y="5" on="1"/>
        <pt x="613" y="5" on="0"/>
        <pt x="532" y="48" on="0"/>
        <pt x="482" y="125" on="0"/>
        <pt x="482" y="173" on="1"/>
        <pt x="482" y="225" on="0"/>
        <pt x="537" y="307" on="0"/>
        <pt x="631" y="353" on="0"/>
        <pt x="688" y="353" on="1"/>
      </contour>
    </TTGlyph>
    <TTGlyph name="dollar" xMin="152" yMin="-258" xMax="1259" yMax="1762">
      <contour>
        <pt x="795" y="-258" on="1"/>
        <pt x="598" y="-258" on="1"/>
        <pt x="600" y="-21" on="1"/>
        <pt x="495" y="-15" on="0"/>
        <pt x="318" y="22" on="0"/>
        <pt x="219" y="49" on="1"/>
        <pt x="172" y="62" on="0"/>
        <pt x="152" y="66" on="1"/>
        <pt x="169" y="446" on="1"/>
        <pt x="395" y="446" on="1"/>
        <pt x="452" y="200" on="1"/>
        <pt x="505" y="135" on="0"/>
        <pt x="642" y="135" on="1"/>
        <pt x="757" y="135" on="0"/>
        <pt x="852" y="237" on="0"/>
        <pt x="852" y="326" on="1"/>
        <pt x="852" y="387" on="0"/>
        <pt x="774" y="488" on="0"/>
        <pt x="633" y="578" on="0"/>
        <pt x="516" y="635" on="1"/>
        <pt x="411" y="687" on="0"/>
        <pt x="256" y="809" on="0"/>
        <pt x="155" y="995" on="0"/>
        <pt x="155" y="1123" on="1"/>
        <pt x="155" y="1221" on="0"/>
        <pt x="253" y="1396" on="0"/>
        <pt x="453" y="1518" on="0"/>
        <pt x="599" y="1536" on="1"/>
        <pt x="599" y="1762" on="1"/>
        <pt x="797" y="1762" on="1"/>
        <pt x="797" y="1539" on="1"/>
        <pt x="883" y="1532" on="0"/>
        <pt x="1042" y="1499" on="0"/>
        <pt x="1133" y="1477" on="1"/>
        <pt x="1137" y="1476" on="0"/>
        <pt x="1164" y="1469" on="1"/>
        <pt x="1151" y="1122" on="1"/>
        <pt x="929" y="1122" on="1"/>
        <pt x="885" y="1342" on="1"/>
        <pt x="867" y="1362" on="0"/>
        <pt x="785" y="1392" on="0"/>
        <pt x="740" y="1392" on="1"/>
        <pt x="676" y="1392" on="0"/>
        <pt x="587" y="1342" on="0"/>
        <pt x="544" y="1261" on="0"/>
        <pt x="544" y="1216" on="1"/>
        <pt x="544" y="1149" on="0"/>
        <pt x="633" y="1041" on="0"/>
        <pt x="761" y="961" on="0"/>
        <pt x="867" y="907" on="1"/>
        <pt x="895" y="892" on="1"/>
        <pt x="1001" y="836" on="0"/>
        <pt x="1156" y="720" on="0"/>
        <pt x="1259" y="555" on="0"/>
        <pt x="1259" y="448" on="1"/>
        <pt x="1259" y="343" on="0"/>
        <pt x="1172" y="149" on="0"/>
        <pt x="966" y="5" on="0"/>
        <pt x="797" y="-15" on="1"/>
      </contour>
    </TTGlyph>
    <TTGlyph name="dong" xMin="140" yMin="0" xMax="1329" yMax="1712">
      <contour>
        <pt x="804" y="1416" on="1"/>
        <pt x="804" y="1511" on="1"/>
        <pt x="649" y="1528" on="1"/>
        <pt x="649" y="1676" on="1"/>
        <pt x="1109" y="1712" on="1"/>
        <pt x="1114" y="1712" on="1"/>
        <pt x="1159" y="1681" on="1"/>
        <pt x="1159" y="1416" on="1"/>
        <pt x="1329" y="1416" on="1"/>
        <pt x="1329" y="1271" on="1"/>
        <pt x="1159" y="1271" on="1"/>
        <pt x="1159" y="442" on="1"/>
        <pt x="1281" y="442" on="1"/>
        <pt x="1281" y="309" on="1"/>
        <pt x="1243" y="298" on="0"/>
        <pt x="982" y="271" on="0"/>
        <pt x="922" y="271" on="1"/>
        <pt x="878" y="271" on="0"/>
        <pt x="830" y="290" on="0"/>
        <pt x="811" y="332" on="0"/>
        <pt x="811" y="369" on="1"/>
        <pt x="811" y="398" on="1"/>
        <pt x="759" y="346" on="0"/>
        <pt x="618" y="281" on="0"/>
        <pt x="529" y="281" on="1"/>
        <pt x="419" y="281" on="0"/>
        <pt x="243" y="375" on="0"/>
        <pt x="140" y="565" on="0"/>
        <pt x="140" y="702" on="1"/>
        <pt x="140" y="928" on="0"/>
        <pt x="391" y="1159" on="0"/>
        <pt x="622" y="1159" on="1"/>
        <pt x="701" y="1159" on="0"/>
        <pt x="804" y="1137" on="1"/>
        <pt x="804" y="1271" on="1"/>
        <pt x="507" y="1271" on="1"/>
        <pt x="507" y="1416" on="1"/>
      </contour>
      <contour>
        <pt x="804" y="991" on="1"/>
        <pt x="797" y="1003" on="0"/>
        <pt x="731" y="1024" on="0"/>
        <pt x="689" y="1024" on="1"/>
        <pt x="639" y="1024" on="0"/>
        <pt x="570" y="972" on="0"/>
        <pt x="531" y="836" on="0"/>
        <pt x="531" y="717" on="1"/>
        <pt x="531" y="583" on="0"/>
        <pt x="613" y="450" on="0"/>
        <pt x="680" y="450" on="1"/>
        <pt x="719" y="450" on="0"/>
        <pt x="784" y="491" on="0"/>
        <pt x="804" y="520" on="1"/>
      </contour>
      <contour>
        <pt x="1299" y="158" on="1"/>
        <pt x="1299" y="0" on="1"/>
        <pt x="177" y="0" on="1"/>
        <pt x="177" y="158" on="1"/>
      </contour>
    </TTGlyph>
    <TTGlyph name="dotaccent" xMin="62" yMin="1301" xMax="498" yMax="1707">
      <contour>
        <pt x="62" y="1548" on="0"/>
        <pt x="116" y="1649" on="0"/>
        <pt x="218" y="1707" on="0"/>
        <pt x="286" y="1707" on="1"/>
        <pt x="287" y="1707" on="1"/>
        <pt x="354" y="1707" on="0"/>
        <pt x="449" y="1658" on="0"/>
        <pt x="498" y="1573" on="0"/>
        <pt x="498" y="1520" on="1"/>
        <pt x="498" y="1457" on="0"/>
        <pt x="445" y="1358" on="0"/>
        <pt x="340" y="1301" on="0"/>
        <pt x="264" y="1301" on="1"/>
        <pt x="263" y="1301" on="1"/>
        <pt x="205" y="1301" on="0"/>
        <pt x="114" y="1349" on="0"/>
        <pt x="62" y="1434" on="0"/>
        <pt x="62" y="1486" on="1"/>
      </contour>
    </TTGlyph>
    <TTGlyph name="dotaccent.cap" xMin="84" yMin="1638" xMax="501" yMax="2001">
      <contour>
        <pt x="84" y="1898" on="0"/>
        <pt x="194" y="2001" on="0"/>
        <pt x="295" y="2001" on="1"/>
        <pt x="296" y="2001" on="1"/>
        <pt x="392" y="2001" on="0"/>
        <pt x="501" y="1909" on="0"/>
        <pt x="501" y="1834" on="1"/>
        <pt x="501" y="1741" on="0"/>
        <pt x="389" y="1638" on="0"/>
        <pt x="276" y="1638" on="1"/>
        <pt x="275" y="1638" on="1"/>
        <pt x="220" y="1638" on="0"/>
        <pt x="133" y="1682" on="0"/>
        <pt x="84" y="1759" on="0"/>
        <pt x="84" y="1807" on="1"/>
      </contour>
    </TTGlyph>
    <TTGlyph name="dotlessi" xMin="62" yMin="0" xMax="697" yMax="1167">
      <contour>
        <pt x="193" y="172" on="1"/>
        <pt x="193" y="895" on="1"/>
        <pt x="62" y="935" on="1"/>
        <pt x="62" y="1112" on="1"/>
        <pt x="518" y="1167" on="1"/>
        <pt x="523" y="1167" on="1"/>
        <pt x="591" y="1120" on="1"/>
        <pt x="591" y="172" on="1"/>
        <pt x="697" y="152" on="1"/>
        <pt x="697" y="0" on="1"/>
        <pt x="81" y="0" on="1"/>
        <pt x="81" y="152" on="1"/>
      </contour>
    </TTGlyph>
    <TTGlyph name="e" xMin="53" yMin="-23" xMax="1091" yMax="1167">
      <contour>
        <pt x="53" y="759" on="0"/>
        <pt x="192" y="1028" on="0"/>
        <pt x="450" y="1167" on="0"/>
        <pt x="626" y="1167" on="1"/>
        <pt x="852" y="1167" on="0"/>
        <pt x="1088" y="947" on="0"/>
        <pt x="1091" y="747" on="1"/>
        <pt x="1091" y="622" on="0"/>
        <pt x="1072" y="527" on="1"/>
        <pt x="460" y="527" on="1"/>
        <pt x="475" y="366" on="0"/>
        <pt x="607" y="215" on="0"/>
        <pt x="729" y="215" on="1"/>
        <pt x="799" y="215" on="0"/>
        <pt x="956" y="263" on="0"/>
        <pt x="1013" y="293" on="1"/>
        <pt x="1079" y="152" on="1"/>
        <pt x="1048" y="117" on="0"/>
        <pt x="906" y="35" on="0"/>
        <pt x="718" y="-23" on="0"/>
        <pt x="622" y="-23" on="1"/>
        <pt x="325" y="-23" on="0"/>
        <pt x="53" y="291" on="0"/>
        <pt x="53" y="567" on="1"/>
      </contour>
      <contour>
        <pt x="715" y="676" on="1"/>
        <pt x="716" y="760" on="1"/>
        <pt x="716" y="886" on="0"/>
        <pt x="666" y="1011" on="0"/>
        <pt x="601" y="1011" on="1"/>
        <pt x="554" y="1011" on="0"/>
        <pt x="493" y="960" on="0"/>
        <pt x="457" y="814" on="0"/>
        <pt x="456" y="676" on="1"/>
      </contour>
    </TTGlyph>
    <TTGlyph name="eacute" xMin="53" yMin="-23" xMax="1091" yMax="1855">
      <component glyphName="acute" x="255" y="0" flags="0x0"/>
      <component glyphName="e" x="0" y="0" flags="0x0"/>
    </TTGlyph>
    <TTGlyph name="ebreve" xMin="53" yMin="-23" xMax="1091" yMax="1773">
      <component glyphName="e" x="0" y="0" flags="0x0"/>
      <component glyphName="breve" x="85" y="0" flags="0x0"/>
    </TTGlyph>
    <TTGlyph name="ecaron" xMin="53" yMin="-23" xMax="1091" yMax="1804">
      <component glyphName="caron" x="86" y="0" flags="0x0"/>
      <component glyphName="e" x="0" y="0" flags="0x0"/>
    </TTGlyph>
    <TTGlyph name="ecircumflex" xMin="53" yMin="-23" xMax="1091" yMax="1801">
      <component glyphName="circumflex" x="85" y="0" flags="0x0"/>
      <component glyphName="e" x="0" y="0" flags="0x0"/>
    </TTGlyph>
    <TTGlyph name="edieresis" xMin="53" yMin="-23" xMax="1091" yMax="1712">
      <component glyphName="dieresis" x="89" y="0" flags="0x0"/>
      <component glyphName="e" x="0" y="0" flags="0x0"/>
    </TTGlyph>
    <TTGlyph name="edotaccent" xMin="53" yMin="-23" xMax="1091" yMax="1707">
      <component glyphName="e" x="0" y="0" flags="0x0"/>
      <component glyphName="dotaccent" x="304" y="0" flags="0x0"/>
    </TTGlyph>
    <TTGlyph name="egrave" xMin="53" yMin="-23" xMax="1091" yMax="1855">
      <component glyphName="e" x="0" y="0" flags="0x0"/>
      <component glyphName="grave" x="255" y="0" flags="0x0"/>
    </TTGlyph>
    <TTGlyph name="eight" xMin="78" yMin="-25" xMax="1263" yMax="1544">
      <contour>
        <pt x="267" y="804" on="0"/>
        <pt x="145" y="996" on="0"/>
        <pt x="145" y="1132" on="1"/>
        <pt x="145" y="1259" on="0"/>
        <pt x="284" y="1446" on="0"/>
        <pt x="527" y="1544" on="0"/>
        <pt x="680" y="1544" on="1"/>
        <pt x="840" y="1544" on="0"/>
        <pt x="1062" y="1453" on="0"/>
        <pt x="1174" y="1297" on="0"/>
        <pt x="1174" y="1199" on="1"/>
        <pt x="1174" y="1090" on="0"/>
        <pt x="1042" y="919" on="0"/>
        <pt x="912" y="866" on="1"/>
        <pt x="1017" y="806" on="0"/>
        <pt x="1168" y="682" on="0"/>
        <pt x="1263" y="510" on="0"/>
        <pt x="1263" y="399" on="1"/>
        <pt x="1263" y="269" on="0"/>
        <pt x="1114" y="78" on="0"/>
        <pt x="838" y="-25" on="0"/>
        <pt x="651" y="-25" on="1"/>
        <pt x="494" y="-25" on="0"/>
        <pt x="235" y="57" on="0"/>
        <pt x="78" y="234" on="0"/>
        <pt x="78" y="370" on="1"/>
        <pt x="78" y="485" on="0"/>
        <pt x="231" y="674" on="0"/>
        <pt x="374" y="730" on="1"/>
      </contour>
      <contour>
        <pt x="832" y="981" on="0"/>
        <pt x="889" y="1097" on="0"/>
        <pt x="889" y="1155" on="1"/>
        <pt x="889" y="1273" on="0"/>
        <pt x="786" y="1396" on="0"/>
        <pt x="683" y="1396" on="1"/>
        <pt x="634" y="1396" on="0"/>
        <pt x="550" y="1357" on="0"/>
        <pt x="498" y="1279" on="0"/>
        <pt x="498" y="1223" on="1"/>
        <pt x="498" y="1163" on="0"/>
        <pt x="572" y="1066" on="0"/>
        <pt x="687" y="987" on="0"/>
        <pt x="782" y="936" on="1"/>
      </contour>
      <contour>
        <pt x="444" y="616" on="0"/>
        <pt x="392" y="497" on="0"/>
        <pt x="392" y="426" on="1"/>
        <pt x="392" y="341" on="0"/>
        <pt x="452" y="208" on="0"/>
        <pt x="570" y="132" on="0"/>
        <pt x="653" y="132" on="1"/>
        <pt x="708" y="132" on="0"/>
        <pt x="805" y="180" on="0"/>
        <pt x="864" y="270" on="0"/>
        <pt x="864" y="331" on="1"/>
        <pt x="864" y="393" on="0"/>
        <pt x="788" y="490" on="0"/>
        <pt x="673" y="563" on="0"/>
        <pt x="574" y="615" on="1"/>
        <pt x="491" y="659" on="1"/>
      </contour>
    </TTGlyph>
    <TTGlyph name="eight.dnom" xMin="92" yMin="-15" xMax="1018" yMax="1108">
      <contour>
        <pt x="92" y="378" on="0"/>
        <pt x="195" y="498" on="0"/>
        <pt x="283" y="529" on="1"/>
        <pt x="213" y="580" on="0"/>
        <pt x="134" y="714" on="0"/>
        <pt x="134" y="807" on="1"/>
        <pt x="134" y="893" on="0"/>
        <pt x="245" y="1030" on="0"/>
        <pt x="439" y="1108" on="0"/>
        <pt x="559" y="1108" on="1"/>
        <pt x="695" y="1108" on="0"/>
        <pt x="868" y="1031" on="0"/>
        <pt x="946" y="908" on="0"/>
        <pt x="946" y="836" on="1"/>
        <pt x="946" y="766" on="0"/>
        <pt x="860" y="641" on="0"/>
        <pt x="778" y="606" on="1"/>
        <pt x="891" y="550" on="0"/>
        <pt x="1018" y="417" on="0"/>
        <pt x="1018" y="317" on="1"/>
        <pt x="1018" y="219" on="0"/>
        <pt x="898" y="68" on="0"/>
        <pt x="685" y="-15" on="0"/>
        <pt x="549" y="-15" on="1"/>
        <pt x="429" y="-15" on="0"/>
        <pt x="220" y="55" on="0"/>
        <pt x="92" y="193" on="0"/>
        <pt x="92" y="291" on="1"/>
      </contour>
      <contour>
        <pt x="705" y="690" on="0"/>
        <pt x="735" y="785" on="0"/>
        <pt x="735" y="832" on="1"/>
        <pt x="735" y="875" on="0"/>
        <pt x="693" y="944" on="0"/>
        <pt x="614" y="985" on="0"/>
        <pt x="562" y="985" on="1"/>
        <pt x="494" y="985" on="0"/>
        <pt x="413" y="925" on="0"/>
        <pt x="413" y="874" on="1"/>
        <pt x="413" y="825" on="0"/>
        <pt x="479" y="750" on="0"/>
        <pt x="580" y="694" on="0"/>
        <pt x="664" y="657" on="1"/>
      </contour>
      <contour>
        <pt x="357" y="443" on="0"/>
        <pt x="330" y="368" on="0"/>
        <pt x="330" y="326" on="1"/>
        <pt x="330" y="267" on="0"/>
        <pt x="379" y="172" on="0"/>
        <pt x="473" y="117" on="0"/>
        <pt x="538" y="117" on="1"/>
        <pt x="605" y="117" on="0"/>
        <pt x="701" y="185" on="0"/>
        <pt x="701" y="239" on="1"/>
        <pt x="701" y="280" on="0"/>
        <pt x="645" y="343" on="0"/>
        <pt x="559" y="389" on="0"/>
        <pt x="483" y="423" on="1"/>
        <pt x="406" y="458" on="0"/>
        <pt x="382" y="470" on="1"/>
      </contour>
    </TTGlyph>
    <TTGlyph name="ellipsis" xMin="121" yMin="-14" xMax="1918" yMax="380">
      <contour>
        <pt x="121" y="236" on="0"/>
        <pt x="182" y="329" on="0"/>
        <pt x="288" y="380" on="0"/>
        <pt x="352" y="380" on="1"/>
        <pt x="413" y="380" on="0"/>
        <pt x="507" y="326" on="0"/>
        <pt x="558" y="239" on="0"/>
        <pt x="558" y="189" on="1"/>
        <pt x="558" y="93" on="0"/>
        <pt x="427" y="-14" on="0"/>
        <pt x="318" y="-14" on="1"/>
        <pt x="268" y="-14" on="0"/>
        <pt x="177" y="35" on="0"/>
        <pt x="121" y="122" on="0"/>
        <pt x="121" y="176" on="1"/>
      </contour>
      <contour>
        <pt x="801" y="236" on="0"/>
        <pt x="862" y="329" on="0"/>
        <pt x="968" y="380" on="0"/>
        <pt x="1032" y="380" on="1"/>
        <pt x="1093" y="380" on="0"/>
        <pt x="1187" y="326" on="0"/>
        <pt x="1238" y="239" on="0"/>
        <pt x="1238" y="189" on="1"/>
        <pt x="1238" y="93" on="0"/>
        <pt x="1107" y="-14" on="0"/>
        <pt x="998" y="-14" on="1"/>
        <pt x="948" y="-14" on="0"/>
        <pt x="857" y="35" on="0"/>
        <pt x="801" y="122" on="0"/>
        <pt x="801" y="176" on="1"/>
      </contour>
      <contour>
        <pt x="1481" y="236" on="0"/>
        <pt x="1542" y="329" on="0"/>
        <pt x="1648" y="380" on="0"/>
        <pt x="1712" y="380" on="1"/>
        <pt x="1773" y="380" on="0"/>
        <pt x="1867" y="326" on="0"/>
        <pt x="1918" y="239" on="0"/>
        <pt x="1918" y="189" on="1"/>
        <pt x="1918" y="93" on="0"/>
        <pt x="1787" y="-14" on="0"/>
        <pt x="1678" y="-14" on="1"/>
        <pt x="1628" y="-14" on="0"/>
        <pt x="1537" y="35" on="0"/>
        <pt x="1481" y="122" on="0"/>
        <pt x="1481" y="176" on="1"/>
      </contour>
    </TTGlyph>
    <TTGlyph name="emacron" xMin="53" yMin="-23" xMax="1091" yMax="1634">
      <component glyphName="e" x="0" y="0" flags="0x0"/>
      <component glyphName="macron" x="255" y="0" flags="0x0"/>
    </TTGlyph>
    <TTGlyph name="emdash" xMin="230" yMin="490" xMax="2288" yMax="741">
      <contour>
        <pt x="2288" y="741" on="1"/>
        <pt x="2288" y="490" on="1"/>
        <pt x="230" y="490" on="1"/>
        <pt x="230" y="741" on="1"/>
      </contour>
    </TTGlyph>
    <TTGlyph name="endash" xMin="230" yMin="490" xMax="1450" yMax="741">
      <contour>
        <pt x="1450" y="741" on="1"/>
        <pt x="1450" y="490" on="1"/>
        <pt x="230" y="490" on="1"/>
        <pt x="230" y="741" on="1"/>
      </contour>
    </TTGlyph>
    <TTGlyph name="eng" xMin="87" yMin="-546" xMax="1299" yMax="1169">
      <contour>
        <pt x="196" y="172" on="1"/>
        <pt x="196" y="897" on="1"/>
        <pt x="87" y="936" on="1"/>
        <pt x="87" y="1120" on="1"/>
        <pt x="501" y="1169" on="1"/>
        <pt x="506" y="1169" on="1"/>
        <pt x="565" y="1121" on="1"/>
        <pt x="565" y="1058" on="1"/>
        <pt x="564" y="1005" on="1"/>
        <pt x="636" y="1074" on="0"/>
        <pt x="845" y="1163" on="0"/>
        <pt x="968" y="1163" on="1"/>
        <pt x="1087" y="1163" on="0"/>
        <pt x="1231" y="1077" on="0"/>
        <pt x="1299" y="888" on="0"/>
        <pt x="1299" y="729" on="1"/>
        <pt x="1299" y="22" on="1"/>
        <pt x="1299" y="-150" on="0"/>
        <pt x="1186" y="-403" on="0"/>
        <pt x="959" y="-543" on="0"/>
        <pt x="792" y="-545" on="1"/>
        <pt x="773" y="-546" on="0"/>
        <pt x="689" y="-542" on="0"/>
        <pt x="682" y="-537" on="1"/>
        <pt x="672" y="-381" on="1"/>
        <pt x="689" y="-383" on="0"/>
        <pt x="761" y="-369" on="0"/>
        <pt x="780" y="-359" on="1"/>
        <pt x="833" y="-334" on="0"/>
        <pt x="881" y="-221" on="0"/>
        <pt x="892" y="-80" on="0"/>
        <pt x="892" y="46" on="1"/>
        <pt x="892" y="729" on="1"/>
        <pt x="892" y="811" on="0"/>
        <pt x="867" y="903" on="0"/>
        <pt x="812" y="944" on="0"/>
        <pt x="763" y="944" on="1"/>
        <pt x="683" y="944" on="0"/>
        <pt x="602" y="875" on="1"/>
        <pt x="602" y="172" on="1"/>
        <pt x="701" y="151" on="1"/>
        <pt x="701" y="0" on="1"/>
        <pt x="94" y="0" on="1"/>
        <pt x="94" y="152" on="1"/>
      </contour>
    </TTGlyph>
    <TTGlyph name="eogonek" xMin="57" yMin="-515" xMax="1095" yMax="1167">
      <contour>
        <pt x="57" y="759" on="0"/>
        <pt x="196" y="1028" on="0"/>
        <pt x="454" y="1167" on="0"/>
        <pt x="630" y="1167" on="1"/>
        <pt x="856" y="1167" on="0"/>
        <pt x="1092" y="947" on="0"/>
        <pt x="1095" y="747" on="1"/>
        <pt x="1095" y="622" on="0"/>
        <pt x="1076" y="527" on="1"/>
        <pt x="464" y="527" on="1"/>
        <pt x="479" y="366" on="0"/>
        <pt x="611" y="215" on="0"/>
        <pt x="733" y="215" on="1"/>
        <pt x="803" y="215" on="0"/>
        <pt x="960" y="263" on="0"/>
        <pt x="1017" y="293" on="1"/>
        <pt x="1083" y="152" on="1"/>
        <pt x="1057" y="122" on="0"/>
        <pt x="1002" y="89" on="1"/>
        <pt x="1003" y="90" on="0"/>
        <pt x="983" y="73" on="1"/>
        <pt x="905" y="10" on="0"/>
        <pt x="831" y="-61" on="0"/>
        <pt x="788" y="-145" on="0"/>
        <pt x="788" y="-201" on="1"/>
        <pt x="788" y="-248" on="0"/>
        <pt x="855" y="-307" on="0"/>
        <pt x="914" y="-307" on="1"/>
        <pt x="950" y="-307" on="0"/>
        <pt x="989" y="-299" on="0"/>
        <pt x="1023" y="-285" on="1"/>
        <pt x="1023" y="-449" on="1"/>
        <pt x="982" y="-479" on="0"/>
        <pt x="831" y="-515" on="0"/>
        <pt x="764" y="-515" on="1"/>
        <pt x="686" y="-515" on="0"/>
        <pt x="557" y="-469" on="0"/>
        <pt x="480" y="-373" on="0"/>
        <pt x="480" y="-302" on="1"/>
        <pt x="480" y="-221" on="0"/>
        <pt x="622" y="-66" on="0"/>
        <pt x="720" y="-15" on="1"/>
        <pt x="670" y="-23" on="0"/>
        <pt x="626" y="-23" on="1"/>
        <pt x="329" y="-23" on="0"/>
        <pt x="57" y="291" on="0"/>
        <pt x="57" y="567" on="1"/>
      </contour>
      <contour>
        <pt x="719" y="676" on="1"/>
        <pt x="720" y="760" on="1"/>
        <pt x="720" y="886" on="0"/>
        <pt x="670" y="1011" on="0"/>
        <pt x="605" y="1011" on="1"/>
        <pt x="558" y="1011" on="0"/>
        <pt x="497" y="960" on="0"/>
        <pt x="461" y="814" on="0"/>
        <pt x="460" y="676" on="1"/>
      </contour>
    </TTGlyph>
    <TTGlyph name="equal" xMin="198" yMin="226" xMax="1148" yMax="1005">
      <contour>
        <pt x="1148" y="1005" on="1"/>
        <pt x="1148" y="776" on="1"/>
        <pt x="198" y="776" on="1"/>
        <pt x="198" y="1005" on="1"/>
      </contour>
      <contour>
        <pt x="1148" y="455" on="1"/>
        <pt x="1148" y="226" on="1"/>
        <pt x="198" y="226" on="1"/>
        <pt x="198" y="455" on="1"/>
      </contour>
    </TTGlyph>
    <TTGlyph name="estimated" xMin="95" yMin="-36" xMax="1319" yMax="1376">
      <contour>
        <pt x="95" y="876" on="0"/>
        <pt x="249" y="1194" on="0"/>
        <pt x="550" y="1375" on="0"/>
        <pt x="763" y="1376" on="1"/>
        <pt x="927" y="1376" on="0"/>
        <pt x="1173" y="1248" on="0"/>
        <pt x="1313" y="1004" on="0"/>
        <pt x="1319" y="837" on="1"/>
        <pt x="1319" y="752" on="0"/>
        <pt x="1315" y="660" on="0"/>
        <pt x="1306" y="625" on="1"/>
        <pt x="508" y="626" on="1"/>
        <pt x="508" y="273" on="1"/>
        <pt x="596" y="140" on="0"/>
        <pt x="771" y="140" on="1"/>
        <pt x="909" y="140" on="0"/>
        <pt x="1085" y="198" on="0"/>
        <pt x="1151" y="243" on="1"/>
        <pt x="1226" y="94" on="1"/>
        <pt x="1150" y="39" on="0"/>
        <pt x="916" y="-36" on="0"/>
        <pt x="769" y="-36" on="1"/>
        <pt x="566" y="-36" on="0"/>
        <pt x="261" y="144" on="0"/>
        <pt x="95" y="465" on="0"/>
        <pt x="95" y="671" on="1"/>
      </contour>
      <contour>
        <pt x="508" y="759" on="1"/>
        <pt x="930" y="759" on="1"/>
        <pt x="930" y="1166" on="1"/>
        <pt x="876" y="1228" on="0"/>
        <pt x="763" y="1228" on="1"/>
        <pt x="674" y="1228" on="0"/>
        <pt x="551" y="1187" on="0"/>
        <pt x="508" y="1128" on="1"/>
      </contour>
    </TTGlyph>
    <TTGlyph name="eth" xMin="60" yMin="-23" xMax="1208" yMax="1904">
      <contour>
        <pt x="387" y="1565" on="1"/>
        <pt x="326" y="1602" on="0"/>
        <pt x="216" y="1655" on="0"/>
        <pt x="182" y="1663" on="1"/>
        <pt x="248" y="1821" on="1"/>
        <pt x="317" y="1807" on="0"/>
        <pt x="445" y="1769" on="0"/>
        <pt x="521" y="1734" on="1"/>
        <pt x="567" y="1795" on="0"/>
        <pt x="636" y="1889" on="0"/>
        <pt x="647" y="1904" on="1"/>
        <pt x="794" y="1792" on="1"/>
        <pt x="784" y="1779" on="0"/>
        <pt x="721" y="1698" on="0"/>
        <pt x="678" y="1644" on="1"/>
        <pt x="825" y="1544" on="0"/>
        <pt x="1063" y="1268" on="0"/>
        <pt x="1208" y="902" on="0"/>
        <pt x="1208" y="685" on="1"/>
        <pt x="1208" y="501" on="0"/>
        <pt x="1097" y="182" on="0"/>
        <pt x="834" y="-23" on="0"/>
        <pt x="619" y="-23" on="1"/>
        <pt x="443" y="-23" on="0"/>
        <pt x="191" y="119" on="0"/>
        <pt x="60" y="380" on="0"/>
        <pt x="60" y="554" on="1"/>
        <pt x="60" y="756" on="0"/>
        <pt x="210" y="1033" on="0"/>
        <pt x="450" y="1168" on="0"/>
        <pt x="586" y="1168" on="1"/>
        <pt x="689" y="1168" on="0"/>
        <pt x="761" y="1139" on="1"/>
        <pt x="738" y="1240" on="0"/>
        <pt x="621" y="1398" on="0"/>
        <pt x="531" y="1462" on="1"/>
        <pt x="406" y="1289" on="1"/>
        <pt x="252" y="1393" on="1"/>
      </contour>
      <contour>
        <pt x="798" y="728" on="0"/>
        <pt x="775" y="925" on="0"/>
        <pt x="762" y="968" on="1"/>
        <pt x="745" y="984" on="0"/>
        <pt x="681" y="1013" on="0"/>
        <pt x="637" y="1013" on="1"/>
        <pt x="587" y="1013" on="0"/>
        <pt x="521" y="933" on="0"/>
        <pt x="487" y="751" on="0"/>
        <pt x="487" y="598" on="1"/>
        <pt x="487" y="403" on="0"/>
        <pt x="561" y="140" on="0"/>
        <pt x="639" y="140" on="1"/>
        <pt x="690" y="140" on="0"/>
        <pt x="760" y="229" on="0"/>
        <pt x="798" y="442" on="0"/>
        <pt x="798" y="624" on="1"/>
      </contour>
    </TTGlyph>
    <TTGlyph name="exclam" xMin="126" yMin="-14" xMax="586" yMax="1806">
      <contour>
        <pt x="579" y="1806" on="1"/>
        <pt x="486" y="549" on="1"/>
        <pt x="230" y="549" on="1"/>
        <pt x="126" y="1806" on="1"/>
      </contour>
      <contour>
        <pt x="442" y="378" on="0"/>
        <pt x="535" y="325" on="0"/>
        <pt x="586" y="237" on="0"/>
        <pt x="586" y="188" on="1"/>
        <pt x="586" y="92" on="0"/>
        <pt x="456" y="-14" on="0"/>
        <pt x="347" y="-14" on="1"/>
        <pt x="297" y="-14" on="0"/>
        <pt x="207" y="35" on="0"/>
        <pt x="151" y="121" on="0"/>
        <pt x="151" y="175" on="1"/>
        <pt x="151" y="234" on="0"/>
        <pt x="212" y="327" on="0"/>
        <pt x="317" y="378" on="0"/>
        <pt x="381" y="378" on="1"/>
      </contour>
    </TTGlyph>
    <TTGlyph name="exclamdbl" xMin="126" yMin="-14" xMax="1242" yMax="1806">
      <component glyphName="exclam" x="656" y="0" flags="0x0"/>
      <component glyphName="exclam" x="0" y="0" flags="0x0"/>
    </TTGlyph>
    <TTGlyph name="exclamdown" xMin="129" yMin="-390" xMax="589" yMax="1430">
      <contour>
        <pt x="273" y="1038" on="0"/>
        <pt x="180" y="1091" on="0"/>
        <pt x="129" y="1179" on="0"/>
        <pt x="129" y="1228" on="1"/>
        <pt x="129" y="1324" on="0"/>
        <pt x="259" y="1430" on="0"/>
        <pt x="368" y="1430" on="1"/>
        <pt x="418" y="1430" on="0"/>
        <pt x="508" y="1381" on="0"/>
        <pt x="564" y="1295" on="0"/>
        <pt x="564" y="1241" on="1"/>
        <pt x="564" y="1182" on="0"/>
        <pt x="503" y="1089" on="0"/>
        <pt x="398" y="1038" on="0"/>
        <pt x="334" y="1038" on="1"/>
      </contour>
      <contour>
        <pt x="136" y="-390" on="1"/>
        <pt x="229" y="867" on="1"/>
        <pt x="485" y="867" on="1"/>
        <pt x="589" y="-390" on="1"/>
      </contour>
    </TTGlyph>
    <TTGlyph name="f" xMin="56" yMin="0" xMax="922" yMax="1725">
      <contour>
        <pt x="202" y="173" on="1"/>
        <pt x="202" y="950" on="1"/>
        <pt x="59" y="950" on="1"/>
        <pt x="59" y="1091" on="1"/>
        <pt x="202" y="1134" on="1"/>
        <pt x="202" y="1216" on="1"/>
        <pt x="202" y="1358" on="0"/>
        <pt x="357" y="1591" on="0"/>
        <pt x="620" y="1725" on="0"/>
        <pt x="776" y="1725" on="1"/>
        <pt x="830" y="1725" on="0"/>
        <pt x="894" y="1711" on="0"/>
        <pt x="922" y="1702" on="1"/>
        <pt x="922" y="1357" on="1"/>
        <pt x="907" y="1375" on="0"/>
        <pt x="832" y="1415" on="0"/>
        <pt x="737" y="1442" on="0"/>
        <pt x="695" y="1442" on="1"/>
        <pt x="639" y="1442" on="0"/>
        <pt x="595" y="1389" on="0"/>
        <pt x="595" y="1329" on="1"/>
        <pt x="595" y="1137" on="1"/>
        <pt x="826" y="1137" on="1"/>
        <pt x="826" y="950" on="1"/>
        <pt x="595" y="950" on="1"/>
        <pt x="595" y="172" on="1"/>
        <pt x="794" y="151" on="1"/>
        <pt x="794" y="0" on="1"/>
        <pt x="56" y="0" on="1"/>
        <pt x="56" y="151" on="1"/>
      </contour>
    </TTGlyph>
    <TTGlyph name="f_f" xMin="56" yMin="0" xMax="1781" yMax="1725">
      <component glyphName="f" x="0" y="0" flags="0x0"/>
      <component glyphName="f" x="859" y="0" flags="0x0"/>
    </TTGlyph>
    <TTGlyph name="f_f_i" xMin="56" yMin="0" xMax="2415" yMax="1725">
      <component glyphName="f" x="0" y="0" flags="0x0"/>
      <component glyphName="f" x="859" y="0" flags="0x0"/>
      <component glyphName="dotlessi" x="1718" y="0" flags="0x0"/>
      <component glyphName="dotaccent" x="1794" y="0" flags="0x0"/>
    </TTGlyph>
    <TTGlyph name="f_f_l" xMin="56" yMin="0" xMax="2389" yMax="1725">
      <contour>
        <pt x="595" y="1137" on="1"/>
        <pt x="826" y="1137" on="1"/>
        <pt x="826" y="950" on="1"/>
        <pt x="595" y="950" on="1"/>
        <pt x="595" y="172" on="1"/>
        <pt x="794" y="151" on="1"/>
        <pt x="794" y="0" on="1"/>
        <pt x="56" y="0" on="1"/>
        <pt x="56" y="151" on="1"/>
        <pt x="202" y="173" on="1"/>
        <pt x="202" y="950" on="1"/>
        <pt x="59" y="950" on="1"/>
        <pt x="59" y="1091" on="1"/>
        <pt x="202" y="1134" on="1"/>
        <pt x="202" y="1216" on="1"/>
        <pt x="202" y="1358" on="0"/>
        <pt x="357" y="1591" on="0"/>
        <pt x="620" y="1725" on="0"/>
        <pt x="776" y="1725" on="1"/>
        <pt x="830" y="1725" on="0"/>
        <pt x="894" y="1711" on="0"/>
        <pt x="922" y="1702" on="1"/>
        <pt x="922" y="1357" on="1"/>
        <pt x="907" y="1375" on="0"/>
        <pt x="832" y="1415" on="0"/>
        <pt x="737" y="1442" on="0"/>
        <pt x="695" y="1442" on="1"/>
        <pt x="639" y="1442" on="0"/>
        <pt x="595" y="1389" on="0"/>
        <pt x="595" y="1329" on="1"/>
      </contour>
      <contour>
        <pt x="2389" y="152" on="1"/>
        <pt x="2389" y="0" on="1"/>
        <pt x="1774" y="0" on="1"/>
        <pt x="1774" y="152" on="1"/>
        <pt x="1885" y="173" on="1"/>
        <pt x="1885" y="1455" on="1"/>
        <pt x="1781" y="1478" on="1"/>
        <pt x="1781" y="1357" on="1"/>
        <pt x="1766" y="1375" on="0"/>
        <pt x="1691" y="1415" on="0"/>
        <pt x="1596" y="1442" on="0"/>
        <pt x="1554" y="1442" on="1"/>
        <pt x="1498" y="1442" on="0"/>
        <pt x="1454" y="1389" on="0"/>
        <pt x="1454" y="1329" on="1"/>
        <pt x="1454" y="1137" on="1"/>
        <pt x="1685" y="1137" on="1"/>
        <pt x="1685" y="950" on="1"/>
        <pt x="1454" y="950" on="1"/>
        <pt x="1454" y="172" on="1"/>
        <pt x="1653" y="151" on="1"/>
        <pt x="1653" y="0" on="1"/>
        <pt x="915" y="0" on="1"/>
        <pt x="915" y="151" on="1"/>
        <pt x="1061" y="173" on="1"/>
        <pt x="1061" y="950" on="1"/>
        <pt x="918" y="950" on="1"/>
        <pt x="918" y="1091" on="1"/>
        <pt x="1061" y="1134" on="1"/>
        <pt x="1061" y="1216" on="1"/>
        <pt x="1061" y="1358" on="0"/>
        <pt x="1216" y="1591" on="0"/>
        <pt x="1479" y="1725" on="0"/>
        <pt x="1635" y="1725" on="1"/>
        <pt x="1689" y="1725" on="0"/>
        <pt x="1753" y="1711" on="0"/>
        <pt x="1781" y="1702" on="1"/>
        <pt x="1781" y="1630" on="1"/>
        <pt x="2204" y="1680" on="1"/>
        <pt x="2210" y="1680" on="1"/>
        <pt x="2278" y="1630" on="1"/>
        <pt x="2278" y="173" on="1"/>
      </contour>
    </TTGlyph>
    <TTGlyph name="fi" xMin="56" yMin="0" xMax="1556" yMax="1725">
      <contour>
        <pt x="202" y="173" on="1"/>
        <pt x="202" y="950" on="1"/>
        <pt x="59" y="950" on="1"/>
        <pt x="59" y="1091" on="1"/>
        <pt x="202" y="1134" on="1"/>
        <pt x="202" y="1197" on="1"/>
        <pt x="202" y="1333" on="0"/>
        <pt x="353" y="1577" on="0"/>
        <pt x="609" y="1725" on="0"/>
        <pt x="758" y="1725" on="1"/>
        <pt x="803" y="1725" on="0"/>
        <pt x="866" y="1710" on="0"/>
        <pt x="883" y="1702" on="1"/>
        <pt x="883" y="1351" on="1"/>
        <pt x="870" y="1369" on="0"/>
        <pt x="805" y="1412" on="0"/>
        <pt x="726" y="1442" on="0"/>
        <pt x="691" y="1442" on="1"/>
        <pt x="639" y="1442" on="0"/>
        <pt x="596" y="1389" on="0"/>
        <pt x="596" y="1330" on="1"/>
        <pt x="596" y="1137" on="1"/>
        <pt x="835" y="1137" on="1"/>
        <pt x="835" y="950" on="1"/>
        <pt x="596" y="950" on="1"/>
        <pt x="596" y="172" on="1"/>
        <pt x="795" y="151" on="1"/>
        <pt x="795" y="0" on="1"/>
        <pt x="56" y="0" on="1"/>
        <pt x="56" y="151" on="1"/>
      </contour>
      <contour>
        <pt x="1035" y="1548" on="0"/>
        <pt x="1089" y="1649" on="0"/>
        <pt x="1191" y="1707" on="0"/>
        <pt x="1259" y="1707" on="1"/>
        <pt x="1260" y="1707" on="1"/>
        <pt x="1327" y="1707" on="0"/>
        <pt x="1422" y="1658" on="0"/>
        <pt x="1471" y="1573" on="0"/>
        <pt x="1471" y="1520" on="1"/>
        <pt x="1471" y="1457" on="0"/>
        <pt x="1418" y="1358" on="0"/>
        <pt x="1313" y="1301" on="0"/>
        <pt x="1237" y="1301" on="1"/>
        <pt x="1236" y="1301" on="1"/>
        <pt x="1178" y="1301" on="0"/>
        <pt x="1087" y="1349" on="0"/>
        <pt x="1035" y="1434" on="0"/>
        <pt x="1035" y="1486" on="1"/>
      </contour>
      <contour>
        <pt x="1052" y="172" on="1"/>
        <pt x="1052" y="895" on="1"/>
        <pt x="921" y="935" on="1"/>
        <pt x="921" y="1112" on="1"/>
        <pt x="1377" y="1167" on="1"/>
        <pt x="1382" y="1167" on="1"/>
        <pt x="1450" y="1120" on="1"/>
        <pt x="1450" y="172" on="1"/>
        <pt x="1556" y="152" on="1"/>
        <pt x="1556" y="0" on="1"/>
        <pt x="940" y="0" on="1"/>
        <pt x="940" y="152" on="1"/>
      </contour>
    </TTGlyph>
    <TTGlyph name="five" xMin="156" yMin="-329" xMax="1201" yMax="1306">
      <contour>
        <pt x="421" y="-145" on="0"/>
        <pt x="642" y="-34" on="0"/>
        <pt x="769" y="150" on="0"/>
        <pt x="769" y="254" on="1"/>
        <pt x="769" y="381" on="0"/>
        <pt x="638" y="482" on="0"/>
        <pt x="510" y="482" on="1"/>
        <pt x="443" y="482" on="0"/>
        <pt x="291" y="450" on="0"/>
        <pt x="241" y="429" on="1"/>
        <pt x="156" y="488" on="1"/>
        <pt x="252" y="1267" on="1"/>
        <pt x="957" y="1267" on="1"/>
        <pt x="977" y="1306" on="1"/>
        <pt x="1137" y="1306" on="1"/>
        <pt x="1085" y="988" on="1"/>
        <pt x="499" y="988" on="1"/>
        <pt x="425" y="634" on="1"/>
        <pt x="433" y="638" on="0"/>
        <pt x="534" y="685" on="0"/>
        <pt x="680" y="718" on="0"/>
        <pt x="754" y="718" on="1"/>
        <pt x="979" y="718" on="0"/>
        <pt x="1201" y="508" on="0"/>
        <pt x="1201" y="326" on="1"/>
        <pt x="1201" y="126" on="0"/>
        <pt x="968" y="-171" on="0"/>
        <pt x="565" y="-329" on="0"/>
        <pt x="315" y="-329" on="1"/>
        <pt x="232" y="-329" on="0"/>
        <pt x="172" y="-315" on="1"/>
        <pt x="173" y="-141" on="1"/>
        <pt x="224" y="-145" on="0"/>
        <pt x="289" y="-145" on="1"/>
      </contour>
    </TTGlyph>
    <TTGlyph name="five.numr" xMin="97" yMin="529" xMax="897" yMax="1636">
      <contour>
        <pt x="180" y="676" on="0"/>
        <pt x="237" y="676" on="1"/>
        <pt x="392" y="676" on="0"/>
        <pt x="564" y="801" on="0"/>
        <pt x="564" y="911" on="1"/>
        <pt x="564" y="982" on="0"/>
        <pt x="469" y="1062" on="0"/>
        <pt x="380" y="1062" on="1"/>
        <pt x="325" y="1062" on="0"/>
        <pt x="215" y="1027" on="0"/>
        <pt x="191" y="1008" on="1"/>
        <pt x="97" y="1072" on="1"/>
        <pt x="152" y="1636" on="1"/>
        <pt x="852" y="1636" on="1"/>
        <pt x="837" y="1419" on="1"/>
        <pt x="345" y="1419" on="1"/>
        <pt x="304" y="1176" on="1"/>
        <pt x="345" y="1202" on="0"/>
        <pt x="483" y="1241" on="0"/>
        <pt x="559" y="1241" on="1"/>
        <pt x="733" y="1241" on="0"/>
        <pt x="897" y="1078" on="0"/>
        <pt x="897" y="941" on="1"/>
        <pt x="897" y="812" on="0"/>
        <pt x="757" y="627" on="0"/>
        <pt x="491" y="529" on="0"/>
        <pt x="306" y="529" on="1"/>
        <pt x="263" y="529" on="0"/>
        <pt x="140" y="535" on="0"/>
        <pt x="114" y="541" on="1"/>
        <pt x="124" y="683" on="1"/>
      </contour>
    </TTGlyph>
    <TTGlyph name="fiveeighths" xMin="97" yMin="-209" xMax="2380" yMax="1649">
      <contour>
        <pt x="1388" y="1649" on="1"/>
        <pt x="1612" y="1640" on="1"/>
        <pt x="933" y="-209" on="1"/>
        <pt x="710" y="-201" on="1"/>
      </contour>
      <contour>
        <pt x="180" y="676" on="0"/>
        <pt x="237" y="676" on="1"/>
        <pt x="392" y="676" on="0"/>
        <pt x="564" y="801" on="0"/>
        <pt x="564" y="911" on="1"/>
        <pt x="564" y="982" on="0"/>
        <pt x="469" y="1062" on="0"/>
        <pt x="380" y="1062" on="1"/>
        <pt x="325" y="1062" on="0"/>
        <pt x="215" y="1027" on="0"/>
        <pt x="191" y="1008" on="1"/>
        <pt x="97" y="1072" on="1"/>
        <pt x="152" y="1636" on="1"/>
        <pt x="852" y="1636" on="1"/>
        <pt x="837" y="1419" on="1"/>
        <pt x="345" y="1419" on="1"/>
        <pt x="304" y="1176" on="1"/>
        <pt x="345" y="1202" on="0"/>
        <pt x="483" y="1241" on="0"/>
        <pt x="559" y="1241" on="1"/>
        <pt x="733" y="1241" on="0"/>
        <pt x="897" y="1078" on="0"/>
        <pt x="897" y="941" on="1"/>
        <pt x="897" y="812" on="0"/>
        <pt x="757" y="627" on="0"/>
        <pt x="491" y="529" on="0"/>
        <pt x="306" y="529" on="1"/>
        <pt x="263" y="529" on="0"/>
        <pt x="140" y="535" on="0"/>
        <pt x="114" y="541" on="1"/>
        <pt x="124" y="683" on="1"/>
      </contour>
      <contour>
        <pt x="1454" y="378" on="0"/>
        <pt x="1557" y="498" on="0"/>
        <pt x="1645" y="529" on="1"/>
        <pt x="1575" y="580" on="0"/>
        <pt x="1496" y="714" on="0"/>
        <pt x="1496" y="807" on="1"/>
        <pt x="1496" y="893" on="0"/>
        <pt x="1607" y="1030" on="0"/>
        <pt x="1801" y="1108" on="0"/>
        <pt x="1921" y="1108" on="1"/>
        <pt x="2057" y="1108" on="0"/>
        <pt x="2230" y="1031" on="0"/>
        <pt x="2308" y="908" on="0"/>
        <pt x="2308" y="836" on="1"/>
        <pt x="2308" y="766" on="0"/>
        <pt x="2222" y="641" on="0"/>
        <pt x="2140" y="606" on="1"/>
        <pt x="2253" y="550" on="0"/>
        <pt x="2380" y="417" on="0"/>
        <pt x="2380" y="317" on="1"/>
        <pt x="2380" y="219" on="0"/>
        <pt x="2260" y="68" on="0"/>
        <pt x="2047" y="-15" on="0"/>
        <pt x="1911" y="-15" on="1"/>
        <pt x="1791" y="-15" on="0"/>
        <pt x="1582" y="55" on="0"/>
        <pt x="1454" y="193" on="0"/>
        <pt x="1454" y="291" on="1"/>
      </contour>
      <contour>
        <pt x="2067" y="690" on="0"/>
        <pt x="2097" y="785" on="0"/>
        <pt x="2097" y="832" on="1"/>
        <pt x="2097" y="875" on="0"/>
        <pt x="2055" y="944" on="0"/>
        <pt x="1976" y="985" on="0"/>
        <pt x="1924" y="985" on="1"/>
        <pt x="1856" y="985" on="0"/>
        <pt x="1775" y="925" on="0"/>
        <pt x="1775" y="874" on="1"/>
        <pt x="1775" y="825" on="0"/>
        <pt x="1841" y="750" on="0"/>
        <pt x="1942" y="694" on="0"/>
        <pt x="2026" y="657" on="1"/>
      </contour>
      <contour>
        <pt x="1719" y="443" on="0"/>
        <pt x="1692" y="368" on="0"/>
        <pt x="1692" y="326" on="1"/>
        <pt x="1692" y="267" on="0"/>
        <pt x="1741" y="172" on="0"/>
        <pt x="1835" y="117" on="0"/>
        <pt x="1900" y="117" on="1"/>
        <pt x="1967" y="117" on="0"/>
        <pt x="2063" y="185" on="0"/>
        <pt x="2063" y="239" on="1"/>
        <pt x="2063" y="280" on="0"/>
        <pt x="2007" y="343" on="0"/>
        <pt x="1921" y="389" on="0"/>
        <pt x="1845" y="423" on="1"/>
        <pt x="1768" y="458" on="0"/>
        <pt x="1744" y="470" on="1"/>
      </contour>
    </TTGlyph>
    <TTGlyph name="fl" xMin="56" yMin="0" xMax="1530" yMax="1725">
      <contour>
        <pt x="202" y="173" on="1"/>
        <pt x="202" y="950" on="1"/>
        <pt x="59" y="950" on="1"/>
        <pt x="59" y="1091" on="1"/>
        <pt x="202" y="1134" on="1"/>
        <pt x="202" y="1197" on="1"/>
        <pt x="202" y="1333" on="0"/>
        <pt x="353" y="1577" on="0"/>
        <pt x="609" y="1725" on="0"/>
        <pt x="758" y="1725" on="1"/>
        <pt x="803" y="1725" on="0"/>
        <pt x="866" y="1710" on="0"/>
        <pt x="883" y="1702" on="1"/>
        <pt x="883" y="1351" on="1"/>
        <pt x="870" y="1369" on="0"/>
        <pt x="805" y="1412" on="0"/>
        <pt x="726" y="1442" on="0"/>
        <pt x="691" y="1442" on="1"/>
        <pt x="639" y="1442" on="0"/>
        <pt x="596" y="1389" on="0"/>
        <pt x="596" y="1330" on="1"/>
        <pt x="596" y="1137" on="1"/>
        <pt x="835" y="1137" on="1"/>
        <pt x="835" y="950" on="1"/>
        <pt x="596" y="950" on="1"/>
        <pt x="596" y="172" on="1"/>
        <pt x="795" y="151" on="1"/>
        <pt x="795" y="0" on="1"/>
        <pt x="56" y="0" on="1"/>
        <pt x="56" y="151" on="1"/>
      </contour>
      <contour>
        <pt x="1026" y="173" on="1"/>
        <pt x="1026" y="1455" on="1"/>
        <pt x="893" y="1485" on="1"/>
        <pt x="893" y="1627" on="1"/>
        <pt x="1345" y="1680" on="1"/>
        <pt x="1351" y="1680" on="1"/>
        <pt x="1419" y="1630" on="1"/>
        <pt x="1419" y="173" on="1"/>
        <pt x="1530" y="152" on="1"/>
        <pt x="1530" y="0" on="1"/>
        <pt x="915" y="0" on="1"/>
        <pt x="915" y="152" on="1"/>
      </contour>
    </TTGlyph>
    <TTGlyph name="florin" xMin="158" yMin="-356" xMax="1066" yMax="1685">
      <contour>
        <pt x="158" y="920" on="1"/>
        <pt x="176" y="1076" on="1"/>
        <pt x="372" y="1137" on="1"/>
        <pt x="383" y="1218" on="1"/>
        <pt x="395" y="1360" on="0"/>
        <pt x="541" y="1573" on="0"/>
        <pt x="754" y="1685" on="0"/>
        <pt x="863" y="1685" on="1"/>
        <pt x="940" y="1685" on="0"/>
        <pt x="1042" y="1670" on="0"/>
        <pt x="1066" y="1662" on="1"/>
        <pt x="1040" y="1375" on="1"/>
        <pt x="980" y="1427" on="0"/>
        <pt x="875" y="1427" on="1"/>
        <pt x="825" y="1427" on="0"/>
        <pt x="749" y="1355" on="0"/>
        <pt x="741" y="1276" on="1"/>
        <pt x="724" y="1137" on="1"/>
        <pt x="994" y="1137" on="1"/>
        <pt x="973" y="920" on="1"/>
        <pt x="699" y="920" on="1"/>
        <pt x="585" y="-356" on="1"/>
        <pt x="233" y="-356" on="1"/>
        <pt x="348" y="920" on="1"/>
      </contour>
    </TTGlyph>
    <TTGlyph name="four" xMin="38" yMin="-328" xMax="1353" yMax="1397">
      <contour>
        <pt x="126" y="291" on="0"/>
        <pt x="463" y="1100" on="0"/>
        <pt x="578" y="1397" on="1"/>
        <pt x="652" y="1397" on="1"/>
        <pt x="976" y="1234" on="1"/>
        <pt x="923" y="1132" on="0"/>
        <pt x="663" y="643" on="0"/>
        <pt x="546" y="425" on="1"/>
        <pt x="500" y="338" on="1"/>
        <pt x="402" y="194" on="1"/>
        <pt x="799" y="223" on="1"/>
        <pt x="838" y="584" on="1"/>
        <pt x="1129" y="604" on="1"/>
        <pt x="1129" y="247" on="1"/>
        <pt x="1353" y="263" on="1"/>
        <pt x="1353" y="0" on="1"/>
        <pt x="1129" y="0" on="1"/>
        <pt x="1129" y="-328" on="1"/>
        <pt x="796" y="-328" on="1"/>
        <pt x="796" y="0" on="1"/>
        <pt x="126" y="0" on="1"/>
        <pt x="38" y="129" on="1"/>
      </contour>
    </TTGlyph>
    <TTGlyph name="four.dnom" xMin="31" yMin="2" xMax="1045" yMax="1126">
      <contour>
        <pt x="69" y="400" on="0"/>
        <pt x="222" y="712" on="0"/>
        <pt x="246" y="760" on="1"/>
        <pt x="382" y="1039" on="0"/>
        <pt x="427" y="1126" on="1"/>
        <pt x="706" y="1126" on="1"/>
        <pt x="761" y="1064" on="1"/>
        <pt x="427" y="535" on="1"/>
        <pt x="297" y="368" on="1"/>
        <pt x="616" y="384" on="1"/>
        <pt x="653" y="632" on="1"/>
        <pt x="875" y="644" on="1"/>
        <pt x="875" y="397" on="1"/>
        <pt x="1045" y="406" on="1"/>
        <pt x="1044" y="210" on="1"/>
        <pt x="875" y="210" on="1"/>
        <pt x="875" y="2" on="1"/>
        <pt x="612" y="2" on="1"/>
        <pt x="611" y="210" on="1"/>
        <pt x="126" y="210" on="1"/>
        <pt x="31" y="333" on="1"/>
      </contour>
    </TTGlyph>
    <TTGlyph name="fraction" xMin="-251" yMin="-209" xMax="651" yMax="1649">
      <contour>
        <pt x="427" y="1649" on="1"/>
        <pt x="651" y="1640" on="1"/>
        <pt x="-28" y="-209" on="1"/>
        <pt x="-251" y="-201" on="1"/>
      </contour>
    </TTGlyph>
    <TTGlyph name="franc" xMin="89" yMin="0" xMax="1343" yMax="1522">
      <contour>
        <pt x="298" y="457" on="1"/>
        <pt x="298" y="1323" on="1"/>
        <pt x="141" y="1353" on="1"/>
        <pt x="141" y="1522" on="1"/>
        <pt x="1327" y="1522" on="1"/>
        <pt x="1343" y="1122" on="1"/>
        <pt x="1154" y="1122" on="1"/>
        <pt x="1074" y="1341" on="1"/>
        <pt x="725" y="1373" on="1"/>
        <pt x="725" y="871" on="1"/>
        <pt x="944" y="876" on="1"/>
        <pt x="987" y="1023" on="1"/>
        <pt x="1150" y="1023" on="1"/>
        <pt x="1150" y="532" on="1"/>
        <pt x="990" y="532" on="1"/>
        <pt x="944" y="692" on="1"/>
        <pt x="725" y="700" on="1"/>
        <pt x="725" y="457" on="1"/>
        <pt x="987" y="457" on="1"/>
        <pt x="987" y="300" on="1"/>
        <pt x="725" y="300" on="1"/>
        <pt x="725" y="174" on="1"/>
        <pt x="931" y="152" on="1"/>
        <pt x="931" y="0" on="1"/>
        <pt x="148" y="0" on="1"/>
        <pt x="148" y="152" on="1"/>
        <pt x="298" y="175" on="1"/>
        <pt x="298" y="300" on="1"/>
        <pt x="89" y="300" on="1"/>
        <pt x="89" y="457" on="1"/>
      </contour>
    </TTGlyph>
    <TTGlyph name="g" xMin="45" yMin="-552" xMax="1309" yMax="1173">
      <contour>
        <pt x="589" y="392" on="1"/>
        <pt x="495" y="392" on="0"/>
        <pt x="421" y="404" on="1"/>
        <pt x="417" y="382" on="0"/>
        <pt x="412" y="338" on="0"/>
        <pt x="412" y="325" on="1"/>
        <pt x="412" y="286" on="0"/>
        <pt x="451" y="245" on="0"/>
        <pt x="543" y="228" on="0"/>
        <pt x="629" y="228" on="1"/>
        <pt x="829" y="228" on="1"/>
        <pt x="1054" y="228" on="0"/>
        <pt x="1284" y="72" on="0"/>
        <pt x="1284" y="-95" on="1"/>
        <pt x="1284" y="-238" on="0"/>
        <pt x="1086" y="-446" on="0"/>
        <pt x="771" y="-552" on="0"/>
        <pt x="599" y="-552" on="1"/>
        <pt x="598" y="-552" on="1"/>
        <pt x="305" y="-552" on="0"/>
        <pt x="45" y="-371" on="0"/>
        <pt x="45" y="-224" on="1"/>
        <pt x="45" y="-172" on="0"/>
        <pt x="95" y="-70" on="0"/>
        <pt x="183" y="13" on="0"/>
        <pt x="239" y="35" on="1"/>
        <pt x="145" y="94" on="0"/>
        <pt x="145" y="212" on="1"/>
        <pt x="145" y="276" on="0"/>
        <pt x="237" y="398" on="0"/>
        <pt x="315" y="430" on="1"/>
        <pt x="187" y="474" on="0"/>
        <pt x="78" y="656" on="0"/>
        <pt x="78" y="787" on="1"/>
        <pt x="78" y="903" on="0"/>
        <pt x="221" y="1076" on="0"/>
        <pt x="469" y="1168" on="0"/>
        <pt x="621" y="1168" on="1"/>
        <pt x="622" y="1168" on="1"/>
        <pt x="901" y="1168" on="0"/>
        <pt x="1019" y="1070" on="1"/>
        <pt x="1048" y="1109" on="0"/>
        <pt x="1169" y="1173" on="0"/>
        <pt x="1232" y="1173" on="1"/>
        <pt x="1309" y="1173" on="1"/>
        <pt x="1309" y="889" on="1"/>
        <pt x="1116" y="889" on="1"/>
        <pt x="1123" y="850" on="0"/>
        <pt x="1123" y="800" on="1"/>
        <pt x="1124" y="676" on="0"/>
        <pt x="1007" y="493" on="0"/>
        <pt x="768" y="392" on="0"/>
        <pt x="590" y="392" on="1"/>
      </contour>
      <contour>
        <pt x="611" y="1024" on="1"/>
        <pt x="537" y="1024" on="0"/>
        <pt x="473" y="902" on="0"/>
        <pt x="473" y="790" on="1"/>
        <pt x="473" y="664" on="0"/>
        <pt x="538" y="542" on="0"/>
        <pt x="610" y="542" on="1"/>
        <pt x="611" y="542" on="1"/>
        <pt x="681" y="542" on="0"/>
        <pt x="740" y="667" on="0"/>
        <pt x="740" y="780" on="1"/>
        <pt x="740" y="909" on="0"/>
        <pt x="681" y="1024" on="0"/>
        <pt x="612" y="1024" on="1"/>
      </contour>
      <contour>
        <pt x="432" y="-71" on="0"/>
        <pt x="432" y="-152" on="1"/>
        <pt x="432" y="-260" on="0"/>
        <pt x="536" y="-380" on="0"/>
        <pt x="646" y="-380" on="1"/>
        <pt x="648" y="-380" on="1"/>
        <pt x="704" y="-380" on="0"/>
        <pt x="800" y="-334" on="0"/>
        <pt x="860" y="-238" on="0"/>
        <pt x="860" y="-167" on="1"/>
        <pt x="860" y="-86" on="0"/>
        <pt x="779" y="-20" on="0"/>
        <pt x="690" y="-20" on="1"/>
        <pt x="495" y="-20" on="1"/>
        <pt x="477" y="-20" on="0"/>
        <pt x="449" y="-18" on="1"/>
      </contour>
    </TTGlyph>
</ttFont>
